<svg width="197" height="197" viewBox="0 0 197 197" fill="none" xmlns="http://www.w3.org/2000/svg">
<g id="1-&#208;&#148;1-&#208;&#159;1-&#208;&#155;(2.1)_&#208;&#145;&#208;&#149;&#208;&#151;_&#208;&#156;&#208;&#149;&#208;&#145;&#208;&#149;&#208;&#155;&#208;&#152; 1">
<path id="Vector" fill-rule="evenodd" clip-rule="evenodd" d="M35.7001 152.013H35.3867L35.6585 32.5469L35.7001 152.013Z" fill="#66768B"/>
<path id="Vector_2" fill-rule="evenodd" clip-rule="evenodd" d="M51.0957 69.5407V67.5049H62.531V69.5407H51.0957Z" fill="white" stroke="white" stroke-width="0.226072" stroke-miterlimit="22.9256"/>
<path id="Vector_3" fill-rule="evenodd" clip-rule="evenodd" d="M79.6719 69.5407V67.5049H92.5777V69.5407H79.6719Z" fill="white" stroke="white" stroke-width="0.226072" stroke-miterlimit="22.9256"/>
<path id="Vector_4" fill-rule="evenodd" clip-rule="evenodd" d="M102.182 69.5407V67.5049H115.37V69.5407H102.182Z" fill="white" stroke="white" stroke-width="0.226072" stroke-miterlimit="22.9256"/>
<path id="Vector_5" fill-rule="evenodd" clip-rule="evenodd" d="M120.506 42.6003H122.542V54.3775H120.506V42.6003Z" fill="white" stroke="white" stroke-width="0.226072" stroke-miterlimit="22.9256"/>
<path id="Vector_6" d="M161.608 72.5136C161.575 72.4763 161.555 72.4275 161.555 72.3737V59.6434C161.555 59.5958 161.57 59.5519 161.597 59.5168V63.2449H161.625L161.608 72.5136Z" fill="#66768B"/>
<path id="Vector_7" d="M158.18 124.541H158.165V137.23C158.121 137.1 158.098 136.962 158.098 136.821V122.46C158.098 122.309 158.124 122.165 158.172 122.03L158.18 124.541Z" fill="#66768B"/>
<path id="Vector_8" fill-rule="evenodd" clip-rule="evenodd" d="M158.322 39.7815V46.9578H161.325V39.7815H158.322Z" fill="white" stroke="#66768B" stroke-width="0.226072" stroke-miterlimit="22.9256"/>
<path id="Vector_9" d="M158.322 46.9578L161.325 39.7815" stroke="#66768B" stroke-width="0.226072" stroke-miterlimit="22.9256"/>
<path id="Vector_10" d="M158.322 39.7815L161.325 46.9578" stroke="#66768B" stroke-width="0.226072" stroke-miterlimit="22.9256"/>
<path id="Vector_11" fill-rule="evenodd" clip-rule="evenodd" d="M148.414 67.6094V72.3908H153.931V67.6094H148.414Z" fill="white" stroke="#66768B" stroke-width="0.226072" stroke-miterlimit="22.9256"/>
<path id="Vector_12" d="M148.414 72.3908L153.931 67.6094" stroke="#66768B" stroke-width="0.226072" stroke-miterlimit="22.9256"/>
<path id="Vector_13" d="M148.414 67.6094L153.931 72.3908" stroke="#66768B" stroke-width="0.226072" stroke-miterlimit="22.9256"/>
<path id="Vector_14" fill-rule="evenodd" clip-rule="evenodd" d="M120.506 55.1479V54.3772H122.542V55.1479H120.506Z" fill="white" stroke="#66768B" stroke-width="0.226072" stroke-miterlimit="22.9256"/>
<path id="Vector_15" fill-rule="evenodd" clip-rule="evenodd" d="M120.506 41.8296V42.6003H122.542V41.8296H120.506Z" fill="white" stroke="#66768B" stroke-width="0.226072" stroke-miterlimit="22.9256"/>
<path id="Vector_16" fill-rule="evenodd" clip-rule="evenodd" d="M116.14 69.5407H115.369V67.5049H116.14V69.5407Z" fill="#66768B" stroke="#66768B" stroke-width="0.226072" stroke-miterlimit="22.9256"/>
<path id="Vector_17" fill-rule="evenodd" clip-rule="evenodd" d="M101.41 69.5407H102.181V67.5049H101.41V69.5407Z" fill="white" stroke="#66768B" stroke-width="0.226072" stroke-miterlimit="22.9256"/>
<path id="Vector_18" fill-rule="evenodd" clip-rule="evenodd" d="M93.349 69.5407H92.5781V67.5049H93.349V69.5407Z" fill="white" stroke="#66768B" stroke-width="0.226072" stroke-miterlimit="22.9256"/>
<path id="Vector_19" fill-rule="evenodd" clip-rule="evenodd" d="M63.3019 69.5407H62.5312V67.5049H63.3019V69.5407Z" fill="white" stroke="#66768B" stroke-width="0.226072" stroke-miterlimit="22.9256"/>
<path id="Vector_20" fill-rule="evenodd" clip-rule="evenodd" d="M50.3242 69.5407H51.0945V67.5049H50.3242V69.5407Z" fill="white" stroke="#66768B" stroke-width="0.226072" stroke-miterlimit="22.9256"/>
<path id="Vector_21" fill-rule="evenodd" clip-rule="evenodd" d="M79.6732 69.5407H78.9023V67.5049H79.6732V69.5407Z" fill="white" stroke="#66768B" stroke-width="0.226072" stroke-miterlimit="22.9256"/>
<path id="Vector_22" fill-rule="evenodd" clip-rule="evenodd" d="M154.354 144.458V74.7053H157.987V144.458H154.354Z" fill="#66768B" stroke="#66768B" stroke-width="0.226072" stroke-miterlimit="22.9256"/>
<path id="Vector_23" fill-rule="evenodd" clip-rule="evenodd" d="M161.436 74.7053H161.604L161.608 72.6694H161.436V74.7053Z" fill="#66768B"/>
<path id="Vector_24" d="M161.605 74.8828L161.227 74.8834V72.459H161.61L161.605 74.8828Z" fill="#66768B"/>
<path id="Vector_25" fill-rule="evenodd" clip-rule="evenodd" d="M118.119 32.5469V36.0699H154.029V32.5469H118.119Z" fill="#66768B" stroke="#66768B" stroke-width="0.226072" stroke-miterlimit="22.9256"/>
<path id="Vector_26" fill-rule="evenodd" clip-rule="evenodd" d="M120.506 41.8297V36.0698H122.542V41.8297H120.506Z" fill="#66768B" stroke="#66768B" stroke-width="0.226072" stroke-miterlimit="22.9256"/>
<path id="Vector_27" fill-rule="evenodd" clip-rule="evenodd" d="M120.507 69.5407H116.141V67.5049H120.507V69.5407Z" fill="#66768B" stroke="#66768B" stroke-width="0.226072" stroke-miterlimit="22.9256"/>
<path id="Vector_28" fill-rule="evenodd" clip-rule="evenodd" d="M96.0038 144.623V69.5407H93.3496V67.5049C96.0367 67.5049 98.7241 67.5049 101.411 67.5049V69.5407H98.0397V144.623H96.0038Z" fill="#66768B" stroke="#66768B" stroke-width="0.226072" stroke-miterlimit="22.9256"/>
<path id="Vector_29" fill-rule="evenodd" clip-rule="evenodd" d="M53.719 149.791H35.3867V144.623H35.6585V147.73C38.053 147.73 40.4472 147.73 42.8417 147.73V144.623H53.719V149.791Z" fill="#66768B"/>
<path id="Vector_30" d="M53.719 150.001H35.3867V149.58H53.5085V144.833H43.052V147.941H35.448V144.833H35.3867V144.413H35.8688V147.52H42.6312V144.413H53.9295V150.001H53.719Z" fill="#66768B"/>
<path id="Vector_31" fill-rule="evenodd" clip-rule="evenodd" d="M98.0399 169.084H94.0156V144.623H98.0399V169.084Z" fill="#66768B" stroke="#66768B" stroke-width="0.226072" stroke-miterlimit="22.9256"/>
<path id="Vector_32" fill-rule="evenodd" clip-rule="evenodd" d="M118.118 32.5469H117.348V34.5825H118.118V32.5469Z" fill="white" stroke="#66768B" stroke-width="0.226072" stroke-miterlimit="22.9256"/>
<path id="Vector_33" fill-rule="evenodd" clip-rule="evenodd" d="M101.625 32.5469H102.396V34.5825H101.625V32.5469Z" fill="white" stroke="#66768B" stroke-width="0.226072" stroke-miterlimit="22.9256"/>
<path id="Vector_34" fill-rule="evenodd" clip-rule="evenodd" d="M100.438 32.5469V36.0699H101.624V32.5469H100.438Z" fill="#66768B" stroke="#66768B" stroke-width="0.226072" stroke-miterlimit="22.9256"/>
<path id="Vector_35" fill-rule="evenodd" clip-rule="evenodd" d="M93.2543 36.2211V32.5469H42.8418V36.2211H93.2543Z" fill="#66768B" stroke="#66768B" stroke-width="0.226072" stroke-miterlimit="22.9256"/>
<path id="Vector_36" fill-rule="evenodd" clip-rule="evenodd" d="M50.3255 69.5407H37.9258V67.5049H50.3255V69.5407Z" fill="#66768B" stroke="#66768B" stroke-width="0.226072" stroke-miterlimit="22.9256"/>
<path id="Vector_37" fill-rule="evenodd" clip-rule="evenodd" d="M78.9017 69.5409H63.3008V67.5049H74.2744V36.2209H76.3103V67.5049H78.9017V69.5409Z" fill="#66768B" stroke="#66768B" stroke-width="0.226072" stroke-miterlimit="22.9256"/>
<path id="Vector_38" fill-rule="evenodd" clip-rule="evenodd" d="M35.6582 140.815V39.4617H39.1267V140.815H35.6582Z" fill="#66768B" stroke="#66768B" stroke-width="0.226072" stroke-miterlimit="22.9256"/>
<path id="Vector_39" fill-rule="evenodd" clip-rule="evenodd" d="M98.7808 172.446V170.64H92.7394C92.7394 164.023 92.7394 156.408 92.7394 149.791H83.5547V152.012H90.3074V172.446C97.4503 172.446 91.6379 172.446 98.7808 172.446Z" fill="#66768B"/>
<path id="Vector_40" d="M98.5698 172.236V170.851H92.5285V150.001H83.7646V151.802H90.5175V172.236H98.5698ZM98.9908 172.446H90.0965V152.223H83.3438V149.58H92.9495V170.43H98.9908V170.641V172.446Z" fill="#66768B" stroke="#66768B" stroke-width="0.0861333" stroke-miterlimit="22.9256"/>
<path id="Vector_41" fill-rule="evenodd" clip-rule="evenodd" d="M114.802 24.625C114.905 24.7403 115.052 24.9375 115.21 25.1788L102.761 33.1203L102.395 32.5468L114.802 24.625Z" fill="white" stroke="#66768B" stroke-width="0.226072" stroke-miterlimit="22.9256"/>
<path id="Vector_42" d="M117.349 32.5467C117.293 29.3416 116.525 27.2219 115.211 25.1787" stroke="#66768B" stroke-width="0.226072" stroke-miterlimit="22.9256" stroke-linecap="round" stroke-linejoin="round"/>
<path id="Vector_43" fill-rule="evenodd" clip-rule="evenodd" d="M60.265 75.7646C60.368 75.6494 60.5145 75.4522 60.6725 75.2108L51.4625 68.967L51.0957 69.5407L60.265 75.7646Z" fill="white" stroke="#66768B" stroke-width="0.226072" stroke-miterlimit="22.9256" stroke-linecap="round" stroke-linejoin="round"/>
<path id="Vector_44" d="M62.5301 69.5408C62.518 71.2286 61.9099 73.2856 60.6719 75.2111" stroke="#66768B" stroke-width="0.226072" stroke-miterlimit="22.9256" stroke-linecap="round" stroke-linejoin="round"/>
<path id="Vector_45" fill-rule="evenodd" clip-rule="evenodd" d="M81.9837 76.6179C81.8808 76.5027 81.7341 76.3055 81.5762 76.0642L92.2118 68.967L92.5786 69.5407L81.9837 76.6179Z" fill="white" stroke="#66768B" stroke-width="0.226072" stroke-miterlimit="22.9256" stroke-linecap="round" stroke-linejoin="round"/>
<path id="Vector_46" d="M79.6719 69.5408C79.8262 72.433 80.4256 74.2757 81.5757 76.0642" stroke="#66768B" stroke-width="0.226072" stroke-miterlimit="22.9256" stroke-linecap="round" stroke-linejoin="round"/>
<path id="Vector_47" fill-rule="evenodd" clip-rule="evenodd" d="M113.058 76.6179C113.161 76.5027 113.308 76.3055 113.466 76.0642L102.548 68.967L102.182 69.5407L113.058 76.6179Z" fill="white" stroke="#66768B" stroke-width="0.226072" stroke-miterlimit="22.9256" stroke-linecap="round" stroke-linejoin="round"/>
<path id="Vector_48" d="M115.368 69.5408C115.214 72.433 114.615 74.2757 113.465 76.0642" stroke="#66768B" stroke-width="0.226072" stroke-miterlimit="22.9256" stroke-linecap="round" stroke-linejoin="round"/>
<path id="Vector_49" fill-rule="evenodd" clip-rule="evenodd" d="M114.281 52.1112C114.397 52.2141 114.594 52.3608 114.835 52.5187L121.08 42.9673L120.507 42.6003L114.281 52.1112Z" fill="white" stroke="#66768B" stroke-width="0.226072" stroke-miterlimit="22.9256" stroke-linecap="round" stroke-linejoin="round"/>
<path id="Vector_50" d="M120.506 54.3773C118.957 54.3963 116.475 53.574 114.834 52.5188" stroke="#66768B" stroke-width="0.226072" stroke-miterlimit="22.9256" stroke-linecap="round" stroke-linejoin="round"/>
<path id="Vector_51" fill-rule="evenodd" clip-rule="evenodd" d="M35.3867 149.791H53.7553V152.012H35.3867V149.791Z" fill="#66768B"/>
<path id="Vector_52" d="M35.3867 149.58H53.9658V152.223H35.3867V151.802H53.5448V150.001H35.3867V149.58Z" fill="#66768B"/>
<path id="Vector_53" fill-rule="evenodd" clip-rule="evenodd" d="M53.7559 152.013V144.57H83.5901V152.013H53.7559Z" fill="white" stroke="#66768B" stroke-width="0.226072" stroke-miterlimit="22.9256"/>
<path id="Vector_54" fill-rule="evenodd" clip-rule="evenodd" d="M53.7559 148.113V144.57H83.5901V148.113H53.7559Z" fill="white" stroke="#66768B" stroke-width="0.226072" stroke-miterlimit="22.9256"/>
<path id="Vector_55" fill-rule="evenodd" clip-rule="evenodd" d="M53.7559 148.113V146.832H82.0254V148.113H53.7559Z" fill="#66768B" stroke="#66768B" stroke-width="0.226072" stroke-miterlimit="22.9256"/>
<path id="Vector_56" fill-rule="evenodd" clip-rule="evenodd" d="M53.7559 148.113V146.832H55.3206V148.113H53.7559Z" fill="#66768B" stroke="#66768B" stroke-width="0.226072" stroke-miterlimit="22.9256"/>
<path id="Vector_57" fill-rule="evenodd" clip-rule="evenodd" d="M68.1777 148.113V146.832H69.7426V148.113H68.1777Z" fill="#66768B" stroke="#66768B" stroke-width="0.226072" stroke-miterlimit="22.9256"/>
<path id="Vector_58" fill-rule="evenodd" clip-rule="evenodd" d="M82.0254 148.113V146.832H83.5903V148.113H82.0254Z" fill="#66768B" stroke="#66768B" stroke-width="0.226072" stroke-miterlimit="22.9256"/>
<path id="Vector_59" fill-rule="evenodd" clip-rule="evenodd" d="M121.045 148.957V144.57H134.074V148.957H121.045Z" fill="white" stroke="#66768B" stroke-width="0.226072" stroke-miterlimit="22.9256"/>
<path id="Vector_60" fill-rule="evenodd" clip-rule="evenodd" d="M109.344 148.957V144.57H121.047V148.957H109.344Z" fill="white" stroke="#66768B" stroke-width="0.226072" stroke-miterlimit="22.9256"/>
<path id="Vector_61" fill-rule="evenodd" clip-rule="evenodd" d="M109.344 147.997V146.715H121.047V147.997H109.344Z" fill="#66768B" stroke="#66768B" stroke-width="0.226072" stroke-miterlimit="22.9256"/>
<path id="Vector_62" fill-rule="evenodd" clip-rule="evenodd" d="M109.344 147.997V146.715H110.908V147.997H109.344Z" fill="#66768B" stroke="#66768B" stroke-width="0.226072" stroke-miterlimit="22.9256"/>
<path id="Vector_63" fill-rule="evenodd" clip-rule="evenodd" d="M119.48 147.997V146.715H121.045V147.997H119.48Z" fill="#66768B" stroke="#66768B" stroke-width="0.226072" stroke-miterlimit="22.9256"/>
<path id="Vector_64" fill-rule="evenodd" clip-rule="evenodd" d="M109.156 172.446H110.698V170.64H109.156V172.446Z" fill="white"/>
<path id="Vector_65" d="M109.366 172.236H110.487V170.851H109.366V172.236ZM110.908 172.446H108.945V170.43H110.908V172.446Z" fill="#66768B"/>
<path id="Vector_66" fill-rule="evenodd" clip-rule="evenodd" d="M110.697 172.446H155.243V170.64H110.697V172.446Z" fill="white"/>
<path id="Vector_67" d="M110.907 172.236H155.032V170.851H110.907V172.236ZM155.452 172.446H110.486V170.43H155.452V172.446Z" fill="#66768B"/>
<path id="Vector_68" d="M110.697 171.543H155.242" stroke="#66768B" stroke-width="0.226072" stroke-miterlimit="22.9256"/>
<path id="Vector_69" fill-rule="evenodd" clip-rule="evenodd" d="M108.084 170.641H109.155V167.187H108.084V170.641Z" fill="#66768B" stroke="#66768B" stroke-width="0.226072" stroke-miterlimit="22.9256"/>
<path id="Vector_70" fill-rule="evenodd" clip-rule="evenodd" d="M108.084 167.187H109.155V165.728H108.084V167.187Z" fill="#66768B" stroke="#66768B" stroke-width="0.226072" stroke-miterlimit="22.9256"/>
<path id="Vector_71" fill-rule="evenodd" clip-rule="evenodd" d="M108.084 148.957H109.155V155.586H108.084V148.957Z" fill="#66768B" stroke="#66768B" stroke-width="0.226072" stroke-miterlimit="22.9256"/>
<path id="Vector_72" fill-rule="evenodd" clip-rule="evenodd" d="M108.084 155.586H109.155V157.045H108.084V155.586Z" fill="white" stroke="#66768B" stroke-width="0.226072" stroke-miterlimit="22.9256"/>
<path id="Vector_73" d="M109.156 165.728V157.044" stroke="#66768B" stroke-width="0.226072" stroke-miterlimit="22.9256" stroke-dasharray="2.26 2.71"/>
<path id="Vector_74" fill-rule="evenodd" clip-rule="evenodd" d="M121.047 147.997V146.715H121.871V147.997H121.047Z" fill="white" stroke="#66768B" stroke-width="0.226072" stroke-miterlimit="22.9256"/>
<path id="Vector_75" fill-rule="evenodd" clip-rule="evenodd" d="M133.334 147.997V146.715H134.076V147.997H133.334Z" fill="white" stroke="#66768B" stroke-width="0.226072" stroke-miterlimit="22.9256"/>
<path id="Vector_76" fill-rule="evenodd" clip-rule="evenodd" d="M123.814 141.088C123.978 140.848 124.055 140.739 124.214 140.546L133.334 146.715L132.967 147.289L123.814 141.088Z" fill="white" stroke="#66768B" stroke-width="0.226072" stroke-miterlimit="22.9256" stroke-linecap="round" stroke-linejoin="round"/>
<path id="Vector_77" d="M121.869 146.715C121.927 145.005 122.242 143.313 123.814 141.088" stroke="#66768B" stroke-width="0.226072" stroke-miterlimit="22.9256" stroke-linecap="round" stroke-linejoin="round"/>
<path id="Vector_78" fill-rule="evenodd" clip-rule="evenodd" d="M113.254 158.8C113.139 158.697 112.942 158.55 112.701 158.392L108.582 165.361L109.156 165.728L113.254 158.8Z" fill="white" stroke="#66768B" stroke-width="0.226072" stroke-miterlimit="22.9256" stroke-linecap="round" stroke-linejoin="round"/>
<path id="Vector_79" d="M109.156 157.044C110.434 157.044 111.721 157.612 112.759 158.43" stroke="#66768B" stroke-width="0.226072" stroke-miterlimit="22.9256" stroke-linecap="round" stroke-linejoin="round"/>
<path id="Vector_80" fill-rule="evenodd" clip-rule="evenodd" d="M98.7793 172.446H109.155V170.64H98.7793V172.446Z" fill="#66768B"/>
<path id="Vector_81" d="M98.9894 172.236H108.944V170.851H98.9894V172.236ZM109.365 172.446H98.5684V170.43H109.365V172.446Z" fill="#66768B"/>
<path id="Vector_82" fill-rule="evenodd" clip-rule="evenodd" d="M98.0394 144.57H109.343V148.957H99.3161V170.641C97.1237 170.641 94.9312 170.641 92.7387 170.641V149.791H83.5898V144.57H93.9411C93.9411 152.706 94.0153 160.872 94.0153 169.084H98.0394C98.0394 160.913 98.0394 152.741 98.0394 144.57Z" fill="#66768B" stroke="#66768B" stroke-width="0.226072" stroke-miterlimit="22.9256"/>
<path id="Vector_83" fill-rule="evenodd" clip-rule="evenodd" d="M134.074 148.957V144.57H154.352V148.957H134.074Z" fill="#66768B" stroke="#66768B" stroke-width="0.226072" stroke-miterlimit="22.9256"/>
<path id="Vector_84" fill-rule="evenodd" clip-rule="evenodd" d="M158.378 170.641H154.354V144.458H158.378V170.641Z" fill="#66768B" stroke="#66768B" stroke-width="0.226072" stroke-miterlimit="22.9256"/>
<path id="Vector_85" fill-rule="evenodd" clip-rule="evenodd" d="M155.242 172.446H156.783V170.64H155.242V172.446Z" fill="#66768B"/>
<path id="Vector_86" d="M155.452 172.236H156.572V170.851H155.452V172.236ZM156.993 172.446H155.031V170.43H156.993V172.446Z" fill="#66768B"/>
<path id="Vector_87" fill-rule="evenodd" clip-rule="evenodd" d="M158.588 144.57H158.377V148.957H158.599L158.588 144.57Z" fill="#66768B"/>
<path id="Vector_88" d="M158.587 144.78H158.587V148.747H158.595L158.602 149.168H158.166V144.359H158.587V144.78Z" fill="#66768B"/>
<path id="Vector_89" fill-rule="evenodd" clip-rule="evenodd" d="M158.344 172.446H156.803V170.64H158.344V172.446Z" fill="#66768B"/>
<path id="Vector_90" d="M156.592 172.446V170.43H158.554V172.446H156.592ZM157.013 172.236H158.133V170.851H157.013V172.236Z" fill="#66768B"/>
<path id="Vector_91" fill-rule="evenodd" clip-rule="evenodd" d="M120.506 67.505V55.1479H122.542V67.505H120.506Z" fill="#66768B" stroke="#66768B" stroke-width="0.226072" stroke-miterlimit="22.9256"/>
<path id="Vector_92" fill-rule="evenodd" clip-rule="evenodd" d="M148.102 74.7052H120.506V67.5049H148.102V74.7052Z" fill="white" stroke="#66768B" stroke-width="0.226072" stroke-miterlimit="22.9256"/>
<path id="Vector_93" fill-rule="evenodd" clip-rule="evenodd" d="M154.354 74.7053H148.104V72.6694H154.354V74.7053Z" fill="#66768B" stroke="#66768B" stroke-width="0.226072" stroke-miterlimit="22.9256"/>
<path id="Vector_94" fill-rule="evenodd" clip-rule="evenodd" d="M146.634 73.4112H136.248V68.7988H146.634V73.4112Z" fill="white" stroke="#66768B" stroke-width="0.226072" stroke-miterlimit="22.9256"/>
<path id="Vector_95" fill-rule="evenodd" clip-rule="evenodd" d="M121.658 68.7991H127.897V73.4111H121.658V68.7991Z" fill="white" stroke="#66768B" stroke-width="0.226072" stroke-miterlimit="22.9256"/>
<path id="Vector_96" fill-rule="evenodd" clip-rule="evenodd" d="M128.926 68.6689H131.678V73.4112H128.926V68.6689Z" fill="white" stroke="#66768B" stroke-width="0.226072" stroke-miterlimit="22.9256"/>
<path id="Vector_97" fill-rule="evenodd" clip-rule="evenodd" d="M128.926 67.5049H131.678V68.669H128.926V67.5049Z" fill="#66768B" stroke="#66768B" stroke-width="0.226072" stroke-miterlimit="22.9256"/>
<path id="Vector_98" d="M121.658 73.4111L127.897 68.7991" stroke="#66768B" stroke-width="0.226072" stroke-miterlimit="22.9256"/>
<path id="Vector_99" d="M128.926 73.4112L131.678 68.6689" stroke="#66768B" stroke-width="0.226072" stroke-miterlimit="22.9256"/>
<path id="Vector_100" d="M136.248 73.4111L146.634 68.7991" stroke="#66768B" stroke-width="0.226072" stroke-miterlimit="22.9256"/>
<path id="Vector_101" fill-rule="evenodd" clip-rule="evenodd" d="M132.441 73.5411H135.194V68.7991H132.441V73.5411Z" fill="white" stroke="#66768B" stroke-width="0.226072" stroke-miterlimit="22.9256"/>
<path id="Vector_102" fill-rule="evenodd" clip-rule="evenodd" d="M132.441 74.7054H135.194V73.5413H132.441V74.7054Z" fill="#66768B" stroke="#66768B" stroke-width="0.226072" stroke-miterlimit="22.9256"/>
<path id="Vector_103" d="M132.441 68.7991L135.194 73.5411" stroke="#66768B" stroke-width="0.226072" stroke-miterlimit="22.9256"/>
<path id="Vector_104" fill-rule="evenodd" clip-rule="evenodd" d="M154.354 47.2627V39.4617H157.987V47.2627H154.354Z" fill="#66768B" stroke="#66768B" stroke-width="0.226072" stroke-miterlimit="22.9256"/>
<path id="Vector_105" fill-rule="evenodd" clip-rule="evenodd" d="M154.354 74.7053V47.2627C156.715 47.2627 159.076 47.2627 161.437 47.2627V74.7053C159.076 74.7053 156.715 74.7053 154.354 74.7053Z" fill="white" stroke="#66768B" stroke-width="0.226072" stroke-miterlimit="22.9256"/>
<path id="Vector_106" fill-rule="evenodd" clip-rule="evenodd" d="M155.596 69.6874V59.3013H160.193V69.6874H155.596Z" fill="white" stroke="#66768B" stroke-width="0.226072" stroke-miterlimit="22.9256"/>
<path id="Vector_107" d="M155.596 69.6874L160.193 59.3013" stroke="#66768B" stroke-width="0.226072" stroke-miterlimit="22.9256"/>
<path id="Vector_108" fill-rule="evenodd" clip-rule="evenodd" d="M155.596 54.2724V47.9976H160.193V54.2724H155.596Z" fill="white" stroke="#66768B" stroke-width="0.226072" stroke-miterlimit="22.9256"/>
<path id="Vector_109" d="M155.596 54.2724L160.193 47.9976" stroke="#66768B" stroke-width="0.226072" stroke-miterlimit="22.9256"/>
<path id="Vector_110" fill-rule="evenodd" clip-rule="evenodd" d="M155.596 57.7589V55.1909H160.193V57.7589H155.596Z" fill="white" stroke="#66768B" stroke-width="0.226072" stroke-miterlimit="22.9256"/>
<path id="Vector_111" fill-rule="evenodd" clip-rule="evenodd" d="M160.193 57.7589V55.1909H161.436V57.7589H160.193Z" fill="#66768B" stroke="#66768B" stroke-width="0.226072" stroke-miterlimit="22.9256"/>
<path id="Vector_112" d="M155.596 57.7588L160.193 55.1907" stroke="#66768B" stroke-width="0.226072" stroke-miterlimit="22.9256"/>
<path id="Vector_113" fill-rule="evenodd" clip-rule="evenodd" d="M155.596 73.1511V70.583H160.193V73.1511H155.596Z" fill="white" stroke="#66768B" stroke-width="0.226072" stroke-miterlimit="22.9256"/>
<path id="Vector_114" d="M155.596 73.1511L160.193 70.583" stroke="#66768B" stroke-width="0.226072" stroke-miterlimit="22.9256"/>
<path id="Vector_115" fill-rule="evenodd" clip-rule="evenodd" d="M157.986 74.7052V73.1511H160.193V74.7052H157.986Z" fill="#66768B" stroke="#66768B" stroke-width="0.226072" stroke-miterlimit="22.9256"/>
<path id="Vector_116" fill-rule="evenodd" clip-rule="evenodd" d="M42.8414 147.73V140.815H35.6582V147.73H42.8414Z" fill="#66768B" stroke="#66768B" stroke-width="0.226072" stroke-miterlimit="22.9256"/>
<path id="Vector_117" fill-rule="evenodd" clip-rule="evenodd" d="M42.8414 39.4619V32.5469H35.6582V39.4619H42.8414Z" fill="#66768B" stroke="#66768B" stroke-width="0.226072" stroke-miterlimit="22.9256"/>
<path id="Vector_118" fill-rule="evenodd" clip-rule="evenodd" d="M100.437 39.4619V32.5469H93.2539V39.4619H100.437Z" fill="#66768B" stroke="#66768B" stroke-width="0.226072" stroke-miterlimit="22.9256"/>
<path id="Vector_119" fill-rule="evenodd" clip-rule="evenodd" d="M161.212 39.4619V32.5469H154.029V39.4619H161.212Z" fill="#66768B" stroke="#66768B" stroke-width="0.226072" stroke-miterlimit="22.9256"/>
<path id="Vector_120" d="M153.576 32.4441H161.435" stroke="#66768B" stroke-width="0.113036" stroke-miterlimit="22.9256"/>
<path id="Vector_121" fill-rule="evenodd" clip-rule="evenodd" d="M39.1267 67.505V39.4617H38.0178H35.6606H35.6582V140.815H35.696H37.7625H39.1267V69.5407V67.505Z" fill="#66768B" stroke="#66768B" stroke-width="0.226072" stroke-miterlimit="22.9256"/>
<path id="Vector_122" fill-rule="evenodd" clip-rule="evenodd" d="M42.8414 140.815H39.1267H37.7625H35.696H35.6582V144.413V144.623V147.73H35.6983H37.7451H42.8414V144.623V144.413V140.815Z" fill="#66768B" stroke="#66768B" stroke-width="0.226072" stroke-miterlimit="22.9256"/>
<path id="Vector_123" fill-rule="evenodd" clip-rule="evenodd" d="M53.5089 144.833H43.0524V147.941H37.7453H35.699H35.4484V144.833H35.4033L35.3926 149.58H35.6996H37.7411H53.5089V144.833Z" fill="#66768B" stroke="#66768B" stroke-width="0.226072" stroke-miterlimit="22.9256"/>
<path id="Vector_124" fill-rule="evenodd" clip-rule="evenodd" d="M53.5448 150.001H37.7396H35.6994H35.3913L35.3867 151.802H35.6999H37.7352H53.5448V150.001Z" fill="#66768B" stroke="#66768B" stroke-width="0.226072" stroke-miterlimit="22.9256"/>
<path id="Vector_125" fill-rule="evenodd" clip-rule="evenodd" d="M83.5898 148.113V149.58V149.791H92.7387V170.641C94.6822 170.641 96.6258 170.641 98.5693 170.641C98.6396 170.641 98.7096 170.641 98.7798 170.641C98.85 170.641 98.9201 170.641 98.9903 170.641C99.0988 170.641 99.2076 170.641 99.3161 170.641V170.43V148.957H108.084H109.156H109.343V147.997V146.715V144.57H98.0394L98.0396 144.623L98.0394 169.084H94.0152V168.515C94.0119 160.495 93.9411 152.518 93.9411 144.57H83.5898V146.831V148.113Z" fill="#66768B" stroke="#66768B" stroke-width="0.226072" stroke-miterlimit="22.9256"/>
<path id="Vector_126" fill-rule="evenodd" clip-rule="evenodd" d="M92.5278 150.001H83.7637V151.802H90.5166V172.236H98.569V170.851H92.5278V150.001Z" fill="#66768B" stroke="#66768B" stroke-width="0.226072" stroke-miterlimit="22.9256"/>
<path id="Vector_127" fill-rule="evenodd" clip-rule="evenodd" d="M53.5089 149.58V144.833H43.0524V147.941H37.7453H35.699H35.4484V144.833H35.4033L35.3926 149.58H35.6996H37.7411H53.5089Z" fill="#66768B" stroke="#66768B" stroke-width="0.226072" stroke-miterlimit="22.9256"/>
<path id="Vector_128" fill-rule="evenodd" clip-rule="evenodd" d="M53.5089 149.58V144.833H43.0524V147.941H37.7453H35.699H35.4484V144.833H35.4033L35.3926 149.58H35.6996H37.7411H53.5089Z" fill="#66768B" stroke="#66768B" stroke-width="0.226072" stroke-miterlimit="22.9256"/>
<path id="Vector_129" fill-rule="evenodd" clip-rule="evenodd" d="M53.5089 149.58V144.833H43.0524V147.941H37.7453H35.699H35.4484V144.833H35.4033L35.3926 149.58H35.6996H37.7411H53.5089Z" fill="#66768B" stroke="#66768B" stroke-width="0.226072" stroke-miterlimit="22.9256"/>
<path id="Vector_130" fill-rule="evenodd" clip-rule="evenodd" d="M39.1267 39.4619H42.8414V36.2211V35.4431V32.5469H35.6582L35.6606 39.4619H38.0178H39.1267Z" fill="#66768B" stroke="#66768B" stroke-width="0.226072" stroke-miterlimit="22.9256"/>
<path id="Vector_131" fill-rule="evenodd" clip-rule="evenodd" d="M43.6482 36.2211H73.8157L74.2742 36.2209L76.3103 36.2211H76.5509H77.2646H91.256H91.9694H93.2543V35.4431V32.5469H42.8418V35.4431V36.2211H43.6482Z" fill="#66768B" stroke="#66768B" stroke-width="0.226072" stroke-miterlimit="22.9256"/>
<path id="Vector_132" fill-rule="evenodd" clip-rule="evenodd" d="M74.2744 67.5049H63.3008V69.5409H78.9017V67.5049H76.3103V36.2209H74.2744V67.5049Z" fill="#66768B" stroke="#66768B" stroke-width="0.226072" stroke-miterlimit="22.9256"/>
<path id="Vector_133" fill-rule="evenodd" clip-rule="evenodd" d="M50.3244 69.5407V67.5049H39.127V69.5407H50.3244Z" fill="#66768B" stroke="#66768B" stroke-width="0.226072" stroke-miterlimit="22.9256"/>
<path id="Vector_134" fill-rule="evenodd" clip-rule="evenodd" d="M93.2539 36.2211V39.4619H100.437V36.0699V32.5469H93.2539V35.4431V36.2211Z" fill="#66768B" stroke="#66768B" stroke-width="0.226072" stroke-miterlimit="22.9256"/>
<path id="Vector_135" fill-rule="evenodd" clip-rule="evenodd" d="M100.438 32.5469V36.0699C100.833 36.0699 101.229 36.0699 101.624 36.0699V34.5825V32.5469H100.438Z" fill="#66768B" stroke="#66768B" stroke-width="0.226072" stroke-miterlimit="22.9256"/>
<path id="Vector_136" fill-rule="evenodd" clip-rule="evenodd" d="M118.119 32.5469V34.5825V36.0699H120.507H122.542H127.463H132.197H154.029V32.5469H153.576H118.119Z" fill="#66768B" stroke="#66768B" stroke-width="0.226072" stroke-miterlimit="22.9256"/>
<path id="Vector_137" fill-rule="evenodd" clip-rule="evenodd" d="M120.506 36.0698V41.8297H122.542V36.0698H120.506Z" fill="#66768B" stroke="#66768B" stroke-width="0.226072" stroke-miterlimit="22.9256"/>
<path id="Vector_138" fill-rule="evenodd" clip-rule="evenodd" d="M122.542 55.1479H120.506V67.505H122.542V55.1479Z" fill="#66768B" stroke="#66768B" stroke-width="0.226072" stroke-miterlimit="22.9256"/>
<path id="Vector_139" fill-rule="evenodd" clip-rule="evenodd" d="M154.029 36.0699V39.4619H154.353H155.245H157.986H161.212V32.5469H154.029V36.0699Z" fill="#66768B" stroke="#66768B" stroke-width="0.226072" stroke-miterlimit="22.9256"/>
<path id="Vector_140" fill-rule="evenodd" clip-rule="evenodd" d="M154.354 39.4617V47.2627C154.651 47.2627 154.948 47.2627 155.245 47.2627H157.987V39.4617H155.245H154.354Z" fill="#66768B" stroke="#66768B" stroke-width="0.226072" stroke-miterlimit="22.9256"/>
<path id="Vector_141" fill-rule="evenodd" clip-rule="evenodd" d="M160.193 55.1909V57.7589H161.436V55.1909H160.193Z" fill="#66768B" stroke="#66768B" stroke-width="0.226072" stroke-miterlimit="22.9256"/>
<path id="Vector_142" fill-rule="evenodd" clip-rule="evenodd" d="M154.354 72.6694H148.104V74.7053H154.354V72.6694Z" fill="#66768B" stroke="#66768B" stroke-width="0.226072" stroke-miterlimit="22.9256"/>
<path id="Vector_143" fill-rule="evenodd" clip-rule="evenodd" d="M131.678 68.669V67.5049H128.926V68.669H131.678Z" fill="#66768B" stroke="#66768B" stroke-width="0.226072" stroke-miterlimit="22.9256"/>
<path id="Vector_144" fill-rule="evenodd" clip-rule="evenodd" d="M135.194 73.5413H132.441V74.7054H135.194V73.5413Z" fill="#66768B" stroke="#66768B" stroke-width="0.226072" stroke-miterlimit="22.9256"/>
<path id="Vector_145" fill-rule="evenodd" clip-rule="evenodd" d="M120.507 69.5407V67.5049H116.141V69.5407H120.507Z" fill="#66768B" stroke="#66768B" stroke-width="0.226072" stroke-miterlimit="22.9256"/>
<path id="Vector_146" fill-rule="evenodd" clip-rule="evenodd" d="M101.411 69.5407V67.5049C98.7241 67.5049 96.0367 67.5049 93.3496 67.5049V69.5407H96.0038V144.623H98.0397V144.57V69.5407H101.411Z" fill="#66768B" stroke="#66768B" stroke-width="0.226072" stroke-miterlimit="22.9256"/>
<path id="Vector_147" fill-rule="evenodd" clip-rule="evenodd" d="M154.354 74.7053V144.458H155.245H157.987V74.7053H155.245H154.354Z" fill="#66768B" stroke="#66768B" stroke-width="0.226072" stroke-miterlimit="22.9256"/>
<path id="Vector_148" fill-rule="evenodd" clip-rule="evenodd" d="M154.352 144.57H134.074V146.715V147.997V148.957H154.352V144.57Z" fill="#66768B" stroke="#66768B" stroke-width="0.226072" stroke-miterlimit="22.9256"/>
<path id="Vector_149" fill-rule="evenodd" clip-rule="evenodd" d="M154.354 148.957V170.43V170.641H155.033V170.43H155.245H155.453H156.574H156.592H156.995H158.115H158.378V149.168H158.167V144.458H157.987H155.245H154.354V144.57V148.957Z" fill="#66768B" stroke="#66768B" stroke-width="0.226072" stroke-miterlimit="22.9256"/>
<path id="Vector_150" fill-rule="evenodd" clip-rule="evenodd" d="M108.945 170.851H98.9902V172.236H108.945V170.851Z" fill="#66768B" stroke="#66768B" stroke-width="0.226072" stroke-miterlimit="22.9256"/>
<path id="Vector_151" fill-rule="evenodd" clip-rule="evenodd" d="M108.084 167.187V170.43H108.945H109.155V167.187H108.084Z" fill="#66768B" stroke="#66768B" stroke-width="0.226072" stroke-miterlimit="22.9256"/>
<path id="Vector_152" fill-rule="evenodd" clip-rule="evenodd" d="M98.0399 169.084C98.0399 160.93 98.0399 152.776 98.0399 144.623H96.004H94.0156V168.514C94.0156 168.704 94.0156 168.894 94.0156 169.084H98.0399Z" fill="#66768B" stroke="#66768B" stroke-width="0.226072" stroke-miterlimit="22.9256"/>
<path id="Vector_153" fill-rule="evenodd" clip-rule="evenodd" d="M92.5278 170.851V150.001H83.7637V151.802H90.5166V172.236H98.569V170.851H92.5278Z" fill="#66768B" stroke="#66768B" stroke-width="0.226072" stroke-miterlimit="22.9256"/>
<path id="Vector_154" fill-rule="evenodd" clip-rule="evenodd" d="M53.5089 144.833H43.0524V147.941H37.7453H35.699H35.4484V144.833H35.4033L35.3926 149.58H35.6996H37.7411H53.5089V144.833Z" fill="#66768B" stroke="#66768B" stroke-width="0.226072" stroke-miterlimit="22.9256"/>
<path id="Vector_155" fill-rule="evenodd" clip-rule="evenodd" d="M42.8414 144.413V140.815H39.1267H37.7625H35.696H35.6582V144.413V144.623V147.73H35.6983H37.7451H42.8414V144.623V144.413Z" fill="#66768B" stroke="#66768B" stroke-width="0.226072" stroke-miterlimit="22.9256"/>
<path id="Vector_156" fill-rule="evenodd" clip-rule="evenodd" d="M39.1267 140.815V69.5407V67.505V39.4617H38.0178H35.6606H35.6582V140.815H35.696H37.7625H39.1267Z" fill="#66768B" stroke="#66768B" stroke-width="0.226072" stroke-miterlimit="22.9256"/>
<path id="Vector_157" fill-rule="evenodd" clip-rule="evenodd" d="M53.5089 144.833H43.0524V147.941H37.7453H35.699H35.4484V144.833H35.4033L35.3926 149.58H35.6996H37.7411H53.5089V144.833Z" fill="#66768B" stroke="#66768B" stroke-width="0.226072" stroke-miterlimit="22.9256"/>
<path id="Vector_158" fill-rule="evenodd" clip-rule="evenodd" d="M53.5448 150.001H37.7396H35.6994H35.3913L35.3867 151.802H35.6999H37.7352H53.5448V150.001Z" fill="#66768B" stroke="#66768B" stroke-width="0.226072" stroke-miterlimit="22.9256"/>
<path id="Vector_159" fill-rule="evenodd" clip-rule="evenodd" d="M83.7637 150.001V151.802H90.5166V172.236H98.569V170.851H92.5278V150.001H83.7637Z" fill="#66768B" stroke="#66768B" stroke-width="0.226072" stroke-miterlimit="22.9256"/>
<path id="Vector_160" fill-rule="evenodd" clip-rule="evenodd" d="M83.5898 149.791H92.7387V170.641C94.6822 170.641 96.6258 170.641 98.5693 170.641C98.6396 170.641 98.7096 170.641 98.7798 170.641C98.85 170.641 98.9201 170.641 98.9903 170.641C99.0988 170.641 99.2076 170.641 99.3161 170.641V170.43V148.957H108.084H109.156H109.343V147.997V146.715V144.57H98.0394L98.0396 144.623L98.0394 169.084H94.0152V168.515C94.0119 160.495 93.9411 152.518 93.9411 144.57H83.5898V146.831V148.113V149.58V149.791Z" fill="#66768B" stroke="#66768B" stroke-width="0.226072" stroke-miterlimit="22.9256"/>
<path id="Vector_161" fill-rule="evenodd" clip-rule="evenodd" d="M94.0156 144.623V168.514C94.0156 168.704 94.0156 168.894 94.0156 169.084H98.0399C98.0399 160.93 98.0399 152.776 98.0399 144.623H96.004H94.0156Z" fill="#66768B" stroke="#66768B" stroke-width="0.226072" stroke-miterlimit="22.9256"/>
<path id="Vector_162" fill-rule="evenodd" clip-rule="evenodd" d="M96.0038 69.5407V144.623H98.0397V144.57V69.5407H101.411V67.5049C98.7241 67.5049 96.0367 67.5049 93.3496 67.5049V69.5407H96.0038Z" fill="#66768B" stroke="#66768B" stroke-width="0.226072" stroke-miterlimit="22.9256"/>
<path id="Vector_163" fill-rule="evenodd" clip-rule="evenodd" d="M108.945 170.851H98.9902V172.236H108.945V170.851Z" fill="#66768B" stroke="#66768B" stroke-width="0.226072" stroke-miterlimit="22.9256"/>
<path id="Vector_164" fill-rule="evenodd" clip-rule="evenodd" d="M134.074 147.997V148.957H154.352V144.57H134.074V146.715V147.997Z" fill="#66768B" stroke="#66768B" stroke-width="0.226072" stroke-miterlimit="22.9256"/>
<path id="Vector_165" fill-rule="evenodd" clip-rule="evenodd" d="M154.354 148.957V170.43V170.641H155.033V170.43H155.245H155.453H156.574H156.592H156.995H158.115H158.378V149.168H158.167V144.458H157.987H155.245H154.354V144.57V148.957Z" fill="#66768B" stroke="#66768B" stroke-width="0.226072" stroke-miterlimit="22.9256"/>
<path id="Vector_166" fill-rule="evenodd" clip-rule="evenodd" d="M157.987 74.7053C157.073 74.7053 156.159 74.7053 155.245 74.7053H157.987ZM155.245 144.458H157.987V74.7053H155.245H154.354V144.458H155.245Z" fill="#66768B"/>
<path id="Vector_167" d="M157.987 74.7053C157.073 74.7053 156.159 74.7053 155.245 74.7053M157.987 74.7053H155.245M157.987 74.7053V144.458H155.245H154.354V74.7053H155.245" stroke="#66768B" stroke-width="0.226072" stroke-miterlimit="22.9256"/>
<path id="Vector_168" fill-rule="evenodd" clip-rule="evenodd" d="M148.104 74.7053H154.354V72.6694H148.104V74.7053Z" fill="#66768B" stroke="#66768B" stroke-width="0.226072" stroke-miterlimit="22.9256"/>
<path id="Vector_169" fill-rule="evenodd" clip-rule="evenodd" d="M135.194 74.7054V73.5413H132.441V74.7054H135.194Z" fill="#66768B" stroke="#66768B" stroke-width="0.226072" stroke-miterlimit="22.9256"/>
<path id="Vector_170" fill-rule="evenodd" clip-rule="evenodd" d="M128.926 68.669H131.678V67.5049H128.926V68.669Z" fill="#66768B" stroke="#66768B" stroke-width="0.226072" stroke-miterlimit="22.9256"/>
<path id="Vector_171" fill-rule="evenodd" clip-rule="evenodd" d="M122.542 67.505V55.1479H120.506V67.505H122.542Z" fill="#66768B" stroke="#66768B" stroke-width="0.226072" stroke-miterlimit="22.9256"/>
<path id="Vector_172" fill-rule="evenodd" clip-rule="evenodd" d="M120.507 67.5049H116.141V69.5407H120.507V67.5049Z" fill="#66768B" stroke="#66768B" stroke-width="0.226072" stroke-miterlimit="22.9256"/>
<path id="Vector_173" fill-rule="evenodd" clip-rule="evenodd" d="M120.506 36.0698V41.8297H122.542V36.0698H120.506Z" fill="#66768B" stroke="#66768B" stroke-width="0.226072" stroke-miterlimit="22.9256"/>
<path id="Vector_174" fill-rule="evenodd" clip-rule="evenodd" d="M154.354 39.4617V47.2627C154.651 47.2627 154.948 47.2627 155.245 47.2627C156.159 47.2627 157.073 47.2627 157.987 47.2627V39.4617H155.245H154.354Z" fill="#66768B" stroke="#66768B" stroke-width="0.226072" stroke-miterlimit="22.9256"/>
<path id="Vector_175" fill-rule="evenodd" clip-rule="evenodd" d="M160.193 55.1909V57.7589H161.436V55.1909H160.193Z" fill="white" stroke="#66768B" stroke-width="0.226072" stroke-miterlimit="22.9256"/>
<path id="Vector_176" fill-rule="evenodd" clip-rule="evenodd" d="M155.245 47.2627C156.159 47.2627 157.073 47.2627 157.987 47.2627V39.4617H155.245H154.354V47.2627H155.245Z" fill="#66768B" stroke="#66768B" stroke-width="0.0861333" stroke-miterlimit="22.9256"/>
<path id="Vector_177" fill-rule="evenodd" clip-rule="evenodd" d="M155.245 39.4619H157.986H161.212V32.5469H154.029V36.0699V39.4619H154.353H155.245Z" fill="#66768B" stroke="#66768B" stroke-width="0.226072" stroke-miterlimit="22.9256"/>
<path id="Vector_178" fill-rule="evenodd" clip-rule="evenodd" d="M132.197 36.0699H154.029V32.5469H153.576H118.119V34.5825V36.0699H120.507H122.542H127.463H132.197Z" fill="#66768B" stroke="#66768B" stroke-width="0.226072" stroke-miterlimit="22.9256"/>
<path id="Vector_179" fill-rule="evenodd" clip-rule="evenodd" d="M122.542 41.8297V36.0698H120.506V41.8297H122.542Z" fill="#66768B" stroke="#66768B" stroke-width="0.226072" stroke-miterlimit="22.9256"/>
<path id="Vector_180" fill-rule="evenodd" clip-rule="evenodd" d="M120.507 67.5049H116.141V69.5407H120.507V67.5049Z" fill="#66768B" stroke="#66768B" stroke-width="0.226072" stroke-miterlimit="22.9256"/>
<path id="Vector_181" fill-rule="evenodd" clip-rule="evenodd" d="M42.8414 39.4619V36.2211V35.4431V32.5469H35.6582L35.6606 39.4619H38.0178H39.1267H42.8414Z" fill="#66768B" stroke="#66768B" stroke-width="0.226072" stroke-miterlimit="22.9256"/>
<path id="Vector_182" fill-rule="evenodd" clip-rule="evenodd" d="M43.6482 36.2211H73.8157L74.2742 36.2209L76.3103 36.2211H76.5509H77.2646H91.256H91.9694H93.2543V35.4431V32.5469H42.8418V35.4431V36.2211H43.6482Z" fill="#66768B" stroke="#66768B" stroke-width="0.226072" stroke-miterlimit="22.9256"/>
<path id="Vector_183" fill-rule="evenodd" clip-rule="evenodd" d="M74.2744 36.2209V67.5049H63.3008V69.5409H78.9017V67.5049H76.3103V36.2209H74.2744Z" fill="#66768B" stroke="#66768B" stroke-width="0.226072" stroke-miterlimit="22.9256"/>
<path id="Vector_184" fill-rule="evenodd" clip-rule="evenodd" d="M93.2539 36.2211V39.4619H100.437V36.0699V32.5469H93.2539V35.4431V36.2211Z" fill="#66768B" stroke="#66768B" stroke-width="0.226072" stroke-miterlimit="22.9256"/>
<path id="Vector_185" fill-rule="evenodd" clip-rule="evenodd" d="M100.438 32.5469V36.0699C100.833 36.0699 101.229 36.0699 101.624 36.0699V34.5825V32.5469H100.438Z" fill="#66768B" stroke="#66768B" stroke-width="0.226072" stroke-miterlimit="22.9256"/>
<path id="Vector_186" fill-rule="evenodd" clip-rule="evenodd" d="M50.3244 67.5049H39.127V69.5407H50.3244V67.5049Z" fill="#66768B" stroke="#66768B" stroke-width="0.226072" stroke-miterlimit="22.9256"/>
<path id="Vector_187" fill-rule="evenodd" clip-rule="evenodd" d="M53.9295 144.413H42.8417V144.623V147.73H37.7454H35.6986H35.6585V144.623V144.413H35.4112H35.404H35.3867V144.458V144.623V144.833H35.403H35.448V147.941H35.6986H37.7449H43.052V144.833H53.5085V149.58H53.719H53.7553V148.113V146.831V144.569H53.9295V144.413Z" fill="#66768B" stroke="#66768B" stroke-width="0.226072" stroke-miterlimit="22.9256"/>
<path id="Vector_188" fill-rule="evenodd" clip-rule="evenodd" d="M53.9295 144.413H42.8417V144.623V147.73H37.7454H35.6986H35.6585V144.623V144.413H35.4112H35.404H35.3867V144.458V144.623V144.833H35.403H35.448V147.941H35.6986H37.7449H43.052V144.833H53.5085V149.58H53.719H53.7553V148.113V146.831V144.569H53.9295V144.413Z" fill="#66768B" stroke="#66768B" stroke-width="0.226072" stroke-miterlimit="22.9256"/>
<path id="Vector_189" d="M55.0522 48.3673V48.6949H53.9359V50.9721H53.5898V48.3673H55.0522ZM56.5323 49.1115H56.856V50.9721H56.5323V50.6522C56.371 50.8977 56.1366 51.0206 55.8289 51.0206C55.5684 51.0206 55.3464 50.9263 55.1629 50.7377C54.9792 50.5467 54.8875 50.3147 54.8875 50.0418C54.8875 49.7689 54.9792 49.5384 55.1629 49.3498C55.3464 49.1588 55.5684 49.0632 55.8289 49.0632C56.1366 49.0632 56.371 49.186 56.5323 49.4317V49.1115ZM55.8699 50.708C56.0584 50.708 56.216 50.6447 56.3424 50.5183C56.469 50.3891 56.5323 50.2304 56.5323 50.0418C56.5323 49.8534 56.469 49.6958 56.3424 49.5694C56.216 49.4402 56.0584 49.3759 55.8699 49.3759C55.6839 49.3759 55.5276 49.4402 55.401 49.5694C55.2746 49.6958 55.2113 49.8534 55.2113 50.0418C55.2113 50.2304 55.2746 50.3891 55.401 50.5183C55.5276 50.6447 55.6839 50.708 55.8699 50.708ZM58.3735 49.0632C58.634 49.0632 58.8559 49.1588 59.0396 49.3498C59.2231 49.5384 59.3149 49.7689 59.3149 50.0418C59.3149 50.3147 59.2231 50.5467 59.0396 50.7377C58.8559 50.9263 58.634 51.0206 58.3735 51.0206C58.0659 51.0206 57.8314 50.8977 57.6701 50.6522V51.7163H57.3465V49.1115H57.6701V49.4317C57.8314 49.186 58.0659 49.0632 58.3735 49.0632ZM58.3326 50.708C58.5187 50.708 58.6748 50.6447 58.8014 50.5183C58.928 50.3891 58.9911 50.2304 58.9911 50.0418C58.9911 49.8534 58.928 49.6958 58.8014 49.5694C58.6748 49.4402 58.5187 49.3759 58.3326 49.3759C58.144 49.3759 57.9864 49.4402 57.86 49.5694C57.7334 49.6958 57.6701 49.8534 57.6701 50.0418C57.6701 50.2304 57.7334 50.3891 57.86 50.5183C57.9864 50.6447 58.144 50.708 58.3326 50.708ZM61.2287 50.6633H61.4853V51.4708H61.1654V50.9721H59.77V51.4708H59.4499V50.6633H59.677C59.7961 50.4997 59.8555 50.2702 59.8555 49.9749V49.1115H61.2287V50.6633ZM60.0452 50.6633H60.9086V49.4131H60.1755V49.9749C60.1755 50.2527 60.1321 50.4822 60.0452 50.6633ZM61.9886 50.1907C62.0209 50.357 62.0966 50.486 62.2157 50.5777C62.3372 50.6695 62.486 50.7155 62.6622 50.7155C62.9078 50.7155 63.0863 50.6248 63.198 50.4439L63.4734 50.6C63.2923 50.8804 63.0194 51.0206 62.6548 51.0206C62.3594 51.0206 62.1188 50.9287 61.9328 50.7452C61.7493 50.5591 61.6575 50.3247 61.6575 50.0418C61.6575 49.7617 61.748 49.5284 61.9291 49.3423C62.1103 49.1562 62.3447 49.0632 62.6323 49.0632C62.9052 49.0632 63.1274 49.1601 63.2985 49.3534C63.4721 49.5446 63.559 49.7751 63.559 50.0457C63.559 50.0927 63.5553 50.1411 63.5478 50.1907H61.9886ZM62.6323 49.3684C62.4587 49.3684 62.3149 49.418 62.2007 49.5172C62.0866 49.6139 62.016 49.7441 61.9886 49.9079H63.2315C63.2042 49.7317 63.1347 49.5978 63.023 49.5061C62.9114 49.4143 62.7812 49.3684 62.6323 49.3684ZM64.9582 49.0632C65.2187 49.0632 65.4407 49.1588 65.6242 49.3498C65.8079 49.5384 65.8996 49.7689 65.8996 50.0418C65.8996 50.3147 65.8079 50.5467 65.6242 50.7377C65.4407 50.9263 65.2187 51.0206 64.9582 51.0206C64.6505 51.0206 64.4161 50.8977 64.2548 50.6522V51.7163H63.9311V49.1115H64.2548V49.4317C64.4161 49.186 64.6505 49.0632 64.9582 49.0632ZM64.9172 50.708C65.1032 50.708 65.2595 50.6447 65.3861 50.5183C65.5125 50.3891 65.5758 50.2304 65.5758 50.0418C65.5758 49.8534 65.5125 49.6958 65.3861 49.5694C65.2595 49.4402 65.1032 49.3759 64.9172 49.3759C64.7287 49.3759 64.5711 49.4402 64.4445 49.5694C64.3181 49.6958 64.2548 49.8534 64.2548 50.0418C64.2548 50.2304 64.3181 50.3891 64.4445 50.5183C64.5711 50.6447 64.7287 50.708 64.9172 50.708ZM67.8561 50.7377C67.6651 50.9263 67.4331 51.0206 67.1602 51.0206C66.8873 51.0206 66.6555 50.9263 66.4645 50.7377C66.2759 50.5493 66.1816 50.3173 66.1816 50.0418C66.1816 49.7666 66.2759 49.5346 66.4645 49.3461C66.6555 49.1575 66.8873 49.0632 67.1602 49.0632C67.4331 49.0632 67.6651 49.1575 67.8561 49.3461C68.0471 49.5346 68.1427 49.7666 68.1427 50.0418C68.1427 50.3173 68.0471 50.5493 67.8561 50.7377ZM67.1602 50.7043C67.3463 50.7043 67.5026 50.641 67.6292 50.5144C67.7556 50.388 67.8189 50.2304 67.8189 50.0418C67.8189 49.8534 67.7556 49.6958 67.6292 49.5694C67.5026 49.4428 67.3463 49.3795 67.1602 49.3795C66.9767 49.3795 66.8217 49.4428 66.6951 49.5694C66.5687 49.6958 66.5054 49.8534 66.5054 50.0418C66.5054 50.2304 66.5687 50.388 66.6951 50.5144C66.8217 50.641 66.9767 50.7043 67.1602 50.7043ZM69.369 51.0206C69.0937 51.0206 68.8666 50.93 68.6881 50.7488C68.5095 50.5679 68.4201 50.3346 68.4201 50.0493C68.4201 49.7317 68.4661 49.4875 68.5578 49.3162C68.6521 49.1451 68.8431 48.9901 69.131 48.8511C69.1829 48.8263 69.2537 48.7942 69.3429 48.7544C69.4348 48.7146 69.5018 48.6849 69.5439 48.665C69.5861 48.6428 69.6333 48.6143 69.6853 48.5795C69.7375 48.5423 69.7759 48.5027 69.8008 48.4604C69.8279 48.4158 69.8478 48.365 69.8602 48.3079L70.1207 48.4567C70.1132 48.4965 70.1034 48.5337 70.091 48.5683C70.0786 48.6006 70.06 48.6329 70.0351 48.665C70.0127 48.6949 69.993 48.7208 69.9755 48.7433C69.9582 48.7655 69.9284 48.7903 69.8863 48.8177C69.8465 48.8425 69.8168 48.8611 69.7969 48.8735C69.7796 48.8859 69.7437 48.9045 69.6891 48.9293C69.637 48.9541 69.601 48.9715 69.5811 48.9813C69.5638 48.9888 69.5228 49.0061 69.4584 49.0335C69.3938 49.0583 69.3542 49.0743 69.3393 49.0818C69.1705 49.1539 69.0465 49.227 68.9672 49.3014C68.8902 49.3759 68.8344 49.4702 68.7997 49.5842C68.879 49.4849 68.9783 49.4118 69.0974 49.3647C69.2165 49.3175 69.3356 49.294 69.4545 49.294C69.6878 49.294 69.885 49.3733 70.0463 49.5322C70.2101 49.6909 70.2918 49.8955 70.2918 50.1462C70.2918 50.3992 70.205 50.6087 70.0313 50.7749C69.8577 50.9387 69.637 51.0206 69.369 51.0206ZM68.9336 50.5442C69.0503 50.6534 69.1953 50.708 69.369 50.708C69.5426 50.708 69.6853 50.6547 69.7969 50.548C69.9111 50.4413 69.9682 50.3074 69.9682 50.1462C69.9682 49.9798 69.9135 49.8446 69.8044 49.7405C69.6977 49.6338 69.5563 49.5805 69.3801 49.5805C69.2214 49.5805 69.0775 49.6314 68.9485 49.733C68.822 49.8322 68.7588 49.9638 68.7588 50.1276C68.7588 50.2961 68.817 50.4351 68.9336 50.5442Z" fill="#8E9297"/>
<path id="Vector_190" d="M54.4877 54.5062C54.6861 54.5434 54.8486 54.6289 54.9752 54.763C55.1016 54.8969 55.1649 55.0669 55.1649 55.2727C55.1649 55.5258 55.0781 55.7254 54.9045 55.8719C54.7308 56.0182 54.5199 56.0913 54.2719 56.0913C54.0734 56.0913 53.8972 56.0468 53.7434 55.9574C53.5897 55.8657 53.4806 55.7342 53.416 55.5631L53.7062 55.3918C53.7832 55.6324 53.9716 55.7528 54.2719 55.7528C54.4331 55.7528 54.5646 55.7106 54.6662 55.6262C54.768 55.5419 54.8189 55.4241 54.8189 55.2727C54.8189 55.1214 54.768 55.0036 54.6662 54.9192C54.5646 54.8323 54.4331 54.7889 54.2719 54.7889H54.1825L54.045 54.577L54.6476 53.762H53.4904V53.4382H55.0533V53.7434L54.4877 54.5062ZM55.9599 55.6597L55.718 56.5639H55.4389L55.5878 55.6597H55.9599ZM57.6898 54.6959C57.8164 54.7605 57.9156 54.8473 57.9875 54.9564C58.0596 55.0656 58.0955 55.1897 58.0955 55.3285C58.0955 55.5667 58.0123 55.754 57.8461 55.8905C57.68 56.0244 57.4655 56.0913 57.2024 56.0913C56.942 56.0913 56.7285 56.0244 56.5624 55.8905C56.3962 55.754 56.313 55.5667 56.313 55.3285C56.313 55.1897 56.3491 55.0656 56.421 54.9564C56.4929 54.8473 56.5921 54.7605 56.7187 54.6959C56.5053 54.562 56.3987 54.3723 56.3987 54.1266C56.3987 53.8909 56.4768 53.7098 56.6331 53.5834C56.7918 53.4544 56.9817 53.3899 57.2024 53.3899C57.4257 53.3899 57.6154 53.4544 57.7717 53.5834C57.9306 53.7098 58.0099 53.8909 58.0099 54.1266C58.0099 54.3723 57.9032 54.562 57.6898 54.6959ZM57.2024 53.7211C57.0709 53.7211 56.9606 53.7558 56.8712 53.8253C56.7843 53.8948 56.7409 53.9976 56.7409 54.1341C56.7409 54.2656 56.7856 54.3685 56.875 54.4429C56.9642 54.5149 57.0735 54.5509 57.2024 54.5509C57.3314 54.5509 57.4406 54.5149 57.5298 54.4429C57.6192 54.3685 57.6639 54.2656 57.6639 54.1341C57.6639 53.9976 57.6205 53.8948 57.5337 53.8253C57.4469 53.7558 57.3363 53.7211 57.2024 53.7211ZM57.2024 55.7602C57.3686 55.7602 57.5014 55.7218 57.6006 55.6448C57.7022 55.5654 57.7531 55.4525 57.7531 55.3062C57.7531 55.1623 57.7022 55.0519 57.6006 54.975C57.5014 54.8956 57.3686 54.856 57.2024 54.856C57.0386 54.856 56.906 54.8956 56.8042 54.975C56.705 55.0519 56.6554 55.1623 56.6554 55.3062C56.6554 55.4525 56.705 55.5654 56.8042 55.6448C56.906 55.7218 57.0386 55.7602 57.2024 55.7602ZM61.2721 54.1824V56.043H60.9558V54.6922L60.3643 55.6448H60.3232L59.7317 54.6922V56.043H59.4116V54.1824H59.7576L60.3418 55.1238L60.9261 54.1824H61.2721ZM62.6595 54.4951H61.6101V54.294L62.038 53.8772C62.1396 53.7806 62.2153 53.7025 62.265 53.6429C62.3171 53.5808 62.3518 53.5263 62.3691 53.4792C62.389 53.4296 62.399 53.3775 62.399 53.3229C62.399 53.2436 62.3753 53.1839 62.3283 53.1443C62.2836 53.1046 62.2241 53.0847 62.1497 53.0847C62.0753 53.0847 62.007 53.0996 61.945 53.1294C61.8854 53.1567 61.8234 53.195 61.759 53.2447L61.6287 53.0736C61.7006 53.0115 61.7788 52.9619 61.8631 52.9247C61.9499 52.8875 62.0466 52.8689 62.1533 52.8689C62.3122 52.8689 62.4362 52.9087 62.5254 52.988C62.6172 53.0648 62.6632 53.1715 62.6632 53.308C62.6632 53.3899 62.6458 53.4656 62.611 53.535C62.5789 53.602 62.5304 53.6715 62.466 53.7434C62.404 53.8129 62.327 53.8909 62.2352 53.9778L61.9339 54.2643H62.6595V54.4951Z" fill="#090907"/>
<path id="Vector_191" d="M91.9725 50.1775V52.7823H91.6263V50.5049H90.4282V52.7823H90.082V50.1775H91.9725ZM93.525 50.8734C93.7854 50.8734 94.0074 50.9688 94.1909 51.1598C94.3746 51.3484 94.4664 51.5791 94.4664 51.852C94.4664 52.1249 94.3746 52.3567 94.1909 52.5479C94.0074 52.7363 93.7854 52.8306 93.525 52.8306C93.2173 52.8306 92.9829 52.7078 92.8216 52.4621V53.5265H92.4978V50.9217H92.8216V51.2417C92.9829 50.9961 93.2173 50.8734 93.525 50.8734ZM93.4839 52.518C93.67 52.518 93.8263 52.4548 93.9529 52.3283C94.0793 52.1993 94.1426 52.0404 94.1426 51.852C94.1426 51.6634 94.0793 51.506 93.9529 51.3794C93.8263 51.2504 93.67 51.1858 93.4839 51.1858C93.2955 51.1858 93.1379 51.2504 93.0113 51.3794C92.8849 51.506 92.8216 51.6634 92.8216 51.852C92.8216 52.0404 92.8849 52.1993 93.0113 52.3283C93.1379 52.4548 93.2955 52.518 93.4839 52.518ZM96.2034 50.9217H96.4639V52.7823H96.1438V51.476L95.1132 52.7823H94.8527V50.9217H95.1727V52.2277L96.2034 50.9217ZM98.5716 52.7823H98.192L97.6711 52.0789L97.1465 52.7823H96.7669L97.4814 51.8259L96.8078 50.9217H97.1912L97.6711 51.5691L98.1512 50.9217H98.5308L97.861 51.8223L98.5716 52.7823ZM100.311 52.5479C100.12 52.7363 99.8883 52.8306 99.6154 52.8306C99.3425 52.8306 99.1105 52.7363 98.9195 52.5479C98.7311 52.3593 98.6368 52.1272 98.6368 51.852C98.6368 51.5766 98.7311 51.3447 98.9195 51.1561C99.1105 50.9675 99.3425 50.8734 99.6154 50.8734C99.8883 50.8734 100.12 50.9675 100.311 51.1561C100.502 51.3447 100.598 51.5766 100.598 51.852C100.598 52.1272 100.502 52.3593 100.311 52.5479ZM99.6154 52.5143C99.8014 52.5143 99.9577 52.451 100.084 52.3246C100.211 52.198 100.274 52.0404 100.274 51.852C100.274 51.6634 100.211 51.506 100.084 51.3794C99.9577 51.2528 99.8014 51.1897 99.6154 51.1897C99.4319 51.1897 99.2768 51.2528 99.1502 51.3794C99.0236 51.506 98.9605 51.6634 98.9605 51.852C98.9605 52.0404 99.0236 52.198 99.1502 52.3246C99.2768 52.451 99.4319 52.5143 99.6154 52.5143ZM103.119 52.7823H102.739L102.043 51.9003V52.7823H101.723V51.9003L101.028 52.7823H100.652L101.429 51.8223L100.689 50.9217H101.065L101.723 51.744V50.9217H102.043V51.744L102.702 50.9217H103.082L102.337 51.8223L103.119 52.7823ZM104.82 50.9217H105.144V52.7823H104.82V52.4621C104.659 52.7078 104.425 52.8306 104.117 52.8306C103.856 52.8306 103.634 52.7363 103.451 52.5479C103.267 52.3567 103.175 52.1249 103.175 51.852C103.175 51.5791 103.267 51.3484 103.451 51.1598C103.634 50.9688 103.856 50.8734 104.117 50.8734C104.425 50.8734 104.659 50.9961 104.82 51.2417V50.9217ZM104.158 52.518C104.346 52.518 104.504 52.4548 104.63 52.3283C104.757 52.1993 104.82 52.0404 104.82 51.852C104.82 51.6634 104.757 51.506 104.63 51.3794C104.504 51.2504 104.346 51.1858 104.158 51.1858C103.972 51.1858 103.815 51.2504 103.689 51.3794C103.562 51.506 103.499 51.6634 103.499 51.852C103.499 52.0404 103.562 52.1993 103.689 52.3283C103.815 52.4548 103.972 52.518 104.158 52.518ZM107.026 50.9217V52.7823H106.706V52.1125H106.434L105.914 52.7823H105.519L106.062 52.0939C105.923 52.059 105.81 51.9897 105.724 51.8854C105.637 51.7812 105.593 51.6597 105.593 51.5207C105.593 51.3496 105.654 51.207 105.776 51.0928C105.897 50.9788 106.05 50.9217 106.233 50.9217H107.026ZM106.245 51.8223H106.706V51.223H106.245C106.153 51.223 106.075 51.2504 106.01 51.305C105.946 51.3595 105.914 51.4326 105.914 51.5246C105.914 51.6138 105.946 51.6858 106.01 51.7404C106.075 51.7949 106.153 51.8223 106.245 51.8223Z" fill="#8E9297"/>
<path id="Vector_192" d="M91.8834 57.0343V57.3579H91.5671V57.853H91.221V57.3579H89.8926V57.0343L90.8265 55.2482H91.1986L90.2647 57.0343H91.221V56.2974H91.5671V57.0343H91.8834ZM92.6911 57.4695L92.4492 58.3739H92.1701L92.319 57.4695H92.6911ZM94.4212 56.5059C94.5478 56.5703 94.647 56.6571 94.7189 56.7664C94.7908 56.8754 94.8269 56.9995 94.8269 57.1385C94.8269 57.3765 94.7437 57.5638 94.5775 57.7003C94.4114 57.8344 94.1967 57.9013 93.9338 57.9013C93.6733 57.9013 93.4599 57.8344 93.2937 57.7003C93.1276 57.5638 93.0444 57.3765 93.0444 57.1385C93.0444 56.9995 93.0803 56.8754 93.1524 56.7664C93.2242 56.6571 93.3235 56.5703 93.4501 56.5059C93.2367 56.3718 93.1299 56.1821 93.1299 55.9366C93.1299 55.7009 93.2082 55.5198 93.3643 55.3932C93.5232 55.2642 93.7129 55.1997 93.9338 55.1997C94.1571 55.1997 94.3468 55.2642 94.5031 55.3932C94.6618 55.5198 94.7412 55.7009 94.7412 55.9366C94.7412 56.1821 94.6346 56.3718 94.4212 56.5059ZM93.9338 55.5309C93.8023 55.5309 93.6919 55.5656 93.6026 55.6351C93.5157 55.7046 93.4723 55.8074 93.4723 55.9439C93.4723 56.0754 93.517 56.1785 93.6062 56.2529C93.6956 56.3248 93.8047 56.3607 93.9338 56.3607C94.0628 56.3607 94.1719 56.3248 94.2612 56.2529C94.3504 56.1785 94.3951 56.0754 94.3951 55.9439C94.3951 55.8074 94.3517 55.7046 94.2649 55.6351C94.1781 55.5656 94.0677 55.5309 93.9338 55.5309ZM93.9338 57.5701C94.1 57.5701 94.2326 57.5316 94.3318 57.4548C94.4336 57.3754 94.4845 57.2625 94.4845 57.116C94.4845 56.9723 94.4336 56.8618 94.3318 56.785C94.2326 56.7056 94.1 56.6659 93.9338 56.6659C93.77 56.6659 93.6372 56.7056 93.5356 56.785C93.4364 56.8618 93.3868 56.9723 93.3868 57.116C93.3868 57.2625 93.4364 57.3754 93.5356 57.4548C93.6372 57.5316 93.77 57.5701 93.9338 57.5701ZM98.0035 55.9924V57.853H97.6872V56.5021L97.0955 57.4548H97.0546L96.4629 56.5021V57.853H96.143V55.9924H96.489L97.0732 56.9338L97.6575 55.9924H98.0035ZM99.3907 56.3049H98.3413V56.104L98.7693 55.6872C98.871 55.5904 98.9467 55.5123 98.9964 55.4529C99.0483 55.3908 99.0832 55.3361 99.1005 55.289C99.1204 55.2394 99.1302 55.1873 99.1302 55.1327C99.1302 55.0534 99.1067 54.9939 99.0596 54.9541C99.015 54.9144 98.9553 54.8947 98.8809 54.8947C98.8065 54.8947 98.7382 54.9095 98.6762 54.9392C98.6168 54.9666 98.5547 55.005 98.4902 55.0547L98.3599 54.8834C98.432 54.8214 98.5101 54.7717 98.5945 54.7345C98.6813 54.6973 98.778 54.6787 98.8847 54.6787C99.0434 54.6787 99.1674 54.7185 99.2568 54.7978C99.3486 54.8748 99.3945 54.9815 99.3945 55.118C99.3945 55.1997 99.377 55.2754 99.3424 55.3449C99.3101 55.4118 99.2617 55.4813 99.1972 55.5532C99.1352 55.6227 99.0584 55.7009 98.9666 55.7878L98.6651 56.0741H99.3907V56.3049Z" fill="#090907"/>
<path id="Vector_193" d="M133.432 50.8382C133.038 50.8382 132.712 50.7079 132.454 50.4474C132.198 50.187 132.07 49.8668 132.07 49.4872C132.07 49.1078 132.198 48.7877 132.454 48.5272C132.712 48.2668 133.038 48.1365 133.432 48.1365C133.67 48.1365 133.889 48.1936 134.087 48.3078C134.288 48.4218 134.445 48.5756 134.556 48.7691L134.255 48.944C134.18 48.8001 134.069 48.6861 133.92 48.6017C133.773 48.5148 133.611 48.4714 133.432 48.4714C133.132 48.4714 132.887 48.5683 132.696 48.7616C132.507 48.9552 132.413 49.197 132.413 49.4872C132.413 49.7751 132.507 50.0157 132.696 50.2092C132.887 50.4027 133.132 50.4994 133.432 50.4994C133.611 50.4994 133.773 50.4573 133.92 50.373C134.069 50.2862 134.18 50.172 134.255 50.0306L134.556 50.2017C134.447 50.3953 134.292 50.5503 134.091 50.6669C133.89 50.7811 133.67 50.8382 133.432 50.8382ZM135.015 51.1617H134.821L136.31 47.8127H136.503L135.015 51.1617ZM138.417 48.1849H138.767L137.93 50.172C137.835 50.3953 137.715 50.5578 137.569 50.6594C137.422 50.7586 137.244 50.802 137.033 50.7896V50.4697C137.177 50.4846 137.293 50.4635 137.383 50.4064C137.472 50.3493 137.546 50.2513 137.606 50.1125L137.632 50.0529L136.75 48.1849H137.1L137.792 49.6733L138.417 48.1849Z" fill="#8E9297"/>
<path id="Vector_194" d="M133.105 54.3238C133.303 54.361 133.466 54.4466 133.592 54.5806C133.719 54.7145 133.782 54.8845 133.782 55.0903C133.782 55.3435 133.695 55.543 133.522 55.6895C133.348 55.8358 133.137 55.9089 132.889 55.9089C132.691 55.9089 132.515 55.8644 132.361 55.775C132.207 55.6833 132.098 55.5518 132.033 55.3807L132.324 55.2094C132.4 55.45 132.589 55.5704 132.889 55.5704C133.05 55.5704 133.182 55.5282 133.284 55.4438C133.385 55.3595 133.436 55.2417 133.436 55.0903C133.436 54.9391 133.385 54.8212 133.284 54.7368C133.182 54.65 133.05 54.6065 132.889 54.6065H132.8L132.662 54.3946L133.265 53.5796H132.108V53.2558H133.67V53.561L133.105 54.3238ZM134.577 55.4774L134.335 56.3815H134.056L134.205 55.4774H134.577ZM135.794 54.2716C136.039 54.2716 136.246 54.345 136.415 54.4913C136.586 54.6352 136.672 54.8349 136.672 55.0903C136.672 55.3435 136.585 55.543 136.411 55.6895C136.238 55.8358 136.027 55.9089 135.779 55.9089C135.58 55.9089 135.403 55.8619 135.247 55.7676C135.09 55.6709 134.981 55.5319 134.919 55.3508L135.213 55.1833C135.248 55.3099 135.315 55.4066 135.414 55.4737C135.513 55.5381 135.635 55.5704 135.779 55.5704C135.943 55.5704 136.075 55.5282 136.177 55.4438C136.279 55.3595 136.329 55.2417 136.329 55.0903C136.329 54.9391 136.279 54.8212 136.177 54.7368C136.075 54.65 135.945 54.6065 135.786 54.6065H135.049L135.146 53.2558H136.571V53.5796H135.459L135.414 54.2716H135.794ZM139.846 54V55.8606H139.53V54.5099L138.938 55.4624H138.897L138.305 54.5099V55.8606H137.985V54H138.331L138.916 54.9414L139.5 54H139.846ZM141.233 54.3127H140.184V54.1117L140.612 53.6949C140.713 53.5982 140.789 53.5201 140.839 53.4605C140.891 53.3985 140.926 53.3439 140.943 53.2969C140.963 53.2472 140.973 53.1951 140.973 53.1405C140.973 53.0612 140.949 53.0015 140.902 52.962C140.857 52.9222 140.798 52.9023 140.723 52.9023C140.649 52.9023 140.581 52.9173 140.519 52.947C140.459 52.9744 140.397 53.0127 140.333 53.0623L140.202 52.8912C140.274 52.8292 140.352 52.7796 140.437 52.7423C140.524 52.7051 140.62 52.6865 140.727 52.6865C140.886 52.6865 141.01 52.7263 141.099 52.8056C141.191 52.8824 141.237 52.9891 141.237 53.1256C141.237 53.2075 141.219 53.2832 141.185 53.3527C141.152 53.4196 141.104 53.4891 141.04 53.561C140.978 53.6305 140.901 53.7086 140.809 53.7954L140.507 54.0819H141.233V54.3127Z" fill="#090907"/>
<path id="Vector_195" d="M61.9493 104.053H61.5549L60.5688 102.803V104.053H60.2264V102.803L59.2403 104.053H58.8496L59.8915 102.721L58.8868 101.448H59.2775L60.2264 102.643V101.448H60.5688V102.643L61.5177 101.448H61.912L60.9037 102.721L61.9493 104.053ZM63.6095 102.192H63.87V104.053H63.5499V102.747L62.5191 104.053H62.2586V102.192H62.5787V103.498L63.6095 102.192ZM65.9144 102.192V104.053H65.5907V102.505H64.8576V103.264C64.8576 103.569 64.7955 103.782 64.6715 103.904C64.55 104.023 64.3776 104.073 64.1544 104.053V103.748C64.2808 103.765 64.3751 103.738 64.4371 103.666C64.5017 103.591 64.534 103.455 64.534 103.257V102.192H65.9144ZM67.9455 102.192H68.2693V104.053H67.9455V103.733C67.7843 103.978 67.5499 104.101 67.2422 104.101C66.9817 104.101 66.7597 104.007 66.5762 103.818C66.3925 103.627 66.3008 103.395 66.3008 103.122C66.3008 102.85 66.3925 102.619 66.5762 102.43C66.7597 102.239 66.9817 102.144 67.2422 102.144C67.5499 102.144 67.7843 102.267 67.9455 102.512V102.192ZM67.2832 103.789C67.4716 103.789 67.6292 103.725 67.7558 103.599C67.8822 103.47 67.9455 103.311 67.9455 103.122C67.9455 102.934 67.8822 102.776 67.7558 102.65C67.6292 102.521 67.4716 102.457 67.2832 102.457C67.0972 102.457 66.9408 102.521 66.8142 102.65C66.6878 102.776 66.6245 102.934 66.6245 103.122C66.6245 103.311 66.6878 103.47 66.8142 103.599C66.9408 103.725 67.0972 103.789 67.2832 103.789ZM70.1514 102.192V104.053H69.8314V103.383H69.5598L69.0389 104.053H68.6443L69.1877 103.364C69.0487 103.33 68.9358 103.26 68.849 103.156C68.7622 103.052 68.7188 102.93 68.7188 102.791C68.7188 102.62 68.7795 102.478 68.9012 102.363C69.0226 102.249 69.1753 102.192 69.3588 102.192H70.1514ZM69.37 103.093H69.8314V102.494H69.37C69.2782 102.494 69.2001 102.521 69.1356 102.576C69.071 102.63 69.0389 102.703 69.0389 102.795C69.0389 102.884 69.071 102.956 69.1356 103.011C69.2001 103.066 69.2782 103.093 69.37 103.093ZM60.6022 107.883H60.2003L59.352 107.002V107.883H59.0282V106.023H59.352V106.845L60.1556 106.023H60.5724L59.683 106.923L60.6022 107.883ZM62.3028 107.649C62.1118 107.838 61.8798 107.932 61.6069 107.932C61.334 107.932 61.1022 107.838 60.911 107.649C60.7226 107.461 60.6283 107.228 60.6283 106.953C60.6283 106.678 60.7226 106.446 60.911 106.257C61.1022 106.069 61.334 105.974 61.6069 105.974C61.8798 105.974 62.1118 106.069 62.3028 106.257C62.4937 106.446 62.5893 106.678 62.5893 106.953C62.5893 107.228 62.4937 107.461 62.3028 107.649ZM61.6069 107.616C61.7929 107.616 61.9493 107.552 62.0758 107.426C62.2023 107.299 62.2656 107.142 62.2656 106.953C62.2656 106.765 62.2023 106.607 62.0758 106.481C61.9493 106.354 61.7929 106.291 61.6069 106.291C61.4234 106.291 61.2683 106.354 61.1417 106.481C61.0153 106.607 60.952 106.765 60.952 106.953C60.952 107.142 61.0153 107.299 61.1417 107.426C61.2683 107.552 61.4234 107.616 61.6069 107.616ZM64.8315 106.023V107.883H64.5152V106.533L63.9236 107.485H63.8826L63.291 106.533V107.883H62.9709V106.023H63.3169L63.9012 106.964L64.4855 106.023H64.8315ZM66.6132 106.023H66.937V107.883H66.6132V107.106H65.6494V107.883H65.3258V106.023H65.6494V106.797H66.6132V106.023ZM68.9703 106.023H69.2941V107.883H68.9703V107.563C68.8091 107.809 68.5747 107.932 68.2669 107.932C68.0065 107.932 67.7845 107.838 67.601 107.649C67.4173 107.458 67.3255 107.226 67.3255 106.953C67.3255 106.68 67.4173 106.45 67.601 106.261C67.7845 106.07 68.0065 105.974 68.2669 105.974C68.5747 105.974 68.8091 106.097 68.9703 106.343V106.023ZM68.308 107.619C68.4964 107.619 68.654 107.556 68.7804 107.43C68.907 107.3 68.9703 107.142 68.9703 106.953C68.9703 106.765 68.907 106.607 68.7804 106.481C68.654 106.351 68.4964 106.287 68.308 106.287C68.1219 106.287 67.9656 106.351 67.839 106.481C67.7126 106.607 67.6493 106.765 67.6493 106.953C67.6493 107.142 67.7126 107.3 67.839 107.43C67.9656 107.556 68.1219 107.619 68.308 107.619ZM71.1687 106.023V106.335H70.5361V107.883H70.2125V106.335H69.5761V106.023H71.1687ZM72.9203 106.023H73.2441V107.883H72.9203V107.563C72.7591 107.809 72.5247 107.932 72.217 107.932C71.9565 107.932 71.7345 107.838 71.551 107.649C71.3673 107.458 71.2756 107.226 71.2756 106.953C71.2756 106.68 71.3673 106.45 71.551 106.261C71.7345 106.07 71.9565 105.974 72.217 105.974C72.5247 105.974 72.7591 106.097 72.9203 106.343V106.023ZM72.258 107.619C72.4464 107.619 72.604 107.556 72.7306 107.43C72.857 107.3 72.9203 107.142 72.9203 106.953C72.9203 106.765 72.857 106.607 72.7306 106.481C72.604 106.351 72.4464 106.287 72.258 106.287C72.072 106.287 71.9156 106.351 71.789 106.481C71.6626 106.607 71.5993 106.765 71.5993 106.953C71.5993 107.142 71.6626 107.3 71.789 107.43C71.9156 107.556 72.072 107.619 72.258 107.619Z" fill="#8E9297"/>
<path id="Vector_196" d="M59.5207 110.167H59.8184V112.772H59.476V110.539L58.9215 110.703L58.8359 110.405L59.5207 110.167ZM61.1149 111.183C61.3605 111.183 61.5677 111.256 61.7364 111.402C61.9075 111.546 61.993 111.746 61.993 112.001C61.993 112.255 61.9062 112.454 61.7326 112.601C61.5589 112.747 61.348 112.82 61.1 112.82C60.9015 112.82 60.7242 112.773 60.5679 112.679C60.4116 112.582 60.3025 112.443 60.2405 112.262L60.5345 112.094C60.5692 112.221 60.6361 112.318 60.7353 112.385C60.8346 112.449 60.9562 112.482 61.1 112.482C61.2638 112.482 61.3966 112.439 61.4982 112.355C61.6 112.271 61.6508 112.153 61.6508 112.001C61.6508 111.85 61.6 111.732 61.4982 111.648C61.3966 111.561 61.2663 111.518 61.1075 111.518H60.3707L60.4674 110.167H61.8927V110.491H60.78L60.7353 111.183H61.1149ZM62.7874 112.388L62.5456 113.293H62.2665L62.4153 112.388H62.7874ZM65.0792 111.953V112.277H64.7629V112.772H64.4169V112.277H63.0884V111.953L64.0225 110.167H64.3946L63.4605 111.953H64.4169V111.216H64.7629V111.953H65.0792ZM68.1942 110.911V112.772H67.8779V111.421L67.2861 112.374H67.2453L66.6536 111.421V112.772H66.3336V110.911H66.6796L67.2639 111.853L67.8481 110.911H68.1942ZM69.5814 111.224H68.532V111.023L68.9599 110.606C69.0617 110.509 69.1374 110.431 69.187 110.372C69.239 110.31 69.2738 110.255 69.2912 110.208C69.311 110.158 69.3209 110.106 69.3209 110.052C69.3209 109.972 69.2974 109.913 69.2503 109.873C69.2056 109.833 69.146 109.813 69.0715 109.813C68.9971 109.813 68.9289 109.828 68.8669 109.858C68.8074 109.885 68.7454 109.924 68.6808 109.973L68.5506 109.802C68.6226 109.74 68.7007 109.691 68.7852 109.653C68.872 109.616 68.9687 109.598 69.0754 109.598C69.2341 109.598 69.3581 109.637 69.4475 109.717C69.5392 109.794 69.5852 109.9 69.5852 110.037C69.5852 110.119 69.5677 110.194 69.533 110.264C69.5007 110.331 69.4524 110.4 69.3878 110.472C69.3258 110.542 69.249 110.62 69.1573 110.707L68.8558 110.993H69.5814V111.224Z" fill="#090907"/>
<path id="Vector_197" d="M137.27 154.397V154.085C137.441 154.109 137.568 154.062 137.653 153.943C137.74 153.822 137.783 153.597 137.783 153.27V151.792H139.502V154.397H139.156V152.12H138.129V153.27C138.129 153.503 138.107 153.699 138.062 153.857C138.02 154.014 137.958 154.132 137.876 154.211C137.797 154.29 137.707 154.345 137.608 154.375C137.511 154.402 137.398 154.409 137.27 154.397ZM141.599 154.163C141.408 154.351 141.176 154.446 140.903 154.446C140.63 154.446 140.398 154.351 140.207 154.163C140.019 153.974 139.924 153.742 139.924 153.467C139.924 153.191 140.019 152.959 140.207 152.771C140.398 152.582 140.63 152.488 140.903 152.488C141.176 152.488 141.408 152.582 141.599 152.771C141.79 152.959 141.885 153.191 141.885 153.467C141.885 153.742 141.79 153.974 141.599 154.163ZM140.903 154.129C141.089 154.129 141.245 154.066 141.372 153.939C141.498 153.813 141.562 153.655 141.562 153.467C141.562 153.278 141.498 153.121 141.372 152.994C141.245 152.868 141.089 152.804 140.903 152.804C140.719 152.804 140.564 152.868 140.438 152.994C140.311 153.121 140.248 153.278 140.248 153.467C140.248 153.655 140.311 153.813 140.438 153.939C140.564 154.066 140.719 154.129 140.903 154.129ZM143.794 154.088H144.051V154.896H143.731V154.397H142.336V154.896H142.016V154.088H142.243C142.362 153.925 142.421 153.695 142.421 153.4V152.536H143.794V154.088ZM142.611 154.088H143.474V152.838H142.741V153.4C142.741 153.678 142.698 153.907 142.611 154.088ZM146.689 154.397H146.309L145.613 153.515V154.397H145.293V153.515L144.597 154.397H144.221L144.999 153.437L144.259 152.536H144.635L145.293 153.359V152.536H145.613V153.359L146.272 152.536H146.651L145.907 153.437L146.689 154.397ZM148.349 152.536H148.61V154.397H148.289V153.091L147.259 154.397H146.998V152.536H147.318V153.843L148.349 152.536ZM150.494 152.536V154.397H150.174V153.727H149.902L149.381 154.397H148.987L149.53 153.709C149.391 153.674 149.279 153.604 149.192 153.5C149.105 153.396 149.061 153.274 149.061 153.136C149.061 152.964 149.122 152.822 149.244 152.708C149.365 152.594 149.518 152.536 149.702 152.536H150.494ZM149.713 153.437H150.174V152.838H149.713C149.621 152.838 149.543 152.865 149.478 152.92C149.414 152.974 149.381 153.048 149.381 153.139C149.381 153.229 149.414 153.301 149.478 153.355C149.543 153.41 149.621 153.437 149.713 153.437Z" fill="#8E9297"/>
<path id="Vector_198" d="M139.297 158.649V158.973H138.981V159.468H138.635V158.973H137.307V158.649L138.241 156.863H138.613L137.679 158.649H138.635V157.913H138.981V158.649H139.297ZM140.105 159.085L139.863 159.989H139.584L139.733 159.085H140.105ZM140.451 159.468V159.185L141.37 158.248C141.616 158.002 141.738 157.791 141.738 157.615C141.738 157.469 141.694 157.354 141.605 157.273C141.515 157.191 141.406 157.15 141.277 157.15C141.031 157.15 140.853 157.266 140.741 157.5L140.451 157.328C140.533 157.16 140.646 157.032 140.79 156.945C140.936 156.858 141.097 156.815 141.273 156.815C141.492 156.815 141.681 156.887 141.843 157.031C142.004 157.175 142.085 157.368 142.085 157.611C142.085 157.874 141.93 158.161 141.619 158.471L140.953 159.133H142.133V159.468H140.451ZM145.316 157.607V159.468H144.999V158.117L144.408 159.07H144.367L143.775 158.117V159.468H143.455V157.607H143.801L144.386 158.549L144.97 157.607H145.316ZM146.703 157.92H145.654V157.719L146.082 157.302C146.183 157.206 146.259 157.128 146.309 157.068C146.361 157.006 146.395 156.951 146.413 156.904C146.433 156.855 146.443 156.802 146.443 156.748C146.443 156.669 146.419 156.609 146.372 156.569C146.327 156.53 146.268 156.51 146.193 156.51C146.119 156.51 146.051 156.525 145.989 156.554C145.929 156.582 145.867 156.62 145.802 156.67L145.672 156.499C145.744 156.437 145.822 156.387 145.907 156.35C145.993 156.313 146.09 156.294 146.197 156.294C146.356 156.294 146.48 156.334 146.569 156.413C146.661 156.49 146.707 156.597 146.707 156.733C146.707 156.815 146.689 156.891 146.655 156.96C146.622 157.027 146.574 157.097 146.509 157.168C146.447 157.238 146.371 157.316 146.279 157.403L145.977 157.689H146.703V157.92Z" fill="#090907"/>
<path id="Vector_199" d="M121.699 106.971H121.275L120.151 105.721V106.971H119.805V104.366H120.151V105.542L121.237 104.366H121.662L120.512 105.632L121.699 106.971ZM123.156 105.111H123.502L122.743 107.087C122.663 107.298 122.552 107.458 122.408 107.567C122.264 107.678 122.1 107.728 121.917 107.715V107.414C122.145 107.431 122.312 107.307 122.419 107.042L122.449 106.975L121.641 105.111H121.984L122.62 106.569L123.156 105.111ZM125.387 106.971H125.008L124.487 106.268L123.962 106.971H123.582L124.297 106.015L123.623 105.111H124.007L124.487 105.758L124.967 105.111H125.346L124.676 106.011L125.387 106.971ZM126.975 105.111H127.299V106.971H126.975V106.194H126.011V106.971H125.687V105.111H126.011V105.885H126.975V105.111ZM129.183 105.111V106.971H128.863V106.301H128.591L128.07 106.971H127.676L128.219 106.283C128.08 106.248 127.967 106.179 127.881 106.075C127.794 105.97 127.75 105.849 127.75 105.71C127.75 105.539 127.811 105.396 127.933 105.282C128.054 105.168 128.207 105.111 128.39 105.111H129.183ZM128.402 106.011H128.863V105.412H128.402C128.31 105.412 128.232 105.439 128.167 105.494C128.103 105.549 128.07 105.622 128.07 105.714C128.07 105.803 128.103 105.875 128.167 105.929C128.232 105.984 128.31 106.011 128.402 106.011Z" fill="#8E9297"/>
<path id="Vector_200" d="M120.261 109.437H120.559V112.042H120.216V109.81L119.662 109.973L119.576 109.676L120.261 109.437ZM122.93 111.224V111.547H122.614V112.042H122.268V111.547H120.94V111.224L121.874 109.437H122.246L121.312 111.224H122.268V110.487H122.614V111.224H122.93ZM123.738 111.659L123.496 112.563H123.217L123.366 111.659H123.738ZM124.951 110.338C125.212 110.338 125.426 110.42 125.595 110.584C125.764 110.745 125.848 110.955 125.848 111.212C125.848 111.47 125.764 111.681 125.595 111.845C125.426 112.009 125.212 112.091 124.951 112.091C124.688 112.091 124.472 112.009 124.304 111.845C124.137 111.681 124.054 111.47 124.054 111.212C124.054 111.011 124.106 110.838 124.211 110.692L125.048 109.437H125.442L124.828 110.345C124.883 110.341 124.924 110.338 124.951 110.338ZM124.549 111.611C124.653 111.71 124.787 111.759 124.951 111.759C125.115 111.759 125.248 111.71 125.349 111.611C125.454 111.509 125.506 111.376 125.506 111.212C125.506 111.049 125.454 110.917 125.349 110.818C125.248 110.719 125.115 110.669 124.951 110.669C124.785 110.669 124.651 110.719 124.549 110.818C124.448 110.917 124.397 111.049 124.397 111.212C124.397 111.376 124.448 111.509 124.549 111.611ZM128.989 110.182V112.042H128.673V110.692L128.081 111.644H128.04L127.448 110.692V112.042H127.128V110.182H127.474L128.059 111.123L128.643 110.182H128.989ZM130.376 110.494H129.327V110.293L129.755 109.877C129.856 109.78 129.932 109.702 129.982 109.642C130.034 109.58 130.069 109.526 130.086 109.478C130.106 109.429 130.116 109.377 130.116 109.322C130.116 109.243 130.092 109.183 130.045 109.144C130 109.104 129.941 109.084 129.866 109.084C129.792 109.084 129.724 109.099 129.662 109.129C129.602 109.156 129.54 109.194 129.476 109.244L129.345 109.073C129.417 109.011 129.495 108.961 129.58 108.924C129.667 108.887 129.763 108.868 129.87 108.868C130.029 108.868 130.153 108.908 130.242 108.987C130.334 109.064 130.38 109.171 130.38 109.307C130.38 109.389 130.362 109.465 130.328 109.534C130.296 109.601 130.247 109.671 130.183 109.743C130.121 109.812 130.044 109.89 129.952 109.977L129.651 110.264H130.376V110.494Z" fill="#090907"/>
<path id="Vector_201" d="M46.7466 69.8372L45.8516 71.3876H47.6419L46.7466 69.8372ZM46.7466 144.229L47.6419 142.678H45.8516L46.7466 144.229ZM46.5916 71.2326V142.833H46.9017V71.2326H46.5916Z" fill="#66768B"/>
<path id="Vector_202" d="M44.1255 109.309H44.4493V109.626H44.9441V109.972H44.4493V111.3H44.1255L42.3394 110.366V109.994L44.1255 110.928V109.972H43.3887V109.626H44.1255V109.309ZM43.3552 108.226C43.3552 107.981 43.4285 107.773 43.5748 107.605C43.7187 107.434 43.9185 107.348 44.1738 107.348C44.427 107.348 44.6266 107.435 44.773 107.609C44.9193 107.782 44.9925 107.993 44.9925 108.241C44.9925 108.44 44.9454 108.617 44.8511 108.773C44.7544 108.93 44.6154 109.039 44.4343 109.101L44.2669 108.807C44.3934 108.772 44.4901 108.705 44.5572 108.606C44.6216 108.507 44.6539 108.385 44.6539 108.241C44.6539 108.077 44.6118 107.945 44.5273 107.843C44.4431 107.741 44.3252 107.69 44.1738 107.69C44.0226 107.69 43.9048 107.741 43.8203 107.843C43.7335 107.945 43.6901 108.075 43.6901 108.234V108.97L42.3394 108.874V107.448H42.6631V108.561L43.3552 108.606V108.226ZM43.2399 106.21C43.2399 105.949 43.3218 105.734 43.4854 105.566C43.6467 105.397 43.8564 105.313 44.1144 105.313C44.3723 105.313 44.5831 105.397 44.7469 105.566C44.9107 105.734 44.9925 105.949 44.9925 106.21C44.9925 106.472 44.9107 106.688 44.7469 106.857C44.5831 107.023 44.3723 107.106 44.1144 107.106C43.9133 107.106 43.7397 107.054 43.5934 106.95L42.3394 106.113V105.718L43.2474 106.332C43.2425 106.278 43.2399 106.237 43.2399 106.21ZM44.5126 106.611C44.6118 106.507 44.6614 106.373 44.6614 106.21C44.6614 106.046 44.6118 105.913 44.5126 105.811C44.4108 105.707 44.2782 105.655 44.1144 105.655C43.9506 105.655 43.8192 105.707 43.72 105.811C43.6208 105.913 43.5711 106.046 43.5711 106.21C43.5711 106.376 43.6208 106.51 43.72 106.611C43.8192 106.713 43.9506 106.764 44.1144 106.764C44.2782 106.764 44.4108 106.713 44.5126 106.611ZM44.6242 103.296C44.8697 103.472 44.9925 103.719 44.9925 104.036C44.9925 104.354 44.8697 104.6 44.6242 104.777C44.3785 104.953 44.0511 105.041 43.6417 105.041C43.2324 105.041 42.905 104.953 42.6595 104.777C42.4138 104.6 42.291 104.354 42.291 104.036C42.291 103.719 42.4138 103.472 42.6595 103.296C42.905 103.119 43.2324 103.031 43.6417 103.031C44.0511 103.031 44.3785 103.119 44.6242 103.296ZM44.3898 104.524C44.5658 104.409 44.6539 104.247 44.6539 104.036C44.6539 103.825 44.5658 103.663 44.3898 103.549C44.2136 103.432 43.9642 103.374 43.6417 103.374C43.3192 103.374 43.0699 103.432 42.8939 103.549C42.7153 103.663 42.6259 103.825 42.6259 104.036C42.6259 104.247 42.714 104.409 42.89 104.524C43.0662 104.638 43.3169 104.695 43.6417 104.695C43.9642 104.695 44.2136 104.638 44.3898 104.524Z" fill="#090907"/>
<path id="Vector_203" d="M45.1035 36.197H51.123" stroke="#66768B" stroke-width="0.299074" stroke-miterlimit="22.9256"/>
<path id="Vector_204" d="M46.7449 67.3887L47.6399 65.8382H45.8496L46.7449 67.3887ZM46.7449 36.197L45.8496 37.7475H47.6399L46.7449 36.197ZM46.8999 65.9933V37.5924H46.5898V65.9933H46.8999Z" fill="#66768B"/>
<path id="Vector_205" d="M39.082 136.339L40.6325 137.234V135.444L39.082 136.339ZM95.8107 136.339L94.2603 135.444V137.234L95.8107 136.339ZM40.4774 136.494H94.4153V136.184H40.4774V136.494Z" fill="#66768B"/>
<path id="Vector_206" d="M63.9722 132.796C64.1707 132.833 64.333 132.918 64.4596 133.052C64.5862 133.186 64.6493 133.356 64.6493 133.562C64.6493 133.815 64.5625 134.015 64.3888 134.161C64.2152 134.308 64.0043 134.381 63.7562 134.381C63.5578 134.381 63.3818 134.336 63.228 134.247C63.074 134.155 62.965 134.023 62.9004 133.852L63.1908 133.681C63.2676 133.922 63.4562 134.042 63.7562 134.042C63.9175 134.042 64.049 134 64.1508 133.916C64.2524 133.831 64.3033 133.713 64.3033 133.562C64.3033 133.411 64.2524 133.293 64.1508 133.209C64.049 133.122 63.9175 133.078 63.7562 133.078H63.667L63.5293 132.866L64.1322 132.051H62.9748V131.728H64.5377V132.033L63.9722 132.796ZM65.7742 132.744C66.0197 132.744 66.227 132.817 66.3957 132.963C66.5668 133.107 66.6523 133.307 66.6523 133.562C66.6523 133.815 66.5655 134.015 66.3918 134.161C66.2182 134.308 66.0073 134.381 65.7593 134.381C65.5608 134.381 65.3835 134.334 65.2272 134.239C65.0709 134.143 64.9618 134.004 64.8998 133.823L65.1936 133.655C65.2285 133.782 65.2954 133.878 65.3946 133.945C65.4939 134.01 65.6153 134.042 65.7593 134.042C65.9231 134.042 66.0557 134 66.1575 133.916C66.2592 133.831 66.3099 133.713 66.3099 133.562C66.3099 133.411 66.2592 133.293 66.1575 133.209C66.0557 133.122 65.9254 133.078 65.7667 133.078H65.03L65.1267 131.728H66.5518V132.051H65.4393L65.3946 132.744H65.7742ZM68.6699 134.012C68.4937 134.258 68.2469 134.381 67.9294 134.381C67.6118 134.381 67.365 134.258 67.1888 134.012C67.0128 133.767 66.9247 133.439 66.9247 133.03C66.9247 132.621 67.0128 132.293 67.1888 132.048C67.365 131.802 67.6118 131.679 67.9294 131.679C68.2469 131.679 68.4937 131.802 68.6699 132.048C68.846 132.293 68.9341 132.621 68.9341 133.03C68.9341 133.439 68.846 133.767 68.6699 134.012ZM67.442 133.778C67.556 133.954 67.7185 134.042 67.9294 134.042C68.1402 134.042 68.3028 133.954 68.4168 133.778C68.5335 133.602 68.5917 133.352 68.5917 133.03C68.5917 132.707 68.5335 132.458 68.4168 132.282C68.3028 132.103 68.1402 132.014 67.9294 132.014C67.7185 132.014 67.556 132.102 67.442 132.278C67.3278 132.454 67.2707 132.705 67.2707 133.03C67.2707 133.352 67.3278 133.602 67.442 133.778ZM71.0137 134.012C70.8377 134.258 70.5907 134.381 70.2733 134.381C69.9557 134.381 69.7089 134.258 69.5327 134.012C69.3565 133.767 69.2686 133.439 69.2686 133.03C69.2686 132.621 69.3565 132.293 69.5327 132.048C69.7089 131.802 69.9557 131.679 70.2733 131.679C70.5907 131.679 70.8377 131.802 71.0137 132.048C71.1899 132.293 71.278 132.621 71.278 133.03C71.278 133.439 71.1899 133.767 71.0137 134.012ZM69.7857 133.778C69.8999 133.954 70.0624 134.042 70.2733 134.042C70.4842 134.042 70.6465 133.954 70.7607 133.778C70.8772 133.602 70.9356 133.352 70.9356 133.03C70.9356 132.707 70.8772 132.458 70.7607 132.282C70.6465 132.103 70.4842 132.014 70.2733 132.014C70.0624 132.014 69.8999 132.102 69.7857 132.278C69.6717 132.454 69.6146 132.705 69.6146 133.03C69.6146 133.352 69.6717 133.602 69.7857 133.778Z" fill="#090907"/>
<path id="Vector_207" d="M99.2109 166.018L100.761 166.913V165.123L99.2109 166.018ZM154.178 166.018L152.627 165.123V166.913L154.178 166.018ZM100.606 166.173H152.783V165.863H100.606V166.173Z" fill="#66768B"/>
<path id="Vector_208" d="M123.333 162.495C123.532 162.533 123.694 162.618 123.821 162.752C123.947 162.886 124.011 163.056 124.011 163.262C124.011 163.515 123.924 163.715 123.75 163.861C123.577 164.008 123.366 164.081 123.118 164.081C122.919 164.081 122.743 164.036 122.589 163.947C122.435 163.855 122.326 163.723 122.262 163.552L122.552 163.381C122.629 163.622 122.817 163.742 123.118 163.742C123.279 163.742 123.41 163.7 123.512 163.616C123.614 163.531 123.665 163.413 123.665 163.262C123.665 163.111 123.614 162.993 123.512 162.909C123.41 162.822 123.279 162.778 123.118 162.778H123.028L122.891 162.566L123.493 161.751H122.336V161.428H123.899V161.733L123.333 162.495ZM126.265 163.214V163.537H125.949V164.032H125.603V163.537H124.275V163.214L125.209 161.428H125.581L124.647 163.214H125.603V162.477H125.949V163.214H126.265ZM128.256 163.712C128.08 163.958 127.834 164.081 127.516 164.081C127.198 164.081 126.952 163.958 126.775 163.712C126.599 163.467 126.511 163.139 126.511 162.73C126.511 162.321 126.599 161.993 126.775 161.748C126.952 161.502 127.198 161.379 127.516 161.379C127.834 161.379 128.08 161.502 128.256 161.748C128.433 161.993 128.521 162.321 128.521 162.73C128.521 163.139 128.433 163.467 128.256 163.712ZM127.028 163.478C127.143 163.654 127.305 163.742 127.516 163.742C127.727 163.742 127.889 163.654 128.003 163.478C128.12 163.302 128.178 163.053 128.178 162.73C128.178 162.408 128.12 162.158 128.003 161.982C127.889 161.803 127.727 161.714 127.516 161.714C127.305 161.714 127.143 161.802 127.028 161.978C126.914 162.154 126.857 162.405 126.857 162.73C126.857 163.053 126.914 163.302 127.028 163.478ZM130.6 163.712C130.424 163.958 130.177 164.081 129.86 164.081C129.542 164.081 129.295 163.958 129.119 163.712C128.943 163.467 128.855 163.139 128.855 162.73C128.855 162.321 128.943 161.993 129.119 161.748C129.295 161.502 129.542 161.379 129.86 161.379C130.177 161.379 130.424 161.502 130.6 161.748C130.776 161.993 130.864 162.321 130.864 162.73C130.864 163.139 130.776 163.467 130.6 163.712ZM129.372 163.478C129.487 163.654 129.649 163.742 129.86 163.742C130.071 163.742 130.233 163.654 130.347 163.478C130.464 163.302 130.522 163.053 130.522 162.73C130.522 162.408 130.464 162.158 130.347 161.982C130.233 161.803 130.071 161.714 129.86 161.714C129.649 161.714 129.487 161.802 129.372 161.978C129.258 162.154 129.201 162.405 129.201 162.73C129.201 163.053 129.258 163.302 129.372 163.478Z" fill="#090907"/>
<path id="Vector_209" d="M146.001 54.836V54.5383H148.606V54.8806H146.374L146.537 55.4352L146.24 55.5207L146.001 54.836ZM146.828 52.3486C147.029 52.3486 147.204 52.4019 147.352 52.5086V52.505L148.606 53.3459V53.7366L147.695 53.119C147.7 53.1735 147.702 53.2156 147.702 53.2454C147.702 53.5084 147.621 53.7242 147.46 53.8929C147.297 54.0591 147.086 54.1423 146.828 54.1423C146.57 54.1423 146.36 54.0591 146.199 53.8929C146.035 53.7242 145.953 53.5084 145.953 53.2454C145.953 52.9825 146.035 52.7678 146.199 52.6016C146.36 52.4329 146.57 52.3486 146.828 52.3486ZM146.433 53.6474C146.532 53.749 146.664 53.7999 146.828 53.7999C146.991 53.7999 147.124 53.749 147.226 53.6474C147.325 53.543 147.375 53.4092 147.375 53.2454C147.375 53.0817 147.325 52.9489 147.226 52.8473C147.124 52.743 146.991 52.691 146.828 52.691C146.664 52.691 146.532 52.7419 146.433 52.8435C146.334 52.9453 146.284 53.0792 146.284 53.2454C146.284 53.4092 146.334 53.543 146.433 53.6474ZM147.788 50.2367H148.111V50.553H148.606V50.8991H148.111V52.2275H147.788L146.001 51.2936V50.9215L147.788 51.8554V50.8991H147.051V50.553H147.788V50.2367ZM148.286 48.2456C148.532 48.4218 148.655 48.6686 148.655 48.9861C148.655 49.3037 148.532 49.5505 148.286 49.7267C148.041 49.9027 147.713 49.9908 147.304 49.9908C146.895 49.9908 146.567 49.9027 146.322 49.7267C146.076 49.5505 145.953 49.3037 145.953 48.9861C145.953 48.6686 146.076 48.4218 146.322 48.2456C146.567 48.0695 146.895 47.9814 147.304 47.9814C147.713 47.9814 148.041 48.0695 148.286 48.2456ZM148.052 49.4735C148.228 49.3595 148.316 49.197 148.316 48.9861C148.316 48.7753 148.228 48.6128 148.052 48.4988C147.876 48.382 147.626 48.3238 147.304 48.3238C146.981 48.3238 146.732 48.382 146.556 48.4988C146.377 48.6128 146.288 48.7753 146.288 48.9861C146.288 49.197 146.376 49.3595 146.552 49.4735C146.728 49.5877 146.979 49.6448 147.304 49.6448C147.626 49.6448 147.876 49.5877 148.052 49.4735Z" fill="#090907"/>
<path id="Vector_210" d="M150.151 36.0369L149.27 37.5948L151.06 37.5798L150.151 36.0369ZM150.415 67.3491L151.297 65.7912L149.507 65.8061L150.415 67.3491ZM150.008 37.4336L150.248 65.955L150.558 65.9524L150.318 37.431L150.008 37.4336Z" fill="#66768B"/>
<path id="Vector_211" d="M148.206 74.7986L147.311 76.349H149.101L148.206 74.7986ZM148.206 144.259L149.101 142.708H147.311L148.206 144.259ZM148.051 76.194V142.863H148.361V76.194H148.051Z" fill="#66768B"/>
<path id="Vector_212" d="M145.416 111.79H145.74V112.106H146.235V112.452H145.74V113.781H145.416L143.63 112.847V112.475L145.416 113.409V112.452H144.68V112.106H145.416V111.79ZM144.646 110.707C144.646 110.461 144.72 110.254 144.866 110.086C145.01 109.914 145.209 109.829 145.465 109.829C145.718 109.829 145.918 109.916 146.064 110.089C146.21 110.263 146.284 110.474 146.284 110.722C146.284 110.92 146.236 111.098 146.142 111.254C146.045 111.41 145.906 111.519 145.725 111.581L145.558 111.287C145.684 111.253 145.781 111.186 145.848 111.087C145.913 110.987 145.945 110.866 145.945 110.722C145.945 110.558 145.903 110.425 145.819 110.324C145.734 110.222 145.616 110.171 145.465 110.171C145.314 110.171 145.196 110.222 145.112 110.324C145.025 110.425 144.981 110.556 144.981 110.714V111.451L143.63 111.355V109.929H143.954V111.042L144.646 111.087V110.707ZM144.531 108.69C144.531 108.43 144.613 108.215 144.777 108.047C144.938 107.878 145.147 107.794 145.405 107.794C145.663 107.794 145.874 107.878 146.038 108.047C146.202 108.215 146.284 108.43 146.284 108.69C146.284 108.953 146.202 109.169 146.038 109.338C145.874 109.504 145.663 109.587 145.405 109.587C145.205 109.587 145.031 109.535 144.884 109.431L143.63 108.594V108.199L144.538 108.813C144.533 108.759 144.531 108.718 144.531 108.69ZM145.804 109.092C145.903 108.988 145.952 108.854 145.952 108.69C145.952 108.526 145.903 108.394 145.804 108.292C145.702 108.188 145.569 108.136 145.405 108.136C145.242 108.136 145.11 108.188 145.011 108.292C144.912 108.394 144.862 108.526 144.862 108.69C144.862 108.856 144.912 108.991 145.011 109.092C145.11 109.194 145.242 109.245 145.405 109.245C145.569 109.245 145.702 109.194 145.804 109.092ZM145.915 105.776C146.161 105.953 146.284 106.199 146.284 106.517C146.284 106.834 146.161 107.081 145.915 107.257C145.67 107.434 145.342 107.522 144.933 107.522C144.523 107.522 144.196 107.434 143.95 107.257C143.705 107.081 143.582 106.834 143.582 106.517C143.582 106.199 143.705 105.953 143.95 105.776C144.196 105.6 144.523 105.512 144.933 105.512C145.342 105.512 145.67 105.6 145.915 105.776ZM145.681 107.004C145.857 106.89 145.945 106.728 145.945 106.517C145.945 106.306 145.857 106.144 145.681 106.029C145.505 105.913 145.255 105.854 144.933 105.854C144.61 105.854 144.361 105.913 144.185 106.029C144.006 106.144 143.917 106.306 143.917 106.517C143.917 106.728 144.005 106.89 144.181 107.004C144.357 107.118 144.608 107.175 144.933 107.175C145.255 107.175 145.505 107.118 145.681 107.004Z" fill="#090907"/>
<path id="Vector_213" d="M122.125 86.0442H134.576" stroke="#66768B" stroke-width="0.256672" stroke-miterlimit="10"/>
<path id="Vector_214" d="M126.258 83.2871V83.6045H125.948V84.0897H125.609V83.6045H124.307V83.2871L125.222 81.536H125.587L124.671 83.2871H125.609V82.5647H125.948V83.2871H126.258ZM126.449 84.0897V83.8124L127.35 82.8931C127.591 82.6523 127.711 82.4456 127.711 82.2729C127.711 82.1293 127.667 82.0175 127.58 81.9373C127.492 81.857 127.385 81.8169 127.259 81.8169C127.018 81.8169 126.843 81.9312 126.733 82.1598L126.449 81.992C126.529 81.8265 126.64 81.7014 126.781 81.6162C126.924 81.531 127.082 81.4885 127.255 81.4885C127.469 81.4885 127.655 81.5591 127.813 81.7001C127.971 81.8411 128.05 82.0308 128.05 82.2692C128.05 82.527 127.898 82.8079 127.594 83.112L126.941 83.7613H128.098V84.0897H126.449ZM128.956 83.7139L128.719 84.6004H128.446L128.592 83.7139H128.956ZM129.886 81.536H130.178V84.0897H129.843V81.9008L129.299 82.0613L129.215 81.7694L129.886 81.536ZM132.34 83.7759C132.167 84.0167 131.925 84.1371 131.614 84.1371C131.302 84.1371 131.06 84.0167 130.888 83.7759C130.715 83.5351 130.629 83.2141 130.629 82.8128C130.629 82.4115 130.715 82.0905 130.888 81.8497C131.06 81.6089 131.302 81.4885 131.614 81.4885C131.925 81.4885 132.167 81.6089 132.34 81.8497C132.512 82.0905 132.599 82.4115 132.599 82.8128C132.599 83.2141 132.512 83.5351 132.34 83.7759ZM131.136 83.5461C131.248 83.7188 131.407 83.8051 131.614 83.8051C131.82 83.8051 131.98 83.7188 132.091 83.5461C132.206 83.3733 132.263 83.1289 132.263 82.8128C132.263 82.4967 132.206 82.2523 132.091 82.0795C131.98 81.9044 131.82 81.8169 131.614 81.8169C131.407 81.8169 131.248 81.9031 131.136 82.0759C131.024 82.2486 130.968 82.4941 130.968 82.8128C130.968 83.1289 131.024 83.3733 131.136 83.5461Z" fill="#090909"/>
<path id="Vector_215" d="M117.637 82.9954H118.221V88.1028H117.55V83.725L116.463 84.046L116.295 83.4623L117.637 82.9954Z" fill="#090909"/>
<path id="Vector_216" d="M114.369 91.2036V80.0768C114.369 79.7745 114.614 79.5295 114.916 79.5295H134.069C134.371 79.5295 134.616 79.7745 134.616 80.0768V91.2036C134.616 91.5059 134.371 91.7508 134.069 91.7508H114.916C114.614 91.7508 114.369 91.5059 114.369 91.2036Z" stroke="#66768B" stroke-width="0.256852"/>
<path id="Vector_217" d="M114.369 91.2036V80.0768C114.369 79.7745 114.614 79.5295 114.916 79.5295H134.069C134.371 79.5295 134.616 79.7745 134.616 80.0768V91.2036C134.616 91.5059 134.371 91.7508 134.069 91.7508H114.916C114.614 91.7508 114.369 91.5059 114.369 91.2036Z" stroke="#66768B" stroke-width="0.256852"/>
<path id="Vector_218" d="M122.213 79.5295V91.6596" stroke="#66768B" stroke-width="0.256852"/>
<path id="Vector_219" d="M122.213 79.5295V91.6596" stroke="#66768B" stroke-width="0.256852"/>
<path id="Vector_220" d="M134.617 86.0962H122.213V91.7508H134.252L134.617 91.386V86.0962Z" fill="#66768B"/>
<path id="Vector_221" d="M134.617 86.0962H122.213V91.7508H134.252L134.617 91.386V86.0962Z" stroke="#66768B" stroke-width="0.175926"/>
<path id="Vector_222" d="M134.617 86.0962H122.213V91.7508H134.252L134.617 91.386V86.0962Z" stroke="#66768B" stroke-width="0.175926"/>
<path id="Vector_223" d="M126.258 89.489V89.8064H125.948V90.2916H125.609V89.8064H124.307V89.489L125.222 87.7379H125.587L124.671 89.489H125.609V88.7666H125.948V89.489H126.258ZM128.41 89.489V89.8064H128.1V90.2916H127.761V89.8064H126.459V89.489L127.374 87.7379H127.739L126.823 89.489H127.761V88.7666H128.1V89.489H128.41ZM129.202 89.9158L128.965 90.8023H128.691L128.837 89.9158H129.202ZM129.541 90.2916V90.0143L130.442 89.095C130.683 88.8542 130.803 88.6475 130.803 88.4748C130.803 88.3312 130.76 88.2194 130.672 88.1392C130.585 88.0589 130.477 88.0188 130.351 88.0188C130.11 88.0188 129.935 88.1331 129.826 88.3617L129.541 88.1939C129.621 88.0284 129.732 87.9033 129.873 87.8181C130.017 87.7329 130.175 87.6904 130.347 87.6904C130.561 87.6904 130.747 87.761 130.906 87.902C131.064 88.043 131.143 88.2327 131.143 88.4711C131.143 88.7289 130.991 89.0098 130.687 89.3139L130.034 89.9632H131.19V90.2916H129.541ZM133.173 89.9778C133.001 90.2186 132.758 90.339 132.447 90.339C132.136 90.339 131.894 90.2186 131.721 89.9778C131.549 89.737 131.462 89.416 131.462 89.0147C131.462 88.6134 131.549 88.2924 131.721 88.0516C131.894 87.8108 132.136 87.6904 132.447 87.6904C132.758 87.6904 133.001 87.8108 133.173 88.0516C133.346 88.2924 133.432 88.6134 133.432 89.0147C133.432 89.416 133.346 89.737 133.173 89.9778ZM131.969 89.748C132.081 89.9207 132.24 90.007 132.447 90.007C132.654 90.007 132.813 89.9207 132.925 89.748C133.039 89.5752 133.097 89.3308 133.097 89.0147C133.097 88.6986 133.039 88.4542 132.925 88.2814C132.813 88.1063 132.654 88.0188 132.447 88.0188C132.24 88.0188 132.081 88.105 131.969 88.2778C131.857 88.4505 131.802 88.696 131.802 89.0147C131.802 89.3308 131.857 89.5752 131.969 89.748Z" fill="#090909"/>
</g>
</svg>
