<svg width="197" height="197" viewBox="0 0 197 197" fill="none" xmlns="http://www.w3.org/2000/svg">
<path d="M50.0515 61.6497H41.2031V71.4533H50.0515V61.6497Z" stroke="#66768B" stroke-width="0.178094" stroke-miterlimit="22.9256"/>
<path d="M58.9011 61.6497H50.0527V71.4533H58.9011V61.6497Z" stroke="#66768B" stroke-width="0.178094" stroke-miterlimit="22.9256"/>
<path d="M67.7487 61.6497H58.9004V71.4533H67.7487V61.6497Z" stroke="#66768B" stroke-width="0.178094" stroke-miterlimit="22.9256"/>
<path d="M76.5964 61.6497H67.748V71.4533H76.5964V61.6497Z" stroke="#66768B" stroke-width="0.178094" stroke-miterlimit="22.9256"/>
<path d="M85.446 61.6497H76.5977V71.4533H85.446V61.6497Z" stroke="#66768B" stroke-width="0.178094" stroke-miterlimit="22.9256"/>
<path d="M94.2936 61.6497H85.4453V71.4533H94.2936V61.6497Z" stroke="#66768B" stroke-width="0.178094" stroke-miterlimit="22.9256"/>
<path d="M50.0515 71.4534H41.2031V81.2569H50.0515V71.4534Z" stroke="#66768B" stroke-width="0.178094" stroke-miterlimit="22.9256"/>
<path d="M58.9011 71.4534H50.0527V81.2569H58.9011V71.4534Z" stroke="#66768B" stroke-width="0.178094" stroke-miterlimit="22.9256"/>
<path d="M67.7487 71.4534H58.9004V81.2569H67.7487V71.4534Z" stroke="#66768B" stroke-width="0.178094" stroke-miterlimit="22.9256"/>
<path d="M76.5964 71.4534H67.748V81.2569H76.5964V71.4534Z" stroke="#66768B" stroke-width="0.178094" stroke-miterlimit="22.9256"/>
<path d="M85.446 71.4534H76.5977V81.2569H85.446V71.4534Z" stroke="#66768B" stroke-width="0.178094" stroke-miterlimit="22.9256"/>
<path d="M94.2936 71.4534H85.4453V81.2569H94.2936V71.4534Z" stroke="#66768B" stroke-width="0.178094" stroke-miterlimit="22.9256"/>
<path d="M50.0515 81.2571H41.2031V91.0608H50.0515V81.2571Z" stroke="#66768B" stroke-width="0.178094" stroke-miterlimit="22.9256"/>
<path d="M58.9011 81.2571H50.0527V91.0608H58.9011V81.2571Z" stroke="#66768B" stroke-width="0.178094" stroke-miterlimit="22.9256"/>
<path d="M67.7487 81.2571H58.9004V91.0608H67.7487V81.2571Z" stroke="#66768B" stroke-width="0.178094" stroke-miterlimit="22.9256"/>
<path d="M76.5964 81.2571H67.748V91.0608H76.5964V81.2571Z" stroke="#66768B" stroke-width="0.178094" stroke-miterlimit="22.9256"/>
<path d="M85.446 81.2571H76.5977V91.0608H85.446V81.2571Z" stroke="#66768B" stroke-width="0.178094" stroke-miterlimit="22.9256"/>
<path d="M94.2936 81.2571H85.4453V91.0608H94.2936V81.2571Z" stroke="#66768B" stroke-width="0.178094" stroke-miterlimit="22.9256"/>
<path d="M50.0515 91.0605H41.2031V100.864H50.0515V91.0605Z" stroke="#66768B" stroke-width="0.178094" stroke-miterlimit="22.9256"/>
<path d="M58.9011 91.0605H50.0527V100.864H58.9011V91.0605Z" stroke="#66768B" stroke-width="0.178094" stroke-miterlimit="22.9256"/>
<path d="M67.7487 91.0605H58.9004V100.864H67.7487V91.0605Z" stroke="#66768B" stroke-width="0.178094" stroke-miterlimit="22.9256"/>
<path d="M76.5964 91.0605H67.748V100.864H76.5964V91.0605Z" stroke="#66768B" stroke-width="0.178094" stroke-miterlimit="22.9256"/>
<path d="M85.446 91.0605H76.5977V100.864H85.446V91.0605Z" stroke="#66768B" stroke-width="0.178094" stroke-miterlimit="22.9256"/>
<path d="M94.2936 91.0605H85.4453V100.864H94.2936V91.0605Z" stroke="#66768B" stroke-width="0.178094" stroke-miterlimit="22.9256"/>
<path d="M45.1836 30.5908V37.1336H48.2902V30.5908H45.1836Z" fill="white" stroke="#66768B" stroke-width="0.178094" stroke-miterlimit="22.9256"/>
<path d="M41.6465 46.355V58.87H48.2954V46.355H41.6465Z" fill="white" stroke="#66768B" stroke-width="0.178094" stroke-miterlimit="22.9256"/>
<path d="M41.6465 58.87L48.2955 46.355" stroke="#66768B" stroke-width="0.178094" stroke-miterlimit="22.9256"/>
<path d="M41.6465 46.355L48.2955 58.87" stroke="#66768B" stroke-width="0.178094" stroke-miterlimit="22.9256"/>
<path d="M48.3386 26.0908H44.8496V30.148H48.3386V26.0908Z" fill="white" stroke="#66768B" stroke-width="0.178094" stroke-miterlimit="22.9256"/>
<path d="M47.3596 26.0908H44.8496V29.0095H47.3596V26.0908Z" fill="white" stroke="#66768B" stroke-width="0.178094" stroke-miterlimit="22.9256"/>
<path d="M44.8496 26.0908L47.2043 29.0095" stroke="#66768B" stroke-width="0.178094" stroke-miterlimit="22.9256"/>
<path d="M47.3596 26.0908L44.8496 29.0095" stroke="#66768B" stroke-width="0.178094" stroke-miterlimit="22.9256"/>
<path fill-rule="evenodd" clip-rule="evenodd" d="M40.2958 18.6782H44.8494V37.4588H48.5017V45.904H41.2473V59.2367H44.5316V61.5818H41.2473V74.9795H44.5316V77.3244H41.2473V155.536H59.3229V160.486C54.7175 160.486 50.11 160.472 45.546 160.45V181.857H44.4686V183.894C40.2697 183.894 40.7868 183.894 36.5879 183.894C36.5879 137.611 36.5956 91.3268 36.5956 45.0429H40.2958V18.6782Z" fill="#66768B" stroke="#66768B" stroke-width="0.178094" stroke-miterlimit="22.9256"/>
<path d="M92.3078 46.186V47.0553H89.9629V46.186H92.3078Z" fill="white" stroke="#66768B" stroke-width="0.178094" stroke-miterlimit="22.9256"/>
<path d="M92.3078 33.0784V32.209H89.9629V33.0784H92.3078Z" fill="white" stroke="#66768B" stroke-width="0.178094" stroke-miterlimit="22.9256"/>
<path d="M92.3078 32.2091V26.1165H89.9629V32.2091H92.3078Z" fill="#66768B" stroke="#66768B" stroke-width="0.178094" stroke-miterlimit="22.9256"/>
<path d="M150.514 22.1423H149.645V24.4388H150.514V22.1423Z" fill="white" stroke="#66768B" stroke-width="0.178094" stroke-miterlimit="22.9256"/>
<path d="M132.778 22.1423H131.908V24.4388H132.778V22.1423Z" fill="white" stroke="#66768B" stroke-width="0.178094" stroke-miterlimit="22.9256"/>
<path fill-rule="evenodd" clip-rule="evenodd" d="M99.9785 22.1423C110.621 22.1423 121.265 22.1423 131.908 22.1423V26.1167H99.9785V22.1423Z" fill="#66768B" stroke="#66768B" stroke-width="0.178094" stroke-miterlimit="22.9256"/>
<path d="M96.2071 59.2371H95.3379V61.5819H96.2071V59.2371Z" fill="white" stroke="#66768B" stroke-width="0.178094" stroke-miterlimit="22.9256"/>
<path d="M111.86 59.2371H110.99V61.5819H111.86V59.2371Z" fill="white" stroke="#66768B" stroke-width="0.178094" stroke-miterlimit="22.9256"/>
<path fill-rule="evenodd" clip-rule="evenodd" d="M52.0117 61.582H95.3382V59.2369H92.3081V47.0552H89.9633V59.2369H52.0117V61.582Z" fill="#66768B" stroke="#66768B" stroke-width="0.178094" stroke-miterlimit="22.9256"/>
<path fill-rule="evenodd" clip-rule="evenodd" d="M98.7213 69.9163C98.6054 69.7861 98.4399 69.5639 98.2617 69.2916L110.577 60.9348L110.991 61.5819L98.7213 69.9163Z" fill="white" stroke="#66768B" stroke-width="0.178094" stroke-miterlimit="22.9256" stroke-linecap="round" stroke-linejoin="round"/>
<path d="M96.207 61.5818C96.207 63.7197 96.8647 67.1195 98.2614 69.2916" stroke="#66768B" stroke-width="0.178094" stroke-miterlimit="22.9256" stroke-linecap="round" stroke-linejoin="round"/>
<path fill-rule="evenodd" clip-rule="evenodd" d="M99.4617 43.6355C99.3316 43.7515 99.1091 43.9169 98.8371 44.0951L91.6602 33.4922L92.3071 33.0784L99.4617 43.6355Z" fill="white" stroke="#66768B" stroke-width="0.178094" stroke-miterlimit="22.9256" stroke-linecap="round" stroke-linejoin="round"/>
<path d="M92.3066 46.1859C94.4445 46.1859 96.6645 45.4916 98.8366 44.0952" stroke="#66768B" stroke-width="0.178094" stroke-miterlimit="22.9256" stroke-linecap="round" stroke-linejoin="round"/>
<path fill-rule="evenodd" clip-rule="evenodd" d="M146.966 13.0874C147.082 13.2175 147.247 13.4399 147.425 13.7121L133.191 22.7893L132.777 22.1422L146.966 13.0874Z" fill="white" stroke="#66768B" stroke-width="0.178094" stroke-miterlimit="22.9256" stroke-linecap="round" stroke-linejoin="round"/>
<path d="M149.645 22.1424C149.63 19.4746 149.059 16.2522 147.426 13.7122" stroke="#66768B" stroke-width="0.178094" stroke-miterlimit="22.9256" stroke-linecap="round" stroke-linejoin="round"/>
<path fill-rule="evenodd" clip-rule="evenodd" d="M56.6373 183.894H45.5469V181.857C49.4744 181.857 52.7097 181.857 56.6373 181.857V183.894Z" fill="#66768B" stroke="#66768B" stroke-width="0.178094" stroke-miterlimit="22.9256"/>
<path d="M74.0213 155.537V160.486H59.3242V155.537H74.0213Z" fill="white" stroke="#66768B" stroke-width="0.178094" stroke-miterlimit="22.9256"/>
<path d="M91.0615 155.537V160.486H74.0215V155.537H91.0615Z" fill="white" stroke="#66768B" stroke-width="0.178094" stroke-miterlimit="22.9256"/>
<path d="M91.0615 157.957V159.402H74.0215V157.957H91.0615Z" fill="#66768B" stroke="#66768B" stroke-width="0.178094" stroke-miterlimit="22.9256"/>
<path d="M91.06 157.957V159.402H89.2949V157.957H91.06Z" fill="#66768B" stroke="#66768B" stroke-width="0.178094" stroke-miterlimit="22.9256"/>
<path d="M75.7846 157.957V159.402H74.0195V157.957H75.7846Z" fill="#66768B" stroke="#66768B" stroke-width="0.178094" stroke-miterlimit="22.9256"/>
<path d="M58.3753 181.857H56.6367V183.894H58.3753V181.857Z" fill="white" stroke="#66768B" stroke-width="0.178094" stroke-miterlimit="22.9256"/>
<path d="M113.142 181.857H58.375V183.894H113.142V181.857Z" fill="white" stroke="#66768B" stroke-width="0.178094" stroke-miterlimit="22.9256"/>
<path fill-rule="evenodd" clip-rule="evenodd" d="M113.143 183.894H116.024V182.933V181.858V180.896H113.987V181.858H113.143V183.894Z" fill="#66768B" stroke="#66768B" stroke-width="0.178094" stroke-miterlimit="22.9256"/>
<path d="M58.375 182.877H113.142" stroke="#66768B" stroke-width="0.178094" stroke-miterlimit="22.9256"/>
<path d="M113.986 180.896V174.251H116.023V180.896H113.986Z" fill="white" stroke="#66768B" stroke-width="0.178094" stroke-miterlimit="22.9256"/>
<path d="M115.006 174.251V180.896" stroke="#66768B" stroke-width="0.178094" stroke-miterlimit="22.9256"/>
<path d="M116.023 172.534H113.986V174.251H116.023V172.534Z" fill="white" stroke="#66768B" stroke-width="0.178094" stroke-miterlimit="22.9256"/>
<path d="M116.023 168.774H113.986V172.534H116.023V168.774Z" fill="#66768B" stroke="#66768B" stroke-width="0.178094" stroke-miterlimit="22.9256"/>
<path d="M56.636 177.963H55.4277V181.858H56.636V177.963Z" fill="#66768B" stroke="#66768B" stroke-width="0.178094" stroke-miterlimit="22.9256"/>
<path d="M56.636 176.318H55.4277V177.961H56.636V176.318Z" fill="white" stroke="#66768B" stroke-width="0.178094" stroke-miterlimit="22.9256"/>
<path d="M56.636 160.484H55.4277V164.876H56.636V160.484Z" fill="#66768B" stroke="#66768B" stroke-width="0.178094" stroke-miterlimit="22.9256"/>
<path d="M56.636 164.876H55.4277V166.521H56.636V164.876Z" fill="white" stroke="#66768B" stroke-width="0.178094" stroke-miterlimit="22.9256"/>
<path d="M55.4285 162.979H45.3652" stroke="#66768B" stroke-width="0.178094" stroke-miterlimit="22.9256" stroke-dasharray="2.02 2.42"/>
<path d="M56.6367 176.318V166.521" stroke="#66768B" stroke-width="0.178094" stroke-miterlimit="22.9256" stroke-dasharray="2.02 2.42"/>
<path d="M113.986 181.857L116.023 183.894" stroke="#66768B" stroke-width="0.178094" stroke-miterlimit="22.9256"/>
<path d="M74.021 157.957V159.402H73.0918V157.957H74.021Z" fill="white" stroke="#66768B" stroke-width="0.178094" stroke-miterlimit="22.9256"/>
<path d="M60.1587 157.957V159.402H59.3223V157.957H60.1587Z" fill="white" stroke="#66768B" stroke-width="0.178094" stroke-miterlimit="22.9256"/>
<path fill-rule="evenodd" clip-rule="evenodd" d="M70.8983 151.609C70.7134 151.338 70.6269 151.216 70.4471 150.998L60.1602 157.957L60.5742 158.604L70.8983 151.609Z" fill="white" stroke="#66768B" stroke-width="0.178094" stroke-miterlimit="22.9256" stroke-linecap="round" stroke-linejoin="round"/>
<path d="M73.0919 157.957C73.0263 156.028 72.6718 154.119 70.8984 151.609" stroke="#66768B" stroke-width="0.178094" stroke-miterlimit="22.9256" stroke-linecap="round" stroke-linejoin="round"/>
<path fill-rule="evenodd" clip-rule="evenodd" d="M61.2605 168.501C61.1305 168.385 60.9082 168.219 60.636 168.041L55.9902 175.904L56.6372 176.318L61.2605 168.501Z" fill="white" stroke="#66768B" stroke-width="0.178094" stroke-miterlimit="22.9256" stroke-linecap="round" stroke-linejoin="round"/>
<path d="M56.6367 166.521C58.0776 166.521 59.53 167.162 60.7002 168.084" stroke="#66768B" stroke-width="0.178094" stroke-miterlimit="22.9256" stroke-linecap="round" stroke-linejoin="round"/>
<path d="M116.023 167.782H113.986V168.774H116.023V167.782Z" fill="#66768B" stroke="#66768B" stroke-width="0.178094" stroke-miterlimit="22.9256"/>
<path fill-rule="evenodd" clip-rule="evenodd" d="M45.5464 183.894H44.4688V181.857C44.8503 181.857 45.1647 181.857 45.5464 181.857V183.894Z" fill="#66768B" stroke="#66768B" stroke-width="0.178094" stroke-miterlimit="22.9256"/>
<path d="M52.0106 59.2361H44.5312V77.3238H52.0106V59.2361Z" fill="white" stroke="#66768B" stroke-width="0.178094" stroke-miterlimit="22.9256"/>
<path d="M44.5323 61.5813H41.248V74.9791H44.5323V61.5813Z" stroke="#66768B" stroke-width="0.178094" stroke-miterlimit="22.9256"/>
<path d="M50.9896 60.2683H45.5547V72.1497H50.9896V60.2683Z" fill="white" stroke="#66768B" stroke-width="0.178094" stroke-miterlimit="22.9256"/>
<path d="M45.5547 72.1499L50.9896 60.2686" stroke="#66768B" stroke-width="0.178094" stroke-miterlimit="22.9256"/>
<path d="M50.9896 73.3088H45.5547V76.1445H50.9896V73.3088Z" fill="white" stroke="#66768B" stroke-width="0.178094" stroke-miterlimit="22.9256"/>
<path d="M52.0105 73.3088H50.9883V76.1445H52.0105V73.3088Z" fill="#66768B" stroke="#66768B" stroke-width="0.178094" stroke-miterlimit="22.9256"/>
<path d="M50.9896 73.3091L45.5547 76.1448" stroke="#66768B" stroke-width="0.178094" stroke-miterlimit="22.9256"/>
<path d="M99.9791 18.6782H44.8496V26.0909H99.9791V18.6782Z" fill="white" stroke="#66768B" stroke-width="0.178094" stroke-miterlimit="22.9256"/>
<path d="M61.6043 19.835H49.6816V24.9345H61.6043V19.835Z" fill="white" stroke="#66768B" stroke-width="0.178094" stroke-miterlimit="22.9256"/>
<path d="M48.5233 19.835H45.998V24.9345H48.5233V19.835Z" fill="white" stroke="#66768B" stroke-width="0.178094" stroke-miterlimit="22.9256"/>
<path d="M65.2889 19.835H62.7637V24.9345H65.2889V19.835Z" fill="white" stroke="#66768B" stroke-width="0.178094" stroke-miterlimit="22.9256"/>
<path d="M77.8338 19.835H75.3086V24.9345H77.8338V19.835Z" fill="white" stroke="#66768B" stroke-width="0.178094" stroke-miterlimit="22.9256"/>
<path d="M73.9836 19.835H66.6973V24.9345H73.9836V19.835Z" fill="white" stroke="#66768B" stroke-width="0.178094" stroke-miterlimit="22.9256"/>
<path d="M86.4446 19.835H79.1582V24.9345H86.4446V19.835Z" fill="white" stroke="#66768B" stroke-width="0.178094" stroke-miterlimit="22.9256"/>
<path d="M98.8215 19.835H91.5352V24.9345H98.8215V19.835Z" fill="white" stroke="#66768B" stroke-width="0.178094" stroke-miterlimit="22.9256"/>
<path d="M45.9669 19.835H40.5742V22.4921H45.9669V19.835Z" fill="#66768B" stroke="#66768B" stroke-width="0.178094" stroke-miterlimit="22.9256"/>
<path d="M45.998 24.9345L48.5233 19.835" stroke="#66768B" stroke-width="0.178094" stroke-miterlimit="22.9256"/>
<path d="M49.6816 24.9345L61.6043 19.835" stroke="#66768B" stroke-width="0.178094" stroke-miterlimit="22.9256"/>
<path d="M62.7637 24.9345L65.2889 19.835" stroke="#66768B" stroke-width="0.178094" stroke-miterlimit="22.9256"/>
<path d="M66.6973 24.9345L73.9836 19.835" stroke="#66768B" stroke-width="0.178094" stroke-miterlimit="22.9256"/>
<path d="M75.3086 24.9345L77.8338 19.835" stroke="#66768B" stroke-width="0.178094" stroke-miterlimit="22.9256"/>
<path d="M79.1582 24.9345L86.4446 19.835" stroke="#66768B" stroke-width="0.178094" stroke-miterlimit="22.9256"/>
<path d="M91.5352 24.9345L98.8215 19.835" stroke="#66768B" stroke-width="0.178094" stroke-miterlimit="22.9256"/>
<path fill-rule="evenodd" clip-rule="evenodd" d="M116.024 167.782H113.987V160.486H91.0605V155.537H114.537V61.582H111.861V59.2369C126.578 59.2369 141.295 59.2369 156.012 59.2369V45.3768H152.199V26.1167H150.515V22.1423C152.645 22.1423 154.776 22.1423 156.906 22.1423V37.5764H160.115C160.115 46.2207 160.115 54.865 160.115 63.5095H119.05C119.05 99.7421 119.05 135.974 119.05 172.207H116.024V167.782Z" fill="#66768B" stroke="#66768B" stroke-width="0.178094" stroke-miterlimit="22.9256"/>
<path d="M65.2889 18.6782H62.7637V19.8348H65.2889V18.6782Z" fill="#66768B" stroke="#66768B" stroke-width="0.178094" stroke-miterlimit="22.9256"/>
<path d="M77.8338 24.8721H75.3086V26.0286H77.8338V24.8721Z" fill="#66768B" stroke="#66768B" stroke-width="0.178094" stroke-miterlimit="22.9256"/>
<path d="M90.1287 19.835H87.6035V24.9345H90.1287V19.835Z" fill="white" stroke="#66768B" stroke-width="0.178094" stroke-miterlimit="22.9256"/>
<path d="M87.6035 24.9345L90.1287 19.835" stroke="#66768B" stroke-width="0.178094" stroke-miterlimit="22.9256"/>
<path d="M90.1287 18.6782H87.6035V19.8348H90.1287V18.6782Z" fill="#66768B" stroke="#66768B" stroke-width="0.178094" stroke-miterlimit="22.9256"/>
<path d="M44.5323 61.5818H41.248V74.9797H44.5323V61.5818Z" fill="white" stroke="#66768B" stroke-width="0.178094" stroke-miterlimit="22.9256"/>
<path d="M76.4004 117.483H88.3748" stroke="#66768B" stroke-width="0.178094" stroke-miterlimit="10"/>
<path d="M78.541 115.604V115.337L79.4076 114.453C79.6392 114.221 79.7549 114.022 79.7549 113.856C79.7549 113.718 79.7128 113.611 79.6286 113.534C79.5444 113.456 79.4415 113.418 79.3199 113.418C79.0883 113.418 78.9199 113.528 78.8147 113.748L78.541 113.586C78.6182 113.427 78.7247 113.307 78.8603 113.225C78.9983 113.143 79.1503 113.102 79.3164 113.102C79.5222 113.102 79.7011 113.17 79.8532 113.306C80.0053 113.441 80.0812 113.624 80.0812 113.853C80.0812 114.101 79.9351 114.371 79.6427 114.663L79.0147 115.288H80.1268V115.604H78.541ZM81.6792 114.334C81.7984 114.394 81.8921 114.476 81.9598 114.579C82.0277 114.682 82.0616 114.799 82.0616 114.93C82.0616 115.154 81.9833 115.331 81.8265 115.46C81.6699 115.586 81.4676 115.649 81.2196 115.649C80.974 115.649 80.7729 115.586 80.6161 115.46C80.4594 115.331 80.381 115.154 80.381 114.93C80.381 114.799 80.4151 114.682 80.4828 114.579C80.5507 114.476 80.6442 114.394 80.7635 114.334C80.5624 114.207 80.4617 114.028 80.4617 113.797C80.4617 113.574 80.5354 113.404 80.6828 113.284C80.8326 113.163 81.0115 113.102 81.2196 113.102C81.4301 113.102 81.609 113.163 81.7563 113.284C81.9062 113.404 81.9809 113.574 81.9809 113.797C81.9809 114.028 81.8804 114.207 81.6792 114.334ZM81.2196 113.414C81.0957 113.414 80.9915 113.447 80.9073 113.513C80.8256 113.578 80.7845 113.675 80.7845 113.804C80.7845 113.928 80.8266 114.025 80.9108 114.095C80.995 114.163 81.098 114.197 81.2196 114.197C81.3413 114.197 81.4441 114.163 81.5283 114.095C81.6125 114.025 81.6546 113.928 81.6546 113.804C81.6546 113.675 81.6137 113.578 81.5318 113.513C81.4501 113.447 81.3459 113.414 81.2196 113.414ZM81.2196 115.337C81.3764 115.337 81.5015 115.301 81.595 115.228C81.6909 115.153 81.7388 115.047 81.7388 114.909C81.7388 114.773 81.6909 114.669 81.595 114.597C81.5015 114.522 81.3764 114.484 81.2196 114.484C81.0652 114.484 80.9401 114.522 80.8441 114.597C80.7506 114.669 80.7038 114.773 80.7038 114.909C80.7038 115.047 80.7506 115.153 80.8441 115.228C80.9401 115.301 81.0652 115.337 81.2196 115.337ZM82.8815 115.242L82.6535 116.095H82.3903L82.5307 115.242H82.8815ZM84.0251 113.997C84.2707 113.997 84.4729 114.074 84.632 114.228C84.791 114.38 84.8706 114.578 84.8706 114.821C84.8706 115.065 84.791 115.263 84.632 115.418C84.4729 115.572 84.2707 115.649 84.0251 115.649C83.777 115.649 83.5736 115.572 83.4146 115.418C83.2578 115.263 83.1795 115.065 83.1795 114.821C83.1795 114.632 83.2287 114.468 83.3269 114.33L84.1163 113.148H84.4882L83.9093 114.004C83.9607 113.999 83.9993 113.997 84.0251 113.997ZM83.6462 115.197C83.7444 115.29 83.8707 115.337 84.0251 115.337C84.1795 115.337 84.3045 115.29 84.4005 115.197C84.4987 115.101 84.5479 114.976 84.5479 114.821C84.5479 114.667 84.4987 114.543 84.4005 114.449C84.3045 114.356 84.1795 114.309 84.0251 114.309C83.8683 114.309 83.742 114.356 83.6462 114.449C83.5502 114.543 83.5023 114.667 83.5023 114.821C83.5023 114.976 83.5502 115.101 83.6462 115.197ZM86.7724 115.302C86.6064 115.533 86.3737 115.649 86.0742 115.649C85.7749 115.649 85.5421 115.533 85.376 115.302C85.2101 115.07 85.1269 114.762 85.1269 114.376C85.1269 113.99 85.2101 113.681 85.376 113.449C85.5421 113.218 85.7749 113.102 86.0742 113.102C86.3737 113.102 86.6064 113.218 86.7724 113.449C86.9385 113.681 87.0215 113.99 87.0215 114.376C87.0215 114.762 86.9385 115.07 86.7724 115.302ZM85.6146 115.081C85.7223 115.247 85.8754 115.33 86.0742 115.33C86.2731 115.33 86.4263 115.247 86.5338 115.081C86.6438 114.915 86.6987 114.68 86.6987 114.376C86.6987 114.072 86.6438 113.837 86.5338 113.67C86.4263 113.502 86.2731 113.418 86.0742 113.418C85.8754 113.418 85.7223 113.501 85.6146 113.667C85.5071 113.833 85.4532 114.069 85.4532 114.376C85.4532 114.68 85.5071 114.915 85.6146 115.081Z" fill="#090909"/>
<path d="M72.828 119.554C72.0842 119.554 71.469 119.309 70.9825 118.817C70.5006 118.326 70.2598 117.723 70.2598 117.007C70.2598 116.291 70.5006 115.688 70.9825 115.197C71.469 114.706 72.0842 114.46 72.828 114.46C73.277 114.46 73.6888 114.567 74.0629 114.783C74.4419 114.998 74.7366 115.288 74.9471 115.653L74.3787 115.983C74.2384 115.711 74.0279 115.496 73.7472 115.337C73.4712 115.173 73.1648 115.091 72.828 115.091C72.2619 115.091 71.7988 115.274 71.4386 115.639C71.083 116.004 70.9053 116.46 70.9053 117.007C70.9053 117.55 71.083 118.004 71.4386 118.368C71.7988 118.733 72.2619 118.916 72.828 118.916C73.1648 118.916 73.4712 118.836 73.7472 118.677C74.0279 118.513 74.2384 118.298 74.3787 118.032L74.9471 118.354C74.7413 118.719 74.4489 119.012 74.07 119.231C73.691 119.447 73.277 119.554 72.828 119.554Z" fill="#090909"/>
<path d="M68.9414 122.445V111.745C68.9414 111.454 69.177 111.218 69.4677 111.218H87.8871C88.1778 111.218 88.4134 111.454 88.4134 111.745V122.445C88.4134 122.736 88.1778 122.972 87.8871 122.972H69.4677C69.177 122.972 68.9414 122.736 68.9414 122.445Z" stroke="#66768B" stroke-width="0.178094"/>
<path d="M68.9414 122.445V111.745C68.9414 111.454 69.177 111.218 69.4677 111.218H87.8871C88.1778 111.218 88.4134 111.454 88.4134 111.745V122.445C88.4134 122.736 88.1778 122.972 87.8871 122.972H69.4677C69.177 122.972 68.9414 122.736 68.9414 122.445Z" stroke="#66768B" stroke-width="0.178094"/>
<path d="M76.4844 111.218V122.884" stroke="#66768B" stroke-width="0.178094"/>
<path d="M76.4844 111.218V122.884" stroke="#66768B" stroke-width="0.178094"/>
<path d="M88.4131 117.533H76.4844V122.972H88.0623L88.4131 122.621V117.533Z" fill="#66768B"/>
<path d="M88.4131 117.533H76.4844V122.972H88.0623L88.4131 122.621V117.533Z" stroke="#66768B" stroke-width="0.178094"/>
<path d="M88.4131 117.533H76.4844V122.972H88.0623L88.4131 122.621V117.533Z" stroke="#66768B" stroke-width="0.178094"/>
<path d="M79.5222 120.119C79.7093 120.154 79.8625 120.235 79.9818 120.361C80.1011 120.488 80.1607 120.648 80.1607 120.842C80.1607 121.081 80.0788 121.269 79.9151 121.407C79.7514 121.545 79.5525 121.614 79.3187 121.614C79.1315 121.614 78.9655 121.572 78.8205 121.487C78.6754 121.401 78.5726 121.277 78.5117 121.116L78.7854 120.954C78.8578 121.181 79.0357 121.295 79.3187 121.295C79.4708 121.295 79.5946 121.255 79.6906 121.175C79.7865 121.096 79.8344 120.985 79.8344 120.842C79.8344 120.699 79.7865 120.588 79.6906 120.509C79.5946 120.427 79.4708 120.386 79.3187 120.386H79.2345L79.1046 120.186L79.673 119.417H78.5819V119.112H80.0554V119.4L79.5222 120.119ZM82.0944 121.266C81.9283 121.498 81.6956 121.614 81.3962 121.614C81.0968 121.614 80.8641 121.498 80.698 121.266C80.5319 121.035 80.4489 120.726 80.4489 120.34C80.4489 119.954 80.5319 119.646 80.698 119.414C80.8641 119.182 81.0968 119.067 81.3962 119.067C81.6956 119.067 81.9283 119.182 82.0944 119.414C82.2605 119.646 82.3435 119.954 82.3435 120.34C82.3435 120.726 82.2605 121.035 82.0944 121.266ZM80.9366 121.045C81.0441 121.212 81.1974 121.295 81.3962 121.295C81.595 121.295 81.7483 121.212 81.8558 121.045C81.9658 120.879 82.0207 120.644 82.0207 120.34C82.0207 120.036 81.9658 119.801 81.8558 119.635C81.7483 119.467 81.595 119.382 81.3962 119.382C81.1974 119.382 81.0441 119.465 80.9366 119.632C80.8291 119.798 80.7752 120.034 80.7752 120.34C80.7752 120.644 80.8291 120.879 80.9366 121.045ZM83.0824 121.207L82.8543 122.059H82.5912L82.7315 121.207H83.0824ZM83.3453 119.112H84.8785V119.403L83.9839 121.568H83.6435L84.5312 119.421H83.3453V119.112ZM86.737 121.266C86.5708 121.498 86.3382 121.614 86.0388 121.614C85.7393 121.614 85.5067 121.498 85.3406 121.266C85.1745 121.035 85.0915 120.726 85.0915 120.34C85.0915 119.954 85.1745 119.646 85.3406 119.414C85.5067 119.182 85.7393 119.067 86.0388 119.067C86.3382 119.067 86.5708 119.182 86.737 119.414C86.9031 119.646 86.9861 119.954 86.9861 120.34C86.9861 120.726 86.9031 121.035 86.737 121.266ZM85.5792 121.045C85.6867 121.212 85.84 121.295 86.0388 121.295C86.2375 121.295 86.3908 121.212 86.4984 121.045C86.6084 120.879 86.6633 120.644 86.6633 120.34C86.6633 120.036 86.6084 119.801 86.4984 119.635C86.3908 119.467 86.2375 119.382 86.0388 119.382C85.84 119.382 85.6867 119.465 85.5792 119.632C85.4716 119.798 85.4178 120.034 85.4178 120.34C85.4178 120.644 85.4716 120.879 85.5792 121.045Z" fill="#090909"/>
<path d="M73.4656 80.8699H73.0275L71.8671 79.5788V80.8699H71.5098V78.1802H71.8671V79.3945L72.9891 78.1802H73.4271L72.2399 79.4866L73.4656 80.8699ZM74.9702 78.9487H75.3275L74.5437 80.989C74.4616 81.2067 74.3464 81.372 74.1978 81.4848C74.0492 81.6 73.8801 81.6513 73.6906 81.6385V81.3273C73.9262 81.3452 74.0992 81.2171 74.2094 80.9429L74.24 80.8738L73.4063 78.9487H73.7597L74.4169 80.4549L74.9702 78.9487ZM77.2743 80.8699H76.8824L76.3444 80.1437L75.8027 80.8699H75.4106L76.1485 79.8823L75.4529 78.9487H75.8489L76.3444 79.6172L76.8402 78.9487H77.2321L76.5404 79.8786L77.2743 80.8699ZM78.9138 78.9487H79.2482V80.8699H78.9138V80.0669H77.9187V80.8699H77.5843V78.9487H77.9187V79.7479H78.9138V78.9487ZM81.1942 78.9487V80.8699H80.8637V80.1782H80.5832L80.0451 80.8699H79.6378L80.199 80.1591C80.0555 80.1232 79.9388 80.0514 79.8492 79.9439C79.7596 79.8363 79.7148 79.7107 79.7148 79.5672C79.7148 79.3906 79.7775 79.2432 79.9031 79.1254C80.0285 79.0075 80.1862 78.9487 80.3756 78.9487H81.1942ZM80.3872 79.8786H80.8637V79.2599H80.3872C80.2925 79.2599 80.2118 79.2881 80.1451 79.3445C80.0785 79.4008 80.0451 79.4764 80.0451 79.5711C80.0451 79.6634 80.0785 79.7376 80.1451 79.7941C80.2118 79.8504 80.2925 79.8786 80.3872 79.8786ZM81.7353 79.8516V79.5288H83.138V79.8516H81.7353ZM85.0079 78.9487H85.3422V80.8699H85.0079V80.0669H84.0127V80.8699H83.6783V78.9487H84.0127V79.7479H85.0079V78.9487ZM87.2459 78.9487H87.515V80.8699H87.1845V79.5211L86.12 80.8699H85.8511V78.9487H86.1816V80.2974L87.2459 78.9487ZM90.3218 78.9487H90.656V80.8699H88.0239V78.9487H88.3581V80.551H89.1728V78.9487H89.5071V80.551H90.3218V78.9487ZM92.7593 78.9487H93.0936V80.8699H92.7593V80.5394C92.5928 80.7931 92.3507 80.9199 92.033 80.9199C91.7641 80.9199 91.5348 80.8226 91.3452 80.6279C91.1557 80.4307 91.0608 80.191 91.0608 79.9093C91.0608 79.6274 91.1557 79.3892 91.3452 79.1947C91.5348 78.9973 91.7641 78.8987 92.033 78.8987C92.3507 78.8987 92.5928 79.0255 92.7593 79.279V78.9487ZM92.0753 80.5972C92.27 80.5972 92.4326 80.5317 92.5633 80.4012C92.694 80.2679 92.7593 80.104 92.7593 79.9093C92.7593 79.7146 92.694 79.552 92.5633 79.4213C92.4326 79.2881 92.27 79.2215 92.0753 79.2215C91.8832 79.2215 91.7218 79.2881 91.5911 79.4213C91.4604 79.552 91.3952 79.7146 91.3952 79.9093C91.3952 80.104 91.4604 80.2679 91.5911 80.4012C91.7218 80.5317 91.8832 80.5972 92.0753 80.5972Z" fill="#8E9297"/>
<path d="M72.2584 84.3693C72.512 84.3693 72.7259 84.4449 72.9001 84.5961C73.0769 84.7447 73.1653 84.9508 73.1653 85.2147C73.1653 85.476 73.0757 85.6822 72.8962 85.8334C72.7169 85.9844 72.4992 86.06 72.2431 86.06C72.038 86.06 71.8549 86.0114 71.6935 85.9141C71.5321 85.8141 71.4195 85.6708 71.3555 85.4838L71.659 85.3108C71.6949 85.4415 71.764 85.5413 71.8665 85.6104C71.9689 85.6771 72.0945 85.7104 72.2431 85.7104C72.412 85.7104 72.5492 85.6669 72.6541 85.5797C72.7592 85.4927 72.8118 85.371 72.8118 85.2147C72.8118 85.0584 72.7592 84.9368 72.6541 84.8496C72.5492 84.76 72.4147 84.7152 72.2507 84.7152H71.4898L71.5898 83.3203H73.0615V83.6546H71.9126L71.8665 84.3693H72.2584ZM73.9854 85.6143L73.7356 86.548H73.4474L73.6012 85.6143H73.9854ZM76.0629 85.6797C75.881 85.9332 75.6261 86.06 75.2983 86.06C74.9704 86.06 74.7155 85.9332 74.5336 85.6797C74.3517 85.426 74.2608 85.0878 74.2608 84.6652C74.2608 84.2425 74.3517 83.9044 74.5336 83.6508C74.7155 83.3971 74.9704 83.2703 75.2983 83.2703C75.6261 83.2703 75.881 83.3971 76.0629 83.6508C76.2449 83.9044 76.3357 84.2425 76.3357 84.6652C76.3357 85.0878 76.2449 85.426 76.0629 85.6797ZM74.7948 85.4376C74.9127 85.6195 75.0806 85.7104 75.2983 85.7104C75.516 85.7104 75.6839 85.6195 75.8017 85.4376C75.9221 85.2557 75.9822 84.9982 75.9822 84.6652C75.9822 84.3321 75.9221 84.0748 75.8017 83.8928C75.6839 83.7085 75.516 83.6162 75.2983 83.6162C75.0806 83.6162 74.9127 83.7071 74.7948 83.889C74.6771 84.0709 74.6182 84.3296 74.6182 84.6652C74.6182 84.9982 74.6771 85.2557 74.7948 85.4376ZM79.6439 84.0888V86.0102H79.3172V84.6152L78.7062 85.599H78.6639L78.0529 84.6152V86.0102H77.7224V84.0888H78.0798L78.6832 85.061L79.2865 84.0888H79.6439ZM81.0764 84.4116H79.9928V84.204L80.4347 83.7737C80.5397 83.6737 80.6178 83.593 80.669 83.5316C80.7229 83.4676 80.7587 83.4113 80.7767 83.3625C80.7971 83.3113 80.8074 83.2575 80.8074 83.2012C80.8074 83.1192 80.783 83.0577 80.7345 83.0168C80.6883 82.9757 80.6267 82.9552 80.5499 82.9552C80.4731 82.9552 80.4026 82.9706 80.3385 83.0013C80.2771 83.0296 80.2131 83.0692 80.1464 83.1205L80.0119 82.9438C80.0863 82.8796 80.167 82.8284 80.254 82.79C80.3438 82.7515 80.4436 82.7324 80.5538 82.7324C80.7178 82.7324 80.8459 82.7733 80.9381 82.8554C81.0329 82.9347 81.0802 83.0448 81.0802 83.1859C81.0802 83.2703 81.0623 83.3485 81.0264 83.4203C80.993 83.4894 80.9432 83.5611 80.8765 83.6353C80.8125 83.7071 80.7331 83.7878 80.6383 83.8774L80.3271 84.1733H81.0764V84.4116Z" fill="#090907"/>
<path d="M67.9434 168.932V168.609C68.12 168.635 68.2519 168.586 68.3391 168.463C68.4288 168.338 68.4737 168.106 68.4737 167.768V166.242H70.2489V168.932H69.8914V166.58H68.831V167.768C68.831 168.009 68.8078 168.211 68.7617 168.375C68.7182 168.536 68.6542 168.658 68.5696 168.74C68.4877 168.822 68.3954 168.878 68.293 168.909C68.193 168.937 68.0765 168.945 67.9434 168.932ZM72.414 168.69C72.2167 168.885 71.9772 168.982 71.6955 168.982C71.4136 168.982 71.1741 168.885 70.9768 168.69C70.7822 168.495 70.6849 168.256 70.6849 167.972C70.6849 167.687 70.7822 167.448 70.9768 167.253C71.1741 167.058 71.4136 166.961 71.6955 166.961C71.9772 166.961 72.2167 167.058 72.414 167.253C72.6112 167.448 72.7098 167.687 72.7098 167.972C72.7098 168.256 72.6112 168.495 72.414 168.69ZM71.6955 168.656C71.8876 168.656 72.049 168.59 72.1796 168.46C72.3102 168.329 72.3756 168.166 72.3756 167.972C72.3756 167.777 72.3102 167.614 72.1796 167.484C72.049 167.353 71.8876 167.288 71.6955 167.288C71.5059 167.288 71.3457 167.353 71.2152 167.484C71.0845 167.614 71.019 167.777 71.019 167.972C71.019 168.166 71.0845 168.329 71.2152 168.46C71.3457 168.59 71.5059 168.656 71.6955 168.656ZM74.6812 168.613H74.9464V169.447H74.6159V168.932H73.175V169.447H72.8445V168.613H73.0789C73.2018 168.444 73.2632 168.207 73.2632 167.902V167.011H74.6812V168.613ZM73.4594 168.613H74.3509V167.322H73.5937V167.902C73.5937 168.189 73.549 168.426 73.4594 168.613ZM77.6699 168.932H77.278L76.5594 168.022V168.932H76.2289V168.022L75.5104 168.932H75.1222L75.9255 167.941L75.1606 167.011H75.5488L76.2289 167.86V167.011H76.5594V167.86L77.2395 167.011H77.6314L76.8629 167.941L77.6699 168.932ZM79.3846 167.011H79.6535V168.932H79.3232V167.583L78.2588 168.932H77.9898V167.011H78.3202V168.36L79.3846 167.011ZM81.5997 167.011V168.932H81.2692V168.241H80.9887L80.4507 168.932H80.0433L80.6043 168.221C80.461 168.185 80.3444 168.114 80.2547 168.006C80.1651 167.899 80.1202 167.773 80.1202 167.629C80.1202 167.453 80.183 167.305 80.3086 167.188C80.434 167.07 80.5915 167.011 80.7812 167.011H81.5997ZM80.7927 167.941H81.2692V167.322H80.7927C80.6978 167.322 80.6171 167.35 80.5507 167.407C80.484 167.463 80.4507 167.539 80.4507 167.633C80.4507 167.726 80.484 167.8 80.5507 167.856C80.6171 167.913 80.6978 167.941 80.7927 167.941Z" fill="#8E9297"/>
<path d="M70.0362 173.227V173.561H69.7096V174.072H69.3523V173.561H67.9805V173.227L68.9449 171.383H69.3291L68.3646 173.227H69.3523V172.466H69.7096V173.227H70.0362ZM70.8704 173.677L70.6206 174.61H70.3324L70.486 173.677H70.8704ZM71.85 171.383H72.1573V174.072H71.8038V171.767L71.2312 171.936L71.143 171.628L71.85 171.383ZM75.5943 172.151V174.072H75.2677V172.677L74.6567 173.661H74.6144L74.0034 172.677V174.072H73.6731V172.151H74.0305L74.6337 173.123L75.237 172.151H75.5943ZM77.0269 172.474H75.9433V172.266L76.3852 171.836C76.4902 171.736 76.5683 171.655 76.6195 171.594C76.6734 171.53 76.7093 171.474 76.7272 171.425C76.7478 171.374 76.7579 171.32 76.7579 171.263C76.7579 171.181 76.7335 171.12 76.685 171.079C76.6388 171.038 76.5772 171.017 76.5004 171.017C76.4236 171.017 76.3532 171.033 76.2892 171.064C76.2276 171.092 76.1636 171.131 76.0969 171.183L75.9626 171.006C76.0368 170.942 76.1175 170.891 76.2046 170.852C76.2943 170.814 76.3941 170.795 76.5043 170.795C76.6683 170.795 76.7964 170.836 76.8886 170.918C76.9834 170.997 77.0307 171.107 77.0307 171.248C77.0307 171.333 77.0128 171.411 76.977 171.483C76.9437 171.552 76.8937 171.623 76.827 171.698C76.763 171.769 76.6837 171.85 76.5888 171.94L76.2776 172.236H77.0269V172.474Z" fill="#090907"/>
<path d="M118.37 33.0964V35.7862H118.013V33.4345H116.775V35.7862H116.418V33.0964H118.37ZM119.973 33.815C120.242 33.815 120.471 33.9136 120.661 34.1109C120.851 34.3054 120.945 34.5437 120.945 34.8256C120.945 35.1073 120.851 35.3469 120.661 35.5441C120.471 35.7388 120.242 35.8362 119.973 35.8362C119.655 35.8362 119.413 35.7094 119.247 35.4557V36.5547H118.912V33.865H119.247V34.1953C119.413 33.9418 119.655 33.815 119.973 33.815ZM119.931 35.5134C120.123 35.5134 120.284 35.448 120.415 35.3175C120.546 35.1841 120.611 35.0203 120.611 34.8256C120.611 34.6309 120.546 34.4682 120.415 34.3376C120.284 34.2044 120.123 34.1377 119.931 34.1377C119.736 34.1377 119.573 34.2044 119.443 34.3376C119.312 34.4682 119.247 34.6309 119.247 34.8256C119.247 35.0203 119.312 35.1841 119.443 35.3175C119.573 35.448 119.736 35.5134 119.931 35.5134ZM122.739 33.865H123.008V35.7862H122.678V34.4374L121.613 35.7862H121.344V33.865H121.675V35.2136L122.739 33.865ZM125.185 35.7862H124.793L124.255 35.0599L123.713 35.7862H123.321L124.059 34.7986L123.363 33.865H123.759L124.255 34.5335L124.75 33.865H125.142L124.451 34.7949L125.185 35.7862ZM126.981 35.5441C126.784 35.7388 126.544 35.8362 126.262 35.8362C125.981 35.8362 125.741 35.7388 125.544 35.5441C125.349 35.3494 125.252 35.1099 125.252 34.8256C125.252 34.5412 125.349 34.3016 125.544 34.107C125.741 33.9123 125.981 33.815 126.262 33.815C126.544 33.815 126.784 33.9123 126.981 34.107C127.178 34.3016 127.277 34.5412 127.277 34.8256C127.277 35.1099 127.178 35.3494 126.981 35.5441ZM126.262 35.5096C126.455 35.5096 126.616 35.4441 126.747 35.3136C126.877 35.1829 126.943 35.0203 126.943 34.8256C126.943 34.6309 126.877 34.4682 126.747 34.3376C126.616 34.2069 126.455 34.1416 126.262 34.1416C126.073 34.1416 125.913 34.2069 125.782 34.3376C125.652 34.4682 125.586 34.6309 125.586 34.8256C125.586 35.0203 125.652 35.1829 125.782 35.3136C125.913 35.4441 126.073 35.5096 126.262 35.5096ZM129.88 35.7862H129.488L128.77 34.8756V35.7862H128.439V34.8756L127.721 35.7862H127.333L128.136 34.7949L127.371 33.865H127.759L128.439 34.7142V33.865H128.77V34.7142L129.45 33.865H129.842L129.073 34.7949L129.88 35.7862ZM131.637 33.865H131.972V35.7862H131.637V35.4557C131.471 35.7094 131.229 35.8362 130.911 35.8362C130.642 35.8362 130.413 35.7388 130.223 35.5441C130.034 35.3469 129.939 35.1073 129.939 34.8256C129.939 34.5437 130.034 34.3054 130.223 34.1109C130.413 33.9136 130.642 33.815 130.911 33.815C131.229 33.815 131.471 33.9418 131.637 34.1953V33.865ZM130.953 35.5134C131.148 35.5134 131.311 35.448 131.441 35.3175C131.572 35.1841 131.637 35.0203 131.637 34.8256C131.637 34.6309 131.572 34.4682 131.441 34.3376C131.311 34.2044 131.148 34.1377 130.953 34.1377C130.761 34.1377 130.6 34.2044 130.469 34.3376C130.338 34.4682 130.273 34.6309 130.273 34.8256C130.273 35.0203 130.338 35.1841 130.469 35.3175C130.6 35.448 130.761 35.5134 130.953 35.5134ZM133.915 33.865V35.7862H133.585V35.0945H133.304L132.766 35.7862H132.359L132.92 35.0754C132.777 35.0394 132.66 34.9677 132.57 34.8601C132.481 34.7526 132.436 34.627 132.436 34.4835C132.436 34.3069 132.498 34.1595 132.624 34.0416C132.749 33.9237 132.907 33.865 133.097 33.865H133.915ZM133.108 34.7949H133.585V34.1762H133.108C133.013 34.1762 132.933 34.2044 132.866 34.2607C132.799 34.317 132.766 34.3926 132.766 34.4874C132.766 34.5796 132.799 34.6538 132.866 34.7103C132.933 34.7666 133.013 34.7949 133.108 34.7949Z" fill="#8E9297"/>
<path d="M117.167 39.2856C117.42 39.2856 117.634 39.3612 117.808 39.5124C117.985 39.661 118.074 39.8671 118.074 40.1309C118.074 40.3923 117.984 40.5984 117.804 40.7496C117.625 40.9007 117.407 40.9763 117.151 40.9763C116.946 40.9763 116.763 40.9277 116.602 40.8303C116.44 40.7303 116.328 40.587 116.264 40.4L116.567 40.227C116.603 40.3577 116.672 40.4576 116.775 40.5267C116.877 40.5933 117.003 40.6267 117.151 40.6267C117.32 40.6267 117.457 40.5832 117.562 40.496C117.667 40.409 117.72 40.2872 117.72 40.1309C117.72 39.9746 117.667 39.853 117.562 39.7659C117.457 39.6762 117.323 39.6315 117.159 39.6315H116.398L116.498 38.2365H117.97V38.5709H116.821L116.775 39.2856H117.167ZM118.894 40.5305L118.644 41.4643H118.356L118.509 40.5305H118.894ZM120.146 39.1664C120.415 39.1664 120.637 39.251 120.811 39.4201C120.985 39.5866 121.072 39.8031 121.072 40.0695C121.072 40.3358 120.985 40.5537 120.811 40.7228C120.637 40.8917 120.415 40.9763 120.146 40.9763C119.875 40.9763 119.652 40.8917 119.477 40.7228C119.306 40.5537 119.22 40.3358 119.22 40.0695C119.22 39.862 119.274 39.6827 119.381 39.5315L120.246 38.2365H120.653L120.019 39.1742C120.076 39.1691 120.118 39.1664 120.146 39.1664ZM119.731 40.4807C119.839 40.5832 119.977 40.6344 120.146 40.6344C120.315 40.6344 120.452 40.5832 120.557 40.4807C120.665 40.3756 120.719 40.2386 120.719 40.0695C120.719 39.9004 120.665 39.7646 120.557 39.6622C120.452 39.5597 120.315 39.5085 120.146 39.5085C119.974 39.5085 119.836 39.5597 119.731 39.6622C119.626 39.7646 119.574 39.9004 119.574 40.0695C119.574 40.2386 119.626 40.3756 119.731 40.4807ZM124.316 39.0051V40.9265H123.989V39.5315L123.378 40.5153H123.336L122.725 39.5315V40.9265H122.394V39.0051H122.752L123.355 39.9772L123.958 39.0051H124.316ZM125.748 39.3278H124.664V39.1203L125.106 38.69C125.211 38.59 125.29 38.5093 125.341 38.4479C125.395 38.3839 125.431 38.3276 125.448 38.2788C125.469 38.2276 125.479 38.1737 125.479 38.1174C125.479 38.0355 125.455 37.9739 125.406 37.933C125.36 37.892 125.299 37.8715 125.222 37.8715C125.145 37.8715 125.074 37.8869 125.01 37.9176C124.949 37.9458 124.885 37.9855 124.818 38.0367L124.684 37.8601C124.758 37.7959 124.839 37.7446 124.926 37.7062C125.016 37.6678 125.115 37.6487 125.226 37.6487C125.39 37.6487 125.518 37.6896 125.61 37.7717C125.705 37.8509 125.752 37.9611 125.752 38.1021C125.752 38.1865 125.734 38.2648 125.698 38.3365C125.665 38.4056 125.615 38.4774 125.548 38.5516C125.484 38.6233 125.405 38.704 125.31 38.7937L124.999 39.0896H125.748V39.3278Z" fill="#090907"/>
<path d="M113.85 26.1382L113.344 27.0153H114.357L113.85 26.1382ZM113.85 59.2931L114.357 58.416H113.344L113.85 59.2931ZM113.762 26.9276V58.5037H113.938V26.9276H113.762Z" fill="#66768B"/>
<path d="M110.205 46.568V46.2817H112.71V46.6109H110.563L110.72 47.1441L110.434 47.2263L110.205 46.568ZM110.205 45.9364V44.3727H110.502L112.71 45.2853V45.6323L110.52 44.7269V45.9364H110.205ZM110.205 44.1822V42.6183H110.502L112.71 43.5309V43.878L110.52 42.9725V44.1822H110.205ZM112.402 40.7227C112.638 40.892 112.756 41.1295 112.756 41.4347C112.756 41.7401 112.638 41.9775 112.402 42.147C112.166 42.3164 111.851 42.401 111.457 42.401C111.064 42.401 110.749 42.3164 110.512 42.147C110.276 41.9775 110.158 41.7401 110.158 41.4347C110.158 41.1295 110.276 40.892 110.512 40.7227C110.749 40.5532 111.064 40.4685 111.457 40.4685C111.851 40.4685 112.166 40.5532 112.402 40.7227ZM112.176 41.9036C112.346 41.7938 112.431 41.6375 112.431 41.4347C112.431 41.2319 112.346 41.0758 112.176 40.966C112.007 40.8539 111.767 40.7978 111.457 40.7978C111.147 40.7978 110.907 40.8539 110.738 40.966C110.566 41.0758 110.48 41.2319 110.48 41.4347C110.48 41.6375 110.565 41.7938 110.734 41.9036C110.904 42.0133 111.145 42.0682 111.457 42.0682C111.767 42.0682 112.007 42.0133 112.176 41.9036Z" fill="#090907"/>
<path d="M68.8265 43.0287C68.4191 43.0287 68.0821 42.8941 67.8158 42.6252C67.5518 42.3561 67.4199 42.0258 67.4199 41.6337C67.4199 41.2418 67.5518 40.9113 67.8158 40.6424C68.0821 40.3734 68.4191 40.2389 68.8265 40.2389C69.0722 40.2389 69.2978 40.2978 69.5027 40.4157C69.7102 40.5334 69.8716 40.6924 69.9869 40.8922L69.6755 41.0727C69.5987 40.9241 69.4834 40.8064 69.3298 40.7192C69.1785 40.6296 69.0108 40.5847 68.8265 40.5847C68.5165 40.5847 68.2628 40.6846 68.0655 40.8845C67.8709 41.0843 67.7736 41.3341 67.7736 41.6337C67.7736 41.9309 67.8709 42.1794 68.0655 42.3792C68.2628 42.579 68.5165 42.6789 68.8265 42.6789C69.0108 42.6789 69.1785 42.6354 69.3298 42.5483C69.4834 42.4587 69.5987 42.3408 69.6755 42.1947L69.9869 42.3715C69.8741 42.5713 69.7141 42.7315 69.5066 42.8518C69.2991 42.9697 69.0722 43.0287 68.8265 43.0287ZM70.4605 43.3628H70.2607L71.7978 39.9045H71.9976L70.4605 43.3628ZM73.9739 40.2889H74.3351L73.4704 42.3408C73.3731 42.5713 73.2489 42.7392 73.0977 42.8441C72.9466 42.9466 72.7621 42.9915 72.5444 42.9787V42.6482C72.693 42.6636 72.8133 42.6418 72.9056 42.5829C72.9978 42.524 73.0747 42.4227 73.1361 42.2792L73.1631 42.2178L72.2523 40.2889H72.6135L73.3283 41.8259L73.9739 40.2889Z" fill="#8E9297"/>
<path d="M69.423 47.2733V47.6077H69.0963V48.1188H68.739V47.6077H67.3672V47.2733L68.3317 45.4289H68.7158L67.7514 47.2733H68.739V46.5125H69.0963V47.2733H69.423ZM70.2571 47.7229L70.0073 48.6567H69.7191L69.8728 47.7229H70.2571ZM72.3346 47.7883C72.1527 48.0418 71.8978 48.1687 71.57 48.1687C71.2419 48.1687 70.987 48.0418 70.8053 47.7883C70.6234 47.5347 70.5323 47.1965 70.5323 46.7739C70.5323 46.3511 70.6234 46.0131 70.8053 45.7594C70.987 45.5057 71.2419 45.3789 71.57 45.3789C71.8978 45.3789 72.1527 45.5057 72.3346 45.7594C72.5166 46.0131 72.6074 46.3511 72.6074 46.7739C72.6074 47.1965 72.5166 47.5347 72.3346 47.7883ZM71.0665 47.5463C71.1844 47.7282 71.3521 47.819 71.57 47.819C71.7877 47.819 71.9554 47.7282 72.0733 47.5463C72.1938 47.3643 72.2539 47.1068 72.2539 46.7739C72.2539 46.4407 72.1938 46.1834 72.0733 46.0015C71.9554 45.8171 71.7877 45.7248 71.57 45.7248C71.3521 45.7248 71.1844 45.8157 71.0665 45.9976C70.9486 46.1795 70.8899 46.4383 70.8899 46.7739C70.8899 47.1068 70.9486 47.3643 71.0665 47.5463ZM75.9154 46.1974V48.1188H75.5889V46.7239L74.9779 47.7077H74.9356L74.3246 46.7239V48.1188H73.9941V46.1974H74.3515L74.9548 47.1696L75.558 46.1974H75.9154ZM77.3481 46.5202H76.2645V46.3127L76.7064 45.8824C76.8113 45.7824 76.8895 45.7017 76.9407 45.6403C76.9946 45.5763 77.0304 45.52 77.0483 45.4712C77.0688 45.42 77.079 45.3661 77.079 45.3098C77.079 45.2279 77.0547 45.1663 77.006 45.1254C76.9598 45.0844 76.8984 45.0638 76.8216 45.0638C76.7448 45.0638 76.6743 45.0793 76.6102 45.11C76.5488 45.1382 76.4848 45.1779 76.4181 45.2291L76.2836 45.0524C76.358 44.9882 76.4387 44.937 76.5257 44.8986C76.6153 44.8602 76.7153 44.8411 76.8255 44.8411C76.9893 44.8411 77.1175 44.8819 77.2096 44.964C77.3045 45.0433 77.3519 45.1535 77.3519 45.2945C77.3519 45.3789 77.3338 45.4571 77.2981 45.5289C77.2647 45.598 77.2147 45.6698 77.1482 45.744C77.0842 45.8157 77.0047 45.8964 76.91 45.9861L76.5986 46.282H77.3481V46.5202Z" fill="#090907"/>
<path d="M51.7136 172.792H51.2756L50.1151 171.5V172.792H49.7578V170.102H50.1151V171.316L51.2372 170.102H51.6752L50.4879 171.408L51.7136 172.792Z" fill="#8E9297"/>
<path d="M79.5798 129.813H79.1725L78.1542 128.522V129.813H77.8007V128.522L76.7824 129.813H76.3789L77.455 128.437L76.4173 127.123H76.8208L77.8007 128.357V127.123H78.1542V128.357L79.1341 127.123H79.5414L78.5001 128.437L79.5798 129.813ZM81.2943 127.892H81.5632V129.813H81.2329V128.464L80.1684 129.813H79.8995V127.892H80.2298V129.24L81.2943 127.892ZM83.6746 127.892V129.813H83.3402V128.215H82.5833V128.998C82.5833 129.313 82.5191 129.534 82.391 129.659C82.2656 129.782 82.0875 129.834 81.857 129.813V129.498C81.9875 129.516 82.0849 129.488 82.1489 129.413C82.2156 129.337 82.2489 129.196 82.2489 128.991V127.892H83.6746ZM85.7719 127.892H86.1061V129.813H85.7719V129.483C85.6055 129.736 85.3634 129.863 85.0457 129.863C84.7766 129.863 84.5473 129.766 84.3578 129.571C84.1682 129.374 84.0735 129.134 84.0735 128.852C84.0735 128.571 84.1682 128.332 84.3578 128.138C84.5473 127.94 84.7766 127.842 85.0457 127.842C85.3634 127.842 85.6055 127.969 85.7719 128.222V127.892ZM85.088 129.54C85.2827 129.54 85.4453 129.475 85.576 129.344C85.7065 129.211 85.7719 129.047 85.7719 128.852C85.7719 128.658 85.7065 128.495 85.576 128.364C85.4453 128.231 85.2827 128.165 85.088 128.165C84.8957 128.165 84.7343 128.231 84.6038 128.364C84.4731 128.495 84.4078 128.658 84.4078 128.852C84.4078 129.047 84.4731 129.211 84.6038 129.344C84.7343 129.475 84.8957 129.54 85.088 129.54ZM88.0498 127.892V129.813H87.7193V129.121H87.4388L86.9009 129.813H86.4936L87.0546 129.102C86.9111 129.066 86.7946 128.995 86.705 128.887C86.6152 128.779 86.5705 128.654 86.5705 128.51C86.5705 128.334 86.6333 128.186 86.7587 128.068C86.8843 127.951 87.0418 127.892 87.2313 127.892H88.0498ZM87.2429 128.822H87.7193V128.203H87.2429C87.1481 128.203 87.0674 128.231 87.0008 128.288C86.9341 128.344 86.9009 128.419 86.9009 128.514C86.9009 128.606 86.9341 128.681 87.0008 128.737C87.0674 128.793 87.1481 128.822 87.2429 128.822ZM91.5076 129.813H91.0695L89.9091 128.522V129.813H89.5518V127.123H89.9091V128.338L91.0311 127.123H91.4691L90.2819 128.43L91.5076 129.813ZM93.2402 129.571C93.0429 129.766 92.8034 129.863 92.5217 129.863C92.2398 129.863 92.0003 129.766 91.803 129.571C91.6082 129.376 91.5111 129.137 91.5111 128.852C91.5111 128.568 91.6082 128.328 91.803 128.134C92.0003 127.939 92.2398 127.842 92.5217 127.842C92.8034 127.842 93.0429 127.939 93.2402 128.134C93.4374 128.328 93.536 128.568 93.536 128.852C93.536 129.137 93.4374 129.376 93.2402 129.571ZM92.5217 129.536C92.7138 129.536 92.8752 129.471 93.0058 129.34C93.1364 129.21 93.2018 129.047 93.2018 128.852C93.2018 128.658 93.1364 128.495 93.0058 128.364C92.8752 128.234 92.7138 128.168 92.5217 128.168C92.332 128.168 92.1719 128.234 92.0412 128.364C91.9107 128.495 91.8452 128.658 91.8452 128.852C91.8452 129.047 91.9107 129.21 92.0412 129.34C92.1719 129.471 92.332 129.536 92.5217 129.536ZM95.8514 127.892V129.813H95.5247V128.418L94.9139 129.402H94.8716L94.2606 128.418V129.813H93.9302V127.892H94.2875L94.8908 128.864L95.494 127.892H95.8514ZM97.6914 127.892H98.0256V129.813H97.6914V129.01H96.696V129.813H96.3619V127.892H96.696V128.691H97.6914V127.892ZM100.125 127.892H100.46V129.813H100.125V129.483C99.9589 129.736 99.7168 129.863 99.3991 129.863C99.13 129.863 98.9008 129.766 98.7113 129.571C98.5217 129.374 98.4269 129.134 98.4269 128.852C98.4269 128.571 98.5217 128.332 98.7113 128.138C98.9008 127.94 99.13 127.842 99.3991 127.842C99.7168 127.842 99.9589 127.969 100.125 128.222V127.892ZM99.4414 129.54C99.6361 129.54 99.7987 129.475 99.9294 129.344C100.06 129.211 100.125 129.047 100.125 128.852C100.125 128.658 100.06 128.495 99.9294 128.364C99.7987 128.231 99.6361 128.165 99.4414 128.165C99.2491 128.165 99.0878 128.231 98.9572 128.364C98.8266 128.495 98.7613 128.658 98.7613 128.852C98.7613 129.047 98.8266 129.211 98.9572 129.344C99.0878 129.475 99.2491 129.54 99.4414 129.54ZM102.396 127.892V128.215H101.742V129.813H101.408V128.215H100.751V127.892H102.396ZM104.204 127.892H104.539V129.813H104.204V129.483C104.038 129.736 103.796 129.863 103.478 129.863C103.209 129.863 102.98 129.766 102.79 129.571C102.601 129.374 102.506 129.134 102.506 128.852C102.506 128.571 102.601 128.332 102.79 128.138C102.98 127.94 103.209 127.842 103.478 127.842C103.796 127.842 104.038 127.969 104.204 128.222V127.892ZM103.52 129.54C103.715 129.54 103.878 129.475 104.008 129.344C104.139 129.211 104.204 129.047 104.204 128.852C104.204 128.658 104.139 128.495 104.008 128.364C103.878 128.231 103.715 128.165 103.52 128.165C103.328 128.165 103.167 128.231 103.036 128.364C102.905 128.495 102.84 128.658 102.84 128.852C102.84 129.047 102.905 129.211 103.036 129.344C103.167 129.475 103.328 129.54 103.52 129.54Z" fill="#8E9297"/>
<path d="M77.0702 132.263H77.3778V134.953H77.0241V132.648L76.4515 132.817L76.3633 132.509L77.0702 132.263ZM79.8272 134.108V134.442H79.5005V134.953H79.1432V134.442H77.7714V134.108L78.7359 132.263H79.1201L78.1556 134.108H79.1432V133.347H79.5005V134.108H79.8272ZM80.6613 134.557L80.4115 135.491H80.1233L80.277 134.557H80.6613ZM82.7389 134.623C82.5569 134.876 82.302 135.003 81.9742 135.003C81.6461 135.003 81.3913 134.876 81.2095 134.623C81.0276 134.369 80.9366 134.031 80.9366 133.608C80.9366 133.186 81.0276 132.848 81.2095 132.594C81.3913 132.34 81.6461 132.213 81.9742 132.213C82.302 132.213 82.5569 132.34 82.7389 132.594C82.9206 132.848 83.0116 133.186 83.0116 133.608C83.0116 134.031 82.9206 134.369 82.7389 134.623ZM81.4707 134.381C81.5886 134.563 81.7563 134.654 81.9742 134.654C82.1919 134.654 82.3596 134.563 82.4775 134.381C82.5978 134.199 82.6582 133.941 82.6582 133.608C82.6582 133.275 82.5978 133.018 82.4775 132.836C82.3596 132.652 82.1919 132.559 81.9742 132.559C81.7563 132.559 81.5886 132.65 81.4707 132.832C81.3528 133.014 81.2939 133.273 81.2939 133.608C81.2939 133.941 81.3528 134.199 81.4707 134.381ZM86.3196 133.032V134.953H85.9929V133.558L85.3821 134.542H85.3398L84.7288 133.558V134.953H84.3984V133.032H84.7557L85.359 134.004L85.9622 133.032H86.3196ZM87.7523 133.355H86.6687V133.147L87.1106 132.717C87.2155 132.617 87.2937 132.536 87.3449 132.475C87.3986 132.411 87.4346 132.354 87.4525 132.306C87.473 132.254 87.4832 132.201 87.4832 132.144C87.4832 132.062 87.459 132.001 87.4102 131.96C87.3641 131.919 87.3027 131.898 87.2258 131.898C87.149 131.898 87.0785 131.914 87.0144 131.944C86.9529 131.973 86.8888 132.012 86.8223 132.064L86.6878 131.887C86.7622 131.823 86.8429 131.771 86.9299 131.733C87.0195 131.695 87.1195 131.676 87.2297 131.676C87.3935 131.676 87.5216 131.716 87.6139 131.799C87.7086 131.878 87.7561 131.988 87.7561 132.129C87.7561 132.213 87.7381 132.292 87.7023 132.363C87.6689 132.432 87.6189 132.504 87.5525 132.578C87.4884 132.65 87.409 132.731 87.3142 132.821L87.0029 133.116H87.7523V133.355Z" fill="#090907"/>
<path d="M114.026 147.531L113.149 147.024V148.037L114.026 147.531ZM41.5762 147.531L42.4533 148.037V147.024L41.5762 147.531ZM113.236 147.443H42.3656V147.618H113.236V147.443Z" fill="#66768B"/>
<path d="M74.6322 145C74.823 145.036 74.9793 145.118 75.1011 145.247C75.2226 145.376 75.2835 145.539 75.2835 145.737C75.2835 145.981 75.2 146.173 75.033 146.314C74.866 146.454 74.6632 146.525 74.4246 146.525C74.2338 146.525 74.0645 146.482 73.9164 146.396C73.7686 146.308 73.6637 146.181 73.6016 146.017L73.8807 145.852C73.9547 146.083 74.1361 146.199 74.4246 146.199C74.5797 146.199 74.7062 146.159 74.8041 146.077C74.9018 145.996 74.9507 145.883 74.9507 145.737C74.9507 145.592 74.9018 145.479 74.8041 145.397C74.7062 145.314 74.5797 145.272 74.4246 145.272H74.3389L74.2064 145.068L74.7862 144.285H73.6731V143.973H75.1762V144.267L74.6322 145ZM77.1962 144.768C77.1962 144.961 77.1449 145.129 77.0423 145.272H77.0458L76.2371 146.478H75.8614L76.4553 145.602C76.4029 145.606 76.3624 145.609 76.3338 145.609C76.0808 145.609 75.8733 145.531 75.711 145.376C75.5512 145.219 75.4712 145.016 75.4712 144.768C75.4712 144.52 75.5512 144.318 75.711 144.163C75.8733 144.006 76.0808 143.927 76.3338 143.927C76.5866 143.927 76.793 144.006 76.9528 144.163C77.1151 144.318 77.1962 144.52 77.1962 144.768ZM75.9473 144.388C75.8494 144.484 75.8005 144.61 75.8005 144.768C75.8005 144.925 75.8494 145.053 75.9473 145.151C76.0475 145.246 76.1762 145.294 76.3338 145.294C76.4911 145.294 76.6188 145.246 76.7167 145.151C76.8169 145.053 76.8669 144.925 76.8669 144.768C76.8669 144.61 76.8181 144.484 76.7202 144.388C76.6223 144.293 76.4936 144.245 76.3338 144.245C76.1762 144.245 76.0475 144.293 75.9473 144.388ZM78.3192 145C78.5101 145.036 78.6664 145.118 78.7879 145.247C78.9097 145.376 78.9706 145.539 78.9706 145.737C78.9706 145.981 78.8871 146.173 78.72 146.314C78.553 146.454 78.3503 146.525 78.1117 146.525C77.9208 146.525 77.7514 146.482 77.6035 146.396C77.4556 146.308 77.3505 146.181 77.2886 146.017L77.5677 145.852C77.6417 146.083 77.8229 146.199 78.1117 146.199C78.2668 146.199 78.3932 146.159 78.4909 146.077C78.5888 145.996 78.6378 145.883 78.6378 145.737C78.6378 145.592 78.5888 145.479 78.4909 145.397C78.3932 145.314 78.2668 145.272 78.1117 145.272H78.0257L77.8933 145.068L78.4731 144.285H77.3602V143.973H78.8632V144.267L78.3192 145ZM80.9428 146.171C80.7736 146.407 80.5362 146.525 80.2308 146.525C79.9254 146.525 79.688 146.407 79.5186 146.171C79.3493 145.934 79.2646 145.619 79.2646 145.226C79.2646 144.832 79.3493 144.517 79.5186 144.281C79.688 144.045 79.9254 143.927 80.2308 143.927C80.5362 143.927 80.7736 144.045 80.9428 144.281C81.1123 144.517 81.197 144.832 81.197 145.226C81.197 145.619 81.1123 145.934 80.9428 146.171ZM79.7619 145.945C79.8717 146.114 80.028 146.199 80.2308 146.199C80.4336 146.199 80.5899 146.114 80.6995 145.945C80.8116 145.776 80.8678 145.536 80.8678 145.226C80.8678 144.916 80.8116 144.676 80.6995 144.507C80.5899 144.335 80.4336 144.249 80.2308 144.249C80.028 144.249 79.8717 144.334 79.7619 144.503C79.6522 144.672 79.5973 144.913 79.5973 145.226C79.5973 145.536 79.6522 145.776 79.7619 145.945Z" fill="#090907"/>
<path d="M55.61 61.5735L55.1035 62.4506H56.1164L55.61 61.5735ZM55.61 155.249L56.1164 154.372H55.1035L55.61 155.249ZM55.5222 62.3629V154.46H55.6977V62.3629H55.5222Z" fill="#66768B"/>
<path d="M52.7656 110.164C52.7656 109.928 52.836 109.729 52.9768 109.566C53.1152 109.402 53.3071 109.32 53.5529 109.32C53.7962 109.32 53.9883 109.403 54.1292 109.57C54.2699 109.737 54.3402 109.94 54.3402 110.178C54.3402 110.369 54.2949 110.54 54.2042 110.69C54.1113 110.841 53.9776 110.945 53.8034 111.005L53.6424 110.722C53.7641 110.689 53.8571 110.625 53.9215 110.529C53.9836 110.434 54.0146 110.317 54.0146 110.178C54.0146 110.021 53.9741 109.893 53.8929 109.796C53.8118 109.698 53.6985 109.649 53.5529 109.649C53.4075 109.649 53.2942 109.698 53.2129 109.796C53.1294 109.893 53.0877 110.018 53.0877 110.171V110.88L51.7887 110.787V109.416H52.1001V110.486L52.7656 110.529V110.164ZM53.986 107.379C54.2221 107.549 54.3402 107.786 54.3402 108.091C54.3402 108.397 54.2221 108.634 53.986 108.803C53.7497 108.973 53.4348 109.058 53.0412 109.058C52.6475 109.058 52.3327 108.973 52.0964 108.803C51.8602 108.634 51.7422 108.397 51.7422 108.091C51.7422 107.786 51.8602 107.549 52.0964 107.379C52.3327 107.21 52.6475 107.125 53.0412 107.125C53.4348 107.125 53.7497 107.21 53.986 107.379ZM53.7604 108.56C53.9299 108.451 54.0146 108.294 54.0146 108.091C54.0146 107.889 53.9299 107.732 53.7604 107.623C53.5911 107.51 53.3513 107.454 53.0412 107.454C52.731 107.454 52.4912 107.51 52.322 107.623C52.15 107.732 52.0643 107.889 52.0643 108.091C52.0643 108.294 52.149 108.451 52.3183 108.56C52.4877 108.67 52.7286 108.725 53.0412 108.725C53.3513 108.725 53.5911 108.67 53.7604 108.56ZM52.7656 106.009C52.7656 105.773 52.836 105.573 52.9768 105.411C53.1152 105.247 53.3071 105.164 53.5529 105.164C53.7962 105.164 53.9883 105.248 54.1292 105.415C54.2699 105.582 54.3402 105.784 54.3402 106.023C54.3402 106.214 54.2949 106.385 54.2042 106.535C54.1113 106.685 53.9776 106.79 53.8034 106.85L53.6424 106.567C53.7641 106.534 53.8571 106.469 53.9215 106.374C53.9836 106.278 54.0146 106.161 54.0146 106.023C54.0146 105.866 53.9741 105.738 53.8929 105.64C53.8118 105.542 53.6985 105.493 53.5529 105.493C53.4075 105.493 53.2942 105.542 53.2129 105.64C53.1294 105.738 53.0877 105.863 53.0877 106.016V106.725L51.7887 106.631V105.261H52.1001V106.331L52.7656 106.374V106.009ZM53.986 103.224C54.2221 103.393 54.3402 103.631 54.3402 103.936C54.3402 104.241 54.2221 104.479 53.986 104.648C53.7497 104.818 53.4348 104.902 53.0412 104.902C52.6475 104.902 52.3327 104.818 52.0964 104.648C51.8602 104.479 51.7422 104.241 51.7422 103.936C51.7422 103.631 51.8602 103.393 52.0964 103.224C52.3327 103.055 52.6475 102.97 53.0412 102.97C53.4348 102.97 53.7497 103.055 53.986 103.224ZM53.7604 104.405C53.9299 104.295 54.0146 104.139 54.0146 103.936C54.0146 103.733 53.9299 103.577 53.7604 103.467C53.5911 103.355 53.3513 103.299 53.0412 103.299C52.731 103.299 52.4912 103.355 52.322 103.467C52.15 103.577 52.0643 103.733 52.0643 103.936C52.0643 104.139 52.149 104.295 52.3183 104.405C52.4877 104.515 52.7286 104.569 53.0412 104.569C53.3513 104.569 53.5911 104.515 53.7604 104.405Z" fill="#090907"/>
<path d="M55.61 26.3135L55.1035 27.1906H56.1164L55.61 26.3135ZM55.61 59.293L56.1164 58.4159H55.1035L55.61 59.293ZM55.5222 27.1029V58.5036H55.6977V27.1029H55.5222Z" fill="#66768B"/>
<path d="M51.9645 46.5678V46.2815H54.4695V46.6108H52.3223L52.4798 47.1439L52.1936 47.2262L51.9645 46.5678ZM51.9645 45.9363V44.3726H52.2614L54.4695 45.2851V45.6321L52.2793 44.7268V45.9363H51.9645ZM52.9414 43.3885C52.9414 43.1523 53.0117 42.9531 53.1526 42.791C53.291 42.6262 53.4829 42.544 53.7287 42.544C53.972 42.544 54.1641 42.6275 54.305 42.7945C54.4456 42.9615 54.516 43.1643 54.516 43.4028C54.516 43.5937 54.4707 43.7642 54.38 43.9146C54.2871 44.0649 54.1534 44.1698 53.9792 44.2294L53.8182 43.9468C53.9399 43.9133 54.0329 43.8489 54.0972 43.7535C54.1593 43.6581 54.1904 43.5413 54.1904 43.4028C54.1904 43.2453 54.1499 43.1178 54.0687 43.0199C53.9876 42.9222 53.8743 42.8732 53.7287 42.8732C53.5833 42.8732 53.4699 42.9222 53.3887 43.0199C53.3052 43.1178 53.2635 43.243 53.2635 43.3957V44.1042L51.9645 44.0112V42.6406H52.2758V43.7105L52.9414 43.7535V43.3885ZM54.1618 40.6036C54.3979 40.7731 54.516 41.0104 54.516 41.3158C54.516 41.6212 54.3979 41.8586 54.1618 42.0281C53.9255 42.1973 53.6106 42.2821 53.217 42.2821C52.8233 42.2821 52.5084 42.1973 52.2721 42.0281C52.036 41.8586 51.918 41.6212 51.918 41.3158C51.918 41.0104 52.036 40.7731 52.2721 40.6036C52.5084 40.4343 52.8233 40.3496 53.217 40.3496C53.6106 40.3496 53.9255 40.4343 54.1618 40.6036ZM53.9362 41.7846C54.1057 41.6749 54.1904 41.5186 54.1904 41.3158C54.1904 41.113 54.1057 40.9567 53.9362 40.8471C53.7669 40.7348 53.5271 40.6789 53.217 40.6789C52.9068 40.6789 52.667 40.7348 52.4977 40.8471C52.3258 40.9567 52.24 41.113 52.24 41.3158C52.24 41.5186 52.3248 41.6749 52.4941 41.7846C52.6635 41.8944 52.9044 41.9493 53.217 41.9493C53.5271 41.9493 53.7669 41.8944 53.9362 41.7846Z" fill="#090907"/>
</svg>
