<svg width="197" height="40" viewBox="0 0 197 40" fill="none" xmlns="http://www.w3.org/2000/svg">
<path d="M15.7949 0L8.1156 4.39987V20.6794H15.7949V0Z" fill="#090909"/>
<path d="M17.0166 4.39987L24.6959 0V20.6794H17.0166V4.39987Z" fill="#090909"/>
<path d="M33.5969 0L25.9176 4.39987V20.6794H33.5969V0Z" fill="#090909"/>
<path d="M6.8939 8.44415V16.6351L0 20.6794V4.39987L6.8939 8.44415Z" fill="#090909"/>
<path fill-rule="evenodd" clip-rule="evenodd" d="M50.253 20.6794H54.0519V18.3849C56.7722 18.1393 58.9578 17.299 60.6086 15.8637C62.2408 14.4472 63.0568 12.606 63.0568 10.3397C63.0568 8.07342 62.2408 6.23218 60.6086 4.81571C58.9578 3.38043 56.7722 2.54007 54.0519 2.29455V0H50.253V2.29455C47.4763 2.57788 45.2908 3.42769 43.6962 4.84407C42.0828 6.24163 41.2761 8.07342 41.2761 10.3397C41.2761 12.606 42.0828 14.4472 43.6962 15.8637C45.3096 17.2612 47.4953 18.1015 50.253 18.3849V20.6794ZM59.1735 10.3397C59.1735 12.9269 57.4663 14.419 54.0519 14.8155V5.83559C57.4663 6.23218 59.1735 7.73355 59.1735 10.3397ZM50.253 14.7872C46.8386 14.4095 45.1315 12.9269 45.1315 10.3397C45.1315 7.73355 46.8386 6.24163 50.253 5.86386V14.7872Z" fill="#090909"/>
<path d="M70.5236 16.5152H78.8251V20.2545H66.6401V0.424949H78.6843V4.16424H70.5236V8.38511H77.9808V12.0677H70.5236V16.5152Z" fill="#090909"/>
<path d="M93.888 0.424949H97.7431V20.2545H93.888V12.0394H86.5714V20.2545H82.6879V0.424949H86.5714V8.30012H93.888V0.424949Z" fill="#090909"/>
<path d="M113.925 20.2545V8.15841L105.483 20.2545H102.528V0.424949H106.412V12.5493L114.854 0.424949H117.809V20.2545H113.925Z" fill="#090909"/>
<path d="M137.981 20.2545H133.507L126.472 10.9629V20.2545H122.588V0.424949H126.472V9.17829L133.225 0.424949H137.7L130.411 10.0565L137.981 20.2545Z" fill="#090909"/>
<path d="M148.693 20.651C145.729 20.651 143.281 19.6596 141.348 17.6767C139.416 15.7125 138.45 13.2669 138.45 10.3397C138.45 7.39359 139.416 4.94797 141.348 3.00274C143.281 1.01979 145.729 0.0283586 148.693 0.0283586C149.594 0.0283586 150.457 0.141621 151.282 0.368232C152.126 0.576022 152.914 0.887623 153.646 1.30312C154.377 1.69971 155.034 2.19066 155.616 2.77613C156.216 3.3427 156.732 3.98481 157.163 4.70245L153.815 6.65704C153.327 5.7506 152.633 5.05178 151.732 4.56083C150.832 4.0698 149.819 3.82428 148.693 3.82428C146.78 3.82428 145.232 4.42858 144.05 5.63725C142.887 6.86483 142.305 8.43229 142.305 10.3397C142.305 12.2282 142.887 13.7863 144.05 15.0138C145.232 16.2225 146.78 16.8268 148.693 16.8268C149.819 16.8268 150.832 16.5813 151.732 16.0903C152.652 15.5804 153.346 14.8911 153.815 14.0224L157.163 15.977C156.732 16.6946 156.216 17.3462 155.616 17.9316C155.034 18.4981 154.377 18.9891 153.646 19.4046C152.914 19.8012 152.126 20.1034 151.282 20.3112C150.457 20.5378 149.594 20.651 148.693 20.651Z" fill="#090909"/>
<path d="M1.3607 37.1887C2.02336 37.8642 2.86938 38.202 3.89876 38.202C4.52282 38.202 5.09219 38.054 5.60688 37.758C6.128 37.4557 6.5301 37.0536 6.81317 36.5517L6.03149 36.1078C5.83848 36.4745 5.54897 36.7705 5.16296 36.9957C4.78338 37.2144 4.36198 37.3238 3.89876 37.3238C3.11386 37.3238 2.47693 37.0729 1.98798 36.571C1.49903 36.0757 1.25455 35.4516 1.25455 34.6989C1.25455 33.9397 1.49903 33.3124 1.98798 32.817C2.47693 32.3152 3.11386 32.0643 3.89876 32.0643C4.36198 32.0643 4.78338 32.1769 5.16296 32.4021C5.54897 32.6208 5.83848 32.9168 6.03149 33.2899L6.81317 32.8363C6.6652 32.5854 6.48828 32.3603 6.2824 32.1608C6.07653 31.9549 5.84813 31.7812 5.59723 31.6397C5.34631 31.4982 5.0761 31.3888 4.78659 31.3116C4.50351 31.2344 4.20757 31.1958 3.89876 31.1958C2.86938 31.1958 2.02336 31.5335 1.3607 32.2091C0.698045 32.8782 0.366715 33.7081 0.366715 34.6989C0.366715 35.6896 0.698045 36.5196 1.3607 37.1887Z" fill="#090909"/>
<path d="M12.3171 38.0765H13.2145V31.3212H8.31215V38.0765H9.20964V32.1705H12.3171V38.0765Z" fill="#090909"/>
<path d="M19.1804 37.2273H16.0441V35.0849H18.8909V34.2453H16.0441V32.1705H19.1322V31.3212H15.1466V38.0765H19.1804V37.2273Z" fill="#090909"/>
<path d="M26.3726 37.2273H25.6488V31.3212H24.7514V37.2273H21.6439V31.3212H20.7464V38.0765H25.4751V39.3697H26.3726V37.2273Z" fill="#090909"/>
<path d="M32.0898 33.039V38.0765H32.9873V31.3212H32.2635L28.7894 36.3684V31.3212H27.8919V38.0765H28.6157L32.0898 33.039Z" fill="#090909"/>
<path fill-rule="evenodd" clip-rule="evenodd" d="M38.8136 36.5614L39.3636 38.0765H40.319L37.8003 31.3212H36.787L34.2682 38.0765H35.2236L35.7737 36.5614H38.8136ZM38.5047 35.7218H36.0825L37.2888 32.3924L38.5047 35.7218Z" fill="#090909"/>
<path d="M41.6171 37.2273C41.4498 37.2852 41.2568 37.298 41.038 37.2659V38.0765C41.3533 38.1087 41.646 38.0894 41.9162 38.0186C42.1864 37.9478 42.4213 37.8063 42.6207 37.594C42.8201 37.3752 42.9778 37.0696 43.0936 36.6772C43.2094 36.2783 43.2673 35.7701 43.2673 35.1524V32.1705H45.9308V38.0765H46.8283V31.3212H42.3698V35.1524C42.3698 35.5771 42.3408 35.9341 42.2829 36.2236C42.2315 36.5067 42.1478 36.7319 42.032 36.8992C41.9227 37.06 41.7843 37.1694 41.6171 37.2273Z" fill="#090909"/>
<path d="M52.9606 33.039V38.0765H53.8581V31.3212H53.1344L49.6602 36.3684V31.3212H48.7627V38.0765H49.4865L52.9606 33.039Z" fill="#090909"/>
<path d="M59.8491 35.2296C59.6561 34.9466 59.3859 34.731 59.0385 34.5831C59.6047 34.2485 59.8877 33.7563 59.8877 33.1066C59.8877 32.5533 59.6851 32.0965 59.2798 31.7362C58.8809 31.3759 58.3565 31.1958 57.7068 31.1958C56.613 31.1958 55.8635 31.6622 55.4582 32.5951L56.2109 33.0294C56.4619 32.3667 56.9605 32.0354 57.7068 32.0354C58.1121 32.0354 58.4273 32.1351 58.6525 32.3345C58.8841 32.534 58.9999 32.7977 58.9999 33.1259C58.9999 33.454 58.8777 33.721 58.6332 33.9268C58.3887 34.1263 58.0606 34.226 57.6488 34.226H57.0795V35.0463H57.8708C58.3019 35.0463 58.6364 35.1524 58.8745 35.3647C59.1189 35.5771 59.2412 35.8569 59.2412 36.2043C59.2412 36.5517 59.1125 36.8316 58.8551 37.0439C58.5978 37.2498 58.2343 37.3527 57.7647 37.3527C56.8704 37.3527 56.3235 36.9731 56.1241 36.214L55.3617 36.6482C55.5226 37.105 55.7992 37.4782 56.1916 37.7677C56.5905 38.0572 57.1149 38.202 57.7647 38.202C58.4724 38.202 59.0449 38.0186 59.4824 37.6519C59.9199 37.2852 60.1387 36.8123 60.1387 36.2333C60.1387 35.8473 60.0421 35.5127 59.8491 35.2296Z" fill="#090909"/>
<path d="M65.885 33.039V38.0765H66.7825V31.3212H66.0587L62.5846 36.3684V31.3212H61.6871V38.0765H62.4109L65.885 33.039Z" fill="#090909"/>
<path fill-rule="evenodd" clip-rule="evenodd" d="M72.7149 31.9485C72.2967 31.5303 71.7788 31.3212 71.1612 31.3212H68.71V38.0765H69.6075V35.6639H71.1612C71.7788 35.6639 72.2967 35.4548 72.7149 35.0366C73.1331 34.6184 73.3422 34.1038 73.3422 33.4926C73.3422 32.8814 73.1331 32.3667 72.7149 31.9485ZM72.4544 33.4926C72.4544 33.8657 72.3321 34.1842 72.0876 34.448C71.8432 34.6989 71.5343 34.8243 71.1612 34.8243H69.6075V32.1608H71.1612C71.3478 32.1608 71.5183 32.1962 71.6727 32.267C71.8335 32.3313 71.9718 32.4214 72.0876 32.5372C72.2034 32.653 72.2935 32.7945 72.3578 32.9618C72.4222 33.1226 72.4544 33.2996 72.4544 33.4926Z" fill="#090909"/>
<path fill-rule="evenodd" clip-rule="evenodd" d="M75.4939 32.2187C74.8183 32.8942 74.4806 33.721 74.4806 34.6989C74.4806 35.6703 74.8183 36.4971 75.4939 37.179C76.1694 37.861 76.9961 38.202 77.974 38.202C78.9519 38.202 79.7786 37.861 80.4542 37.179C81.1361 36.4971 81.4771 35.6703 81.4771 34.6989C81.4771 33.721 81.1361 32.8942 80.4542 32.2187C79.7786 31.5368 78.9519 31.1958 77.974 31.1958C76.9961 31.1958 76.1694 31.5368 75.4939 32.2187ZM79.8269 32.8267C80.3287 33.3285 80.5796 33.9526 80.5796 34.6989C80.5796 35.4387 80.3287 36.0628 79.8269 36.571C79.3315 37.0729 78.7139 37.3238 77.974 37.3238C77.2341 37.3238 76.6133 37.0729 76.1115 36.571C75.6161 36.0564 75.3684 35.4323 75.3684 34.6989C75.3684 33.959 75.6161 33.3349 76.1115 32.8267C76.6133 32.3184 77.2341 32.0643 77.974 32.0643C78.7203 32.0643 79.3379 32.3184 79.8269 32.8267Z" fill="#090909"/>
<path fill-rule="evenodd" clip-rule="evenodd" d="M87.6322 35.2103C87.452 34.9337 87.2075 34.7214 86.8987 34.5734C87.3877 34.2389 87.6322 33.7692 87.6322 33.1645C87.6322 32.6498 87.4488 32.2123 87.0821 31.852C86.7218 31.4982 86.2747 31.3212 85.7407 31.3212H83.0386V38.0765H85.953C86.4998 38.0765 86.9631 37.8931 87.3426 37.5264C87.7222 37.1597 87.912 36.7062 87.912 36.1657C87.912 35.799 87.8187 35.4805 87.6322 35.2103ZM83.9361 34.226V32.1608H85.7407C86.0173 32.1608 86.2522 32.2638 86.4452 32.4696C86.6446 32.6691 86.7443 32.9103 86.7443 33.1934C86.7443 33.3414 86.7186 33.4797 86.6671 33.6084C86.6156 33.7306 86.5449 33.8368 86.4548 33.9268C86.3647 34.0169 86.2586 34.0909 86.1363 34.1488C86.0141 34.2003 85.8822 34.226 85.7407 34.226H83.9361ZM86.3776 37.1501C86.2489 37.208 86.1074 37.2369 85.953 37.2369H83.9361V35.0463H85.953C86.2489 35.0463 86.4998 35.1524 86.7057 35.3647C86.918 35.5771 87.0242 35.8344 87.0242 36.1368C87.0242 36.2912 86.9952 36.4359 86.9373 36.571C86.8859 36.7062 86.8119 36.822 86.7154 36.9185C86.6189 37.015 86.5063 37.0922 86.3776 37.1501Z" fill="#090909"/>
<path fill-rule="evenodd" clip-rule="evenodd" d="M93.3571 36.5614L93.9072 38.0765H94.8625L92.3438 31.3212H91.3305L88.8118 38.0765H89.7672L90.3172 36.5614H93.3571ZM93.0483 35.7218H90.626L91.8323 32.3924L93.0483 35.7218Z" fill="#090909"/>
<path d="M101.208 31.3212H100.321V34.1874H97.0395V31.3212H96.142V38.0765H97.0395V35.0366H100.321V38.0765H101.208V31.3212Z" fill="#090909"/>
<path d="M108.203 31.3212H107.315V34.1874H104.034V31.3212H103.137V38.0765H104.034V35.0366H107.315V38.0765H108.203V31.3212Z" fill="#090909"/>
<path fill-rule="evenodd" clip-rule="evenodd" d="M111.029 31.3212H110.131V38.0765H112.582C113.207 38.0765 113.724 37.8706 114.136 37.4589C114.554 37.0407 114.763 36.5228 114.763 35.9052C114.763 35.294 114.554 34.7793 114.136 34.3611C113.718 33.9429 113.2 33.7338 112.582 33.7338H111.029V31.3212ZM112.582 37.2369H111.029V34.5734H112.582C112.769 34.5734 112.94 34.6088 113.094 34.6796C113.255 34.7439 113.393 34.834 113.509 34.9498C113.625 35.0656 113.715 35.2071 113.779 35.3744C113.843 35.5352 113.876 35.7122 113.876 35.9052C113.876 36.0982 113.843 36.2783 113.779 36.4456C113.715 36.6064 113.625 36.7448 113.509 36.8606C113.393 36.9764 113.255 37.0696 113.094 37.1404C112.94 37.2048 112.769 37.2369 112.582 37.2369Z" fill="#090909"/>
<path d="M116.346 31.3212H115.449V38.0765H116.346V31.3212Z" fill="#090909"/>
<path d="M119.521 29.864V30.5975H122.126V29.864H119.521Z" fill="#090909"/>
<path d="M122.474 33.039V38.0765H123.371V31.3212H122.647L119.173 36.3684V31.3212H118.276V38.0765H118.999L122.474 33.039Z" fill="#090909"/>
<path d="M132.285 35.2296C132.092 34.9466 131.822 34.731 131.475 34.5831C132.041 34.2485 132.324 33.7563 132.324 33.1066C132.324 32.5533 132.121 32.0965 131.716 31.7362C131.317 31.3759 130.793 31.1958 130.143 31.1958C129.049 31.1958 128.3 31.6622 127.895 32.5951L128.647 33.0294C128.898 32.3667 129.397 32.0354 130.143 32.0354C130.548 32.0354 130.864 32.1351 131.089 32.3345C131.32 32.534 131.436 32.7977 131.436 33.1259C131.436 33.454 131.314 33.721 131.07 33.9268C130.825 34.1263 130.497 34.226 130.085 34.226H129.516V35.0463H130.307C130.738 35.0463 131.073 35.1524 131.311 35.3647C131.555 35.5771 131.678 35.8569 131.678 36.2043C131.678 36.5517 131.549 36.8316 131.291 37.0439C131.034 37.2498 130.671 37.3527 130.201 37.3527C129.307 37.3527 128.76 36.9731 128.56 36.214L127.798 36.6482C127.959 37.105 128.236 37.4782 128.628 37.7677C129.027 38.0572 129.551 38.202 130.201 38.202C130.909 38.202 131.481 38.0186 131.919 37.6519C132.356 37.2852 132.575 36.8123 132.575 36.2333C132.575 35.8473 132.478 35.5127 132.285 35.2296Z" fill="#090909"/>
<path fill-rule="evenodd" clip-rule="evenodd" d="M138.022 36.5614L138.572 38.0765H139.528L137.009 31.3212H135.996L133.477 38.0765H134.432L134.982 36.5614H138.022ZM137.713 35.7218H135.291L136.497 32.3924L137.713 35.7218Z" fill="#090909"/>
<path d="M141.199 37.1887C141.862 37.8642 142.708 38.202 143.737 38.202C144.361 38.202 144.93 38.054 145.445 37.758C145.966 37.4557 146.368 37.0536 146.651 36.5517L145.87 36.1078C145.677 36.4745 145.387 36.7705 145.001 36.9957C144.622 37.2144 144.2 37.3238 143.737 37.3238C142.952 37.3238 142.315 37.0729 141.826 36.571C141.337 36.0757 141.093 35.4516 141.093 34.6989C141.093 33.9397 141.337 33.3124 141.826 32.817C142.315 32.3152 142.952 32.0643 143.737 32.0643C144.2 32.0643 144.622 32.1769 145.001 32.4021C145.387 32.6208 145.677 32.9168 145.87 33.2899L146.651 32.8363C146.503 32.5854 146.327 32.3603 146.121 32.1608C145.915 31.9549 145.686 31.7812 145.435 31.6397C145.185 31.4982 144.914 31.3888 144.625 31.3116C144.342 31.2344 144.046 31.1958 143.737 31.1958C142.708 31.1958 141.862 31.5335 141.199 32.2091C140.536 32.8782 140.205 33.7081 140.205 34.6989C140.205 35.6896 140.536 36.5196 141.199 37.1887Z" fill="#090909"/>
<path d="M152.398 32.1705V31.3212H147.525V32.1705H149.513V38.0765H150.401V32.1705H152.398Z" fill="#090909"/>
<path fill-rule="evenodd" clip-rule="evenodd" d="M157.774 31.9485C157.356 31.5303 156.838 31.3212 156.22 31.3212H153.769V38.0765H154.667V35.6639H156.22C156.838 35.6639 157.356 35.4548 157.774 35.0366C158.192 34.6184 158.401 34.1038 158.401 33.4926C158.401 32.8814 158.192 32.3667 157.774 31.9485ZM157.147 34.448C156.902 34.6989 156.593 34.8243 156.22 34.8243H154.667V32.1608H156.22C156.407 32.1608 156.577 32.1962 156.732 32.267C156.893 32.3313 157.031 32.4214 157.147 32.5372C157.263 32.653 157.353 32.7945 157.417 32.9618C157.481 33.1226 157.513 33.2996 157.513 33.4926C157.513 33.8657 157.391 34.1842 157.147 34.448Z" fill="#090909"/>
<path fill-rule="evenodd" clip-rule="evenodd" d="M160.553 32.2187C159.877 32.8942 159.54 33.721 159.54 34.6989C159.54 35.6703 159.877 36.4971 160.553 37.179C161.228 37.861 162.055 38.202 163.033 38.202C164.011 38.202 164.838 37.861 165.513 37.179C166.195 36.4971 166.536 35.6703 166.536 34.6989C166.536 33.721 166.195 32.8942 165.513 32.2187C164.838 31.5368 164.011 31.1958 163.033 31.1958C162.055 31.1958 161.228 31.5368 160.553 32.2187ZM164.886 32.8267C165.388 33.3285 165.639 33.9526 165.639 34.6989C165.639 35.4387 165.388 36.0628 164.886 36.571C164.391 37.0729 163.773 37.3238 163.033 37.3238C162.293 37.3238 161.672 37.0729 161.171 36.571C160.675 36.0564 160.428 35.4323 160.428 34.6989C160.428 33.959 160.675 33.3349 161.171 32.8267C161.672 32.3184 162.293 32.0643 163.033 32.0643C163.779 32.0643 164.397 32.3184 164.886 32.8267Z" fill="#090909"/>
<path d="M169.343 29.864V30.5975H171.948V29.864H169.343Z" fill="#090909"/>
<path d="M172.296 33.039V38.0765H173.193V31.3212H172.469L168.995 36.3684V31.3212H168.098V38.0765H168.821L172.296 33.039Z" fill="#090909"/>
<path d="M183.545 37.2273H182.822V31.3212H181.924V37.2273H179.415V31.3212H178.527V37.2273H176.018V31.3212H175.121V38.0765H182.648V39.3697H183.545V37.2273Z" fill="#090909"/>
<path d="M189.263 33.039V38.0765H190.16V31.3212H189.437L185.963 36.3684V31.3212H185.065V38.0765H185.789L189.263 33.039Z" fill="#090909"/>
<path d="M195.9 38.0765H197L193.922 34.6024L196.904 31.3212H195.803L192.985 34.3708V31.3212H192.088V38.0765H192.985V34.834L195.9 38.0765Z" fill="#090909"/>
</svg>
